<svg width="154" height="703" viewBox="0 0 154 703" fill="none" xmlns="http://www.w3.org/2000/svg">
<path d="M52.0863 1.73214C57.2031 9.52433 61.3359 18.9923 65.0751 28.0413C68.7487 36.9227 72.0287 46.0555 74.5871 55.6072C79.7695 74.7106 83.0495 94.233 83.5087 114.426C83.9679 134.535 81.8687 154.308 76.9487 173.412C71.2415 195.615 60.4831 214.132 52.3487 234.911C43.4927 257.534 39.8191 283.089 41.8527 308.309C43.8207 332.775 51.8239 354.392 60.5487 376.009C68.4863 395.782 76.4895 416.059 76.4895 438.765C76.4895 463.566 68.2239 487.194 63.6975 510.99C58.0559 540.985 60.0895 571.484 62.1231 601.815C64.1567 632.481 66.1247 663.231 68.4207 693.897C68.7487 698.589 71.2415 702.527 75.1775 702.527C78.6543 702.527 82.1967 698.589 81.9343 693.897C80.3599 666.498 78.4575 639.1 76.6863 611.618C74.9151 584.555 72.4223 557.156 75.0463 530.009C77.4079 505.124 85.9359 481.915 89.0847 457.282C90.7247 444.63 90.7902 432.146 88.9534 419.494C87.3134 408.099 83.9023 397.207 80.1631 386.733C72.8159 366.038 63.0415 346.767 58.2527 324.731C53.2015 301.522 54.4479 276.637 60.8111 254.099C64.0911 242.452 69.3391 231.811 74.2591 221.17C79.0479 210.948 83.3775 200.559 86.9855 189.583C93.1518 170.479 95.9726 149.7 96.4974 129.172C97.0878 104.958 93.4798 80.3243 86.3951 57.8694C82.9183 46.8933 78.3919 36.1686 72.9471 26.6169C70.1919 21.7572 67.1087 17.1489 63.9599 12.7082C60.7455 8.26752 56.9407 4.41332 53.3983 0.391547C52.4799 -0.697684 51.3647 0.726694 52.0863 1.73214Z" fill="#5AA32D"/>
<path d="M117.03 29.5495C122.606 72.3646 127.92 121.799 107.781 160.09C98.7278 177.35 84.9519 189.666 73.6031 204.329C62.5823 218.573 53.5951 236.42 52.8735 256.864C52.6767 262.142 58.8431 261.975 59.1711 256.864C60.6143 236.503 71.7663 219.997 82.7871 206.424C94.6606 191.761 107.846 178.523 116.44 160.09C135.267 119.788 126.477 71.6105 118.801 28.8792C118.539 27.371 116.833 28.0413 117.03 29.5495Z" fill="#5AA32D"/>
<path d="M8.33118 133.026C26.9615 158.33 36.6703 193.688 34.9647 228.292C34.4399 238.347 33.1935 248.317 32.6031 258.456C32.0127 268.175 32.5375 277.81 33.9151 287.446C35.2927 296.83 37.7855 305.963 40.6063 314.844C43.5583 324.061 46.6415 333.696 50.5775 342.326C52.6767 346.851 58.9743 343.834 57.3343 338.64C54.5791 329.674 50.8399 321.212 47.9535 312.247C44.9359 302.946 42.4431 293.311 40.9999 283.34C37.9167 262.98 42.3775 242.787 42.4431 222.427C42.5743 187.572 30.1103 154.141 9.70878 131.351C8.79038 130.261 7.47838 131.853 8.33118 133.026Z" fill="#5AA32D"/>
<path d="M135.464 264.321C122.147 277.475 112.766 297.668 107.846 318.028C102.073 341.907 105.222 366.122 105.157 390.588C105.091 403.24 103.648 415.389 99.3182 426.868C95.3166 437.341 89.8062 446.641 85.0174 456.444C74.7839 477.391 69.7983 502.527 67.9615 526.909C67.8959 527.915 67.8303 528.92 67.7647 529.926C67.4367 534.701 73.3407 535.539 74.1935 531.015C76.4894 519.285 78.1295 507.303 80.6223 495.573C83.1806 483.508 86.9198 472.28 91.971 461.555C96.4974 452.004 101.614 442.955 105.616 432.984C110.011 422.008 112.11 410.361 112.569 398.129C113.553 373.495 108.24 349.364 111.782 324.815C115.128 301.857 124.246 282.419 136.579 265.494C137.104 264.74 136.12 263.65 135.464 264.321Z" fill="#5AA32D"/>
<path d="M29.9791 452.506C49.1343 472.112 47.1663 506.214 46.7071 534.282C46.4447 551.375 47.6911 567.713 51.6927 584.052C55.7599 600.642 61.0079 616.98 66.1903 633.067C68.0271 638.681 75.1775 636.419 73.4719 630.47C68.8143 614.048 63.1727 598.128 58.9087 581.538C54.3823 563.943 53.7919 546.264 53.8575 527.915C53.9231 500.349 52.2175 465.912 31.4879 449.993C30.3071 448.987 28.8639 451.333 29.9791 452.506Z" fill="#5AA32D"/>
<path d="M15.8096 225.695C17.712 228.376 18.5648 231.56 19.352 234.66C18.4336 234.325 17.5152 233.571 17.5152 233.571C18.696 237.341 20.336 241.279 22.5664 244.044C21.7792 244.128 21.2544 243.876 21.2544 243.876C22.8288 245.971 25.9776 247.982 29.0608 248.066C30.0448 248.15 30.9632 247.898 31.816 247.563C31.9472 247.479 32.0128 247.479 32.144 247.396L32.3408 247.312L32.5376 247.228C33.3904 246.641 34.2432 245.887 34.9648 244.966C34.9648 244.966 30.5696 239.603 25.7152 234.828C20.9264 229.968 15.8096 225.695 15.8096 225.695Z" fill="#A2EC75"/>
<path d="M15.8096 225.695C18.4992 226.784 21.1888 226.784 23.8128 226.784C23.2224 225.779 22.304 224.857 22.304 224.857C25.584 225.108 29.3888 226.281 32.2096 228.795C32.0128 227.706 31.6848 227.035 31.6848 227.035C33.9152 228.711 36.3424 232.817 36.8672 236.922C37.064 238.179 36.9984 239.436 36.8015 240.609C36.8015 240.776 36.7359 240.86 36.7359 241.028L36.6704 241.279L36.6048 241.531C36.2768 242.704 35.6864 243.793 34.9648 244.714C34.9648 244.714 30.5696 239.352 25.7152 234.576C20.9264 229.968 15.8096 225.695 15.8096 225.695Z" fill="#A2EC75"/>
<path d="M57.7935 175.423C54.5791 177.517 51.2335 178.188 47.8879 179.025C48.4127 177.517 49.5279 176.093 49.5279 176.093C45.3951 177.35 40.8031 180.115 37.7199 184.472C37.7199 183.047 37.9823 182.042 37.9823 182.042C35.4895 185.058 33.2591 191.175 33.6527 196.537C33.7183 198.213 34.0463 199.721 34.6367 201.061C34.7023 201.229 34.7679 201.397 34.8335 201.564C34.8991 201.648 34.9647 201.732 34.9647 201.899L35.0959 202.151C35.8175 203.407 36.8015 204.497 37.9167 205.418C37.9167 205.418 38.1791 204.916 38.6383 203.994C39.0975 203.072 39.7535 201.816 40.5407 200.224C42.1807 197.123 44.4767 193.185 46.9039 189.415C49.3967 185.645 52.0207 182.042 54.1199 179.528C55.1695 178.271 56.0223 177.182 56.6783 176.428C57.3999 175.842 57.7935 175.423 57.7935 175.423Z" fill="#A2EC75"/>
<path d="M57.7935 175.423C55.8255 179.277 55.3007 183.466 54.9071 187.572C55.9567 186.901 57.0063 185.645 57.0063 185.645C56.2191 190.588 55.0383 195.95 52.9391 199.888C53.9231 199.721 54.5135 199.302 54.5135 199.302C53.0703 202.318 49.7903 205.67 46.0511 207.01C44.9359 207.429 43.6895 207.597 42.5743 207.429C42.4431 207.429 42.3119 207.429 42.1151 207.345C42.0495 207.345 41.9183 207.345 41.8527 207.262L41.5903 207.178H41.5247C40.2783 206.843 39.0975 206.256 37.9823 205.418C37.9823 205.418 38.2447 204.916 38.7039 203.994C39.1631 203.072 39.8191 201.816 40.6063 200.224C42.2463 197.123 44.5423 193.185 46.9695 189.415C49.4623 185.645 52.0863 182.042 54.1855 179.528C55.2351 178.271 56.0879 177.182 56.7439 176.428C57.3999 175.842 57.7935 175.423 57.7935 175.423Z" fill="#A2EC75"/>
<path d="M36.4079 153.722C35.4239 156.654 33.7839 158.916 32.2095 161.095C32.0127 160.006 32.1439 158.665 32.1439 158.665C30.3071 161.514 28.6015 165.284 28.1423 169.138C27.6831 168.301 27.5519 167.714 27.5519 167.714C27.0271 170.479 27.5519 174.92 29.1919 177.852C29.7167 178.774 30.3071 179.528 31.0287 180.115C31.0943 180.198 31.2255 180.282 31.2911 180.282L31.4879 180.366L31.6847 180.45C32.4719 180.952 33.3903 181.204 34.3087 181.204C34.3087 181.204 34.5711 174.25 35.0959 167.379C35.6207 160.592 36.4079 153.722 36.4079 153.722Z" fill="#A2EC75"/>
<path d="M36.4079 153.722C36.6703 156.906 37.8512 159.587 38.9664 162.1C39.36 161.095 39.4911 159.838 39.4911 159.838C40.7375 163.106 41.7215 167.044 41.7215 170.647C42.2463 169.976 42.5087 169.39 42.5087 169.39C42.5743 172.071 41.5903 175.925 39.6879 178.523C39.0975 179.361 38.4416 179.947 37.6544 180.45C37.5888 180.534 37.4575 180.534 37.3919 180.617L37.1951 180.701L36.9984 180.785C36.1456 181.12 35.2928 181.288 34.3744 181.204C34.3744 181.204 34.6367 174.25 35.1615 167.379C35.6207 160.592 36.4079 153.722 36.4079 153.722Z" fill="#A2EC75"/>
<path d="M4.98561 157.576C6.56001 160.257 7.34721 163.357 8.26561 166.29C7.34721 165.955 6.42882 165.117 6.42882 165.117C7.67521 168.803 9.7744 172.741 12.5296 175.087C11.6768 175.255 11.152 175.087 11.152 175.087C13.12 177.015 16.8592 178.439 19.8768 177.517C20.7952 177.266 21.648 176.763 22.3696 176.093C22.4352 176.009 22.5664 175.925 22.632 175.841L22.7632 175.674L22.8944 175.506C23.5504 174.668 24.0752 173.663 24.4688 172.574C24.4688 172.574 23.1568 171.904 21.2544 170.647C19.352 169.474 16.7936 167.798 14.3664 165.871C11.9392 164.028 9.5776 161.933 7.872 160.341C6.10081 158.665 4.98561 157.576 4.98561 157.576Z" fill="#A2EC75"/>
<path d="M4.98561 157.576C7.41281 158.917 9.90561 158.917 12.2672 158.749C11.7424 157.827 10.9552 156.99 10.9552 156.99C13.9072 157.157 17.056 157.576 19.6144 159.168C19.352 158.246 19.0896 157.744 19.0896 157.744C20.992 158.749 23.3536 161.43 24.4688 164.782C24.8624 165.787 25.0592 166.876 25.1248 168.049C25.1248 168.217 25.1248 168.301 25.1248 168.468V168.72V168.971C25.0592 170.144 24.8624 171.317 24.4688 172.49C24.4688 172.49 23.1568 171.82 21.2544 170.563C19.352 169.39 16.7936 167.714 14.3664 165.787C11.9392 163.944 9.5776 161.849 7.872 160.257C6.10081 158.665 4.98561 157.576 4.98561 157.576Z" fill="#A2EC75"/>
<path d="M110.601 122.385C107.781 123.894 104.894 123.977 102.008 124.145C102.598 123.056 103.582 121.967 103.582 121.967C100.04 122.385 96.1694 123.559 93.1519 126.072C93.3487 124.899 93.6767 124.229 93.6767 124.229C91.3807 125.905 88.7567 129.926 87.9695 134.283C87.7071 135.624 87.6415 136.964 87.8383 138.221C87.8383 138.389 87.9039 138.556 87.9039 138.724C87.9039 138.808 87.9695 138.892 87.9695 139.059L88.0351 139.31C88.3631 140.651 88.8223 141.908 89.5439 142.997L110.601 122.385Z" fill="#A2EC75"/>
<path d="M110.601 122.385C108.699 125.486 107.912 129.088 107.059 132.524C108.043 132.105 109.093 131.183 109.093 131.183C107.912 135.456 106.009 139.897 103.32 142.997C104.238 143.081 104.829 142.83 104.829 142.83C102.992 145.176 99.2526 147.354 95.7758 147.186C94.7262 147.186 93.6767 146.851 92.7583 146.349C92.6271 146.265 92.4959 146.181 92.4303 146.097L92.2334 145.93L92.0367 145.762C91.1183 145.092 90.2655 144.086 89.6095 142.997L110.601 122.385Z" fill="#A2EC75"/>
<path d="M65.0751 80.7433C64.8127 80.9109 64.5503 81.1622 64.3535 81.5812C64.2223 82.0001 64.1567 82.419 64.0911 82.838C64.0911 83.6758 64.1567 84.5137 64.3535 85.3516C64.6159 86.2732 64.7471 86.8597 64.8783 87.6138C65.0095 88.2841 65.1407 89.0382 65.2719 89.7085C65.7311 92.4735 65.9279 95.3222 66.1903 98.0872C64.7471 97.0817 63.3695 95.2384 63.3695 95.2384C64.2879 102.109 66.1247 109.65 69.5359 115.264C68.0927 115.012 67.2399 114.509 67.2399 114.509C69.5359 118.783 74.7183 123.475 79.9663 124.48C81.6063 124.815 83.1807 124.731 84.7551 124.229C84.9519 124.145 85.1487 124.061 85.3455 124.061C85.4767 123.977 85.6079 123.977 85.7391 123.894L86.0671 123.726H86.1327C87.7071 122.972 89.1503 121.799 90.3967 120.375C90.3967 120.375 83.5743 110.655 76.6863 100.936C73.2751 96.0763 69.8639 91.2167 67.3055 87.6138C66.6495 86.6922 66.0591 85.8543 65.5343 85.1002C65.0095 84.3461 64.6815 83.592 64.5503 82.838C64.4191 82.1677 64.4847 81.5811 64.6815 81.246C64.9439 80.8271 65.1407 80.7433 65.0751 80.7433Z" fill="#A2EC75"/>
<path d="M65.0751 80.7433C64.6815 81.3298 64.8783 82.0839 65.1407 82.5028C65.4031 83.0055 65.8623 83.3407 66.2559 83.592C66.7151 83.8434 67.2399 84.0948 67.6991 84.3461C68.2239 84.5975 68.7487 84.8488 69.2735 85.0164C71.3727 85.8543 73.5375 86.4408 75.7023 87.1111C75.0463 85.184 73.7999 83.2569 73.7999 83.2569C79.0479 85.1002 84.6895 88.2841 88.6911 93.2275C88.6255 91.3842 88.2975 90.2112 88.2975 90.2112C91.3807 93.5627 94.4639 100.601 94.6607 107.471C94.7919 109.566 94.5295 111.661 94.0047 113.504C93.9391 113.755 93.8735 114.007 93.8079 114.174C93.7423 114.342 93.6767 114.509 93.6767 114.593L93.5455 115.012V115.096C92.8239 117.023 91.7743 118.699 90.4623 120.207C90.4623 120.207 83.6399 110.488 76.7519 100.768C73.3407 95.9087 69.9295 91.0491 67.3711 87.4462C66.7151 86.5246 66.1247 85.6867 65.5999 84.9326C65.0751 84.1786 64.7471 83.4245 64.6159 82.6704C64.4847 82.0001 64.5503 81.4136 64.7471 81.0784C64.9439 80.8271 65.1407 80.7433 65.0751 80.7433Z" fill="#A2EC75"/>
<path d="M101.942 54.1829C99.6462 56.3613 97.0222 57.283 94.4638 58.2046C94.7918 57.0316 95.5134 55.7748 95.5134 55.7748C92.3646 57.1992 89.0191 59.3777 86.7887 62.5616C86.7887 61.4723 86.9198 60.7182 86.9198 60.7182C86.0015 61.8913 85.2143 63.3994 84.4271 65.5779C83.7055 67.7563 83.0495 70.5213 83.2463 73.1187C83.3119 74.7107 83.7055 76.1351 84.2959 77.2243C84.3615 77.3919 84.4271 77.4757 84.5583 77.6432L84.7551 77.8946L84.8863 78.0622C85.6735 78.9838 86.5918 79.5703 87.5758 79.9055C87.5758 79.9055 87.5759 79.8217 87.6415 79.5703C87.7071 79.319 87.7726 78.9838 87.9038 78.6487C88.1006 77.8108 88.4943 76.7216 89.0847 75.381C90.2655 72.7836 92.299 69.7672 94.2014 66.6671C98.0718 60.3831 101.942 54.1829 101.942 54.1829Z" fill="#A2EC75"/>
<path d="M101.942 54.1829C100.761 57.5343 100.696 61.0534 100.565 64.4049C101.417 63.7346 102.205 62.5616 102.205 62.5616C101.877 66.7509 100.958 71.443 99.0558 74.962C99.9086 74.7107 100.433 74.3755 100.433 74.3755C99.843 75.7161 98.6622 77.2243 97.547 78.2297C96.4318 79.2352 95.251 79.7379 94.0046 79.9892C93.2175 80.1568 92.4302 80.2406 91.5118 80.2406C91.3806 80.2406 91.315 80.2406 91.1838 80.2406H90.9871H90.7903C89.8063 80.2406 88.7567 80.1568 87.7727 79.8217C87.7727 79.8217 87.7727 79.7379 87.8383 79.4865C87.9039 79.2352 87.9695 78.9 88.1007 78.5649C88.2975 77.727 88.691 76.6378 89.2814 75.2972C90.4622 72.6998 92.4959 69.6834 94.3983 66.5833C98.0718 60.3831 101.942 54.1829 101.942 54.1829Z" fill="#A2EC75"/>
<path d="M53.1359 18.8247C55.4975 22.4275 56.3503 26.6169 57.0063 30.6387C55.8911 30.136 54.7759 29.0467 54.7759 29.0467C55.9567 33.9064 57.4655 39.1012 59.8271 42.8716C58.7775 42.7878 58.1871 42.5364 58.1871 42.5364C59.8271 45.3852 63.3039 48.4015 67.1087 49.3232C68.2895 49.6583 69.4703 49.6583 70.6511 49.407C70.7823 49.407 70.9135 49.3232 71.1103 49.3232C71.1759 49.3232 71.3071 49.2394 71.3727 49.2394L71.6351 49.1556H71.7007C72.9471 48.7367 74.1279 48.0664 75.1775 47.0609C75.1775 47.0609 74.9151 46.5582 74.3903 45.6365C73.8655 44.7149 73.1439 43.4581 72.2255 42.0337C70.3887 39.1012 67.8303 35.3307 65.0751 31.7279C62.3199 28.2089 59.3679 24.9412 57.0063 22.5951C55.8255 21.4221 54.8415 20.5004 54.1855 19.8301C53.5295 19.1599 53.1359 18.8247 53.1359 18.8247Z" fill="#A2EC75"/>
<path d="M53.1359 18.8247C56.5471 20.4166 59.9583 20.668 63.4351 21.1707C62.7791 19.7463 61.5327 18.4058 61.5327 18.4058C65.7967 19.1598 70.7167 21.4221 74.1279 25.6114C73.9967 24.1033 73.6687 23.1816 73.6687 23.1816C76.4239 25.9466 79.1135 32.063 79.0479 37.5092C79.1135 39.1849 78.7855 40.7769 78.3263 42.2013C78.2607 42.3688 78.1951 42.5364 78.1295 42.704C78.0639 42.7878 78.0639 42.9554 77.9983 43.0391L77.8671 43.2905C77.2111 44.6311 76.2927 45.8879 75.1775 46.8096C75.1775 46.8096 74.9151 46.3068 74.3903 45.3852C73.8655 44.4635 73.1439 43.2067 72.2255 41.7823C70.3887 38.8498 67.8303 35.0794 65.0751 31.4765C62.3199 27.9575 59.3679 24.6898 57.0063 22.3437C55.8255 21.1707 54.8415 20.2491 54.1855 19.5788C53.5295 19.1598 53.1359 18.8247 53.1359 18.8247Z" fill="#A2EC75"/>
<path d="M145.173 129.843C141.958 130.345 139.006 129.34 136.054 128.418C136.907 127.496 138.153 126.826 138.153 126.826C134.48 125.905 130.281 125.653 126.673 127.161C127.133 126.072 127.592 125.486 127.592 125.486C124.902 126.323 121.36 129.424 119.589 133.529C118.998 134.786 118.67 136.127 118.539 137.467V137.635C118.539 137.635 118.539 137.635 118.473 137.719C118.408 137.802 118.277 137.886 118.211 137.97C117.883 138.305 117.555 138.64 117.358 138.975L117.293 139.059C116.965 139.562 116.833 139.981 116.768 140.483C116.702 140.819 116.637 141.238 116.637 141.489V141.573C116.702 142.578 117.03 143.081 117.293 143.5C117.358 143.584 117.489 143.751 117.555 143.835C117.621 143.919 117.752 144.086 117.817 144.17C117.949 144.254 118.08 144.505 118.211 144.589C118.211 144.589 118.277 144.673 118.342 144.757C118.408 144.84 118.473 144.924 118.539 144.924C118.605 145.008 118.67 145.008 118.736 145.092C118.801 145.092 118.801 145.092 118.867 145.176C118.933 145.259 119.064 145.259 119.129 145.343C119.523 145.511 120.048 145.511 120.31 145.343C120.573 145.176 120.769 145.008 120.966 144.757C121.163 144.421 121.097 144.421 121.163 144.254C121.163 144.17 121.163 144.086 121.163 144.003C121.163 143.584 120.966 143.667 120.835 143.5C120.573 143.332 120.31 143.248 119.982 143.165C119.982 143.165 119.982 143.165 119.982 143.248C119.982 143.248 119.917 143.332 119.917 143.248C119.917 143.248 119.851 143.165 119.851 143.081C119.851 142.913 119.851 142.746 119.917 142.578C119.982 142.411 120.179 142.327 120.31 142.243C121.032 141.908 122.016 141.405 123.262 140.735C125.689 139.478 128.969 137.886 132.184 136.21C138.678 133.11 145.173 129.843 145.173 129.843Z" fill="#A2EC75"/>
<path d="M145.173 129.842C142.549 132.272 140.909 135.624 139.334 138.808C140.449 138.724 141.696 138.137 141.696 138.137C139.531 141.992 136.579 145.846 133.168 147.94C134.086 148.359 134.742 148.359 134.742 148.359C132.315 150.119 128.051 150.957 124.574 149.449C123.459 149.03 122.541 148.359 121.688 147.438L121.622 147.354L120.245 142.829L120.31 142.913C120.376 142.913 120.376 142.913 120.441 142.997C120.573 143.081 120.704 142.997 120.573 143.081C120.441 143.081 120.048 143.248 119.982 143.332C119.982 143.332 119.917 143.248 119.851 143.248C119.785 143.248 119.654 143.165 119.589 143.165L119.457 143.081H119.523H119.654L120.113 143.248C120.113 143.248 120.113 143.248 120.113 143.332C120.113 143.332 120.048 143.416 120.048 143.332C120.048 143.332 119.982 143.248 119.982 143.165C119.982 142.997 119.982 142.829 120.048 142.662C120.113 142.494 120.31 142.41 120.441 142.327C121.163 141.992 122.147 141.489 123.393 140.819C125.821 139.562 129.101 137.97 132.315 136.294C138.678 133.11 145.173 129.842 145.173 129.842Z" fill="#A2EC75"/>
<path d="M145.697 83.257C142.417 85.4354 139.006 85.8543 135.661 86.2733C136.251 84.9327 137.366 83.5921 137.366 83.5921C133.233 84.43 128.773 86.0219 125.361 89.122C125.558 87.7815 125.886 86.9436 125.886 86.9436C123.328 89.0383 120.441 93.7303 119.589 98.8413C119.326 100.433 119.261 102.025 119.457 103.533C119.457 103.701 119.523 103.952 119.523 104.12C119.523 104.204 119.589 104.371 119.589 104.455L119.654 104.79V104.874C119.982 106.466 120.638 107.974 121.425 109.315C121.425 109.315 127.723 103.198 133.824 96.6629C139.859 90.1275 145.697 83.257 145.697 83.257Z" fill="#A2EC75"/>
<path d="M145.697 83.257C143.729 87.1949 143.008 91.5519 142.155 95.825C143.336 95.2385 144.517 93.9817 144.517 93.9817C143.336 99.1765 141.171 104.874 137.957 108.728C139.072 108.728 139.793 108.393 139.793 108.393C137.563 111.493 133.037 114.342 128.838 114.258C127.526 114.258 126.28 113.923 125.165 113.253C125.033 113.169 124.902 113.085 124.771 113.001C124.705 112.918 124.574 112.918 124.509 112.834L124.246 112.666C123.131 111.828 122.147 110.655 121.36 109.315C121.36 109.315 127.657 103.198 133.758 96.6629C139.859 90.1275 145.697 83.257 145.697 83.257Z" fill="#A2EC75"/>
<path d="M121.36 199.386C117.817 197.459 115.259 194.191 112.701 191.091C114.013 190.756 115.587 191.007 115.587 191.007C112.241 187.32 108.043 183.885 103.648 182.628C104.632 181.874 105.353 181.623 105.353 181.623C102.205 180.45 97.0878 180.953 93.4142 183.801C92.2334 184.639 91.315 185.728 90.5278 187.069C90.4622 187.237 90.331 187.404 90.2654 187.572C90.1998 187.655 90.1342 187.823 90.1342 187.907C90.0686 187.991 90.0686 188.074 90.003 188.242C89.347 189.75 88.8878 191.426 88.691 193.185L121.36 199.386Z" fill="#A2EC75"/>
<path d="M121.36 199.386C117.555 199.972 114.341 202.067 111.192 204.162C112.373 204.916 113.947 205.335 113.947 205.335C109.945 207.597 105.157 209.356 100.63 208.937C101.417 210.027 102.073 210.529 102.073 210.529C98.7934 210.446 94.0047 208.1 91.1183 203.994C90.1999 202.737 89.5439 201.313 89.0847 199.805C89.0191 199.637 88.9534 199.386 88.9534 199.218C88.9534 199.134 88.8878 198.967 88.8878 198.799C88.8878 198.715 88.8223 198.548 88.8223 198.464C88.8223 198.464 88.8223 198.464 88.8223 198.38C88.4943 196.704 88.4943 194.945 88.6911 193.185L121.36 199.386Z" fill="#A2EC75"/>
<path d="M118.145 173.244C116.112 172.658 114.537 171.317 112.897 169.976C113.553 169.641 114.406 169.557 114.406 169.557C112.373 168.049 109.88 166.793 107.453 166.709C107.912 166.206 108.305 165.955 108.305 165.955C106.534 165.787 103.91 166.709 102.205 168.72C101.68 169.306 101.221 170.06 100.958 170.814C100.893 170.898 100.893 170.982 100.827 171.149C100.827 171.233 100.761 171.317 100.761 171.317C100.761 171.401 100.696 171.401 100.696 171.485C100.433 172.322 100.368 173.328 100.433 174.25L118.145 173.244Z" fill="#A2EC75"/>
<path d="M118.145 173.244C116.177 173.998 114.669 175.59 113.16 177.098C113.816 177.35 114.669 177.35 114.669 177.35C112.766 179.109 110.339 180.617 107.977 181.036C108.502 181.539 108.896 181.707 108.896 181.707C107.125 182.126 104.435 181.455 102.598 179.696C102.008 179.193 101.549 178.523 101.221 177.769C101.155 177.685 101.155 177.601 101.089 177.517C101.089 177.433 101.024 177.35 101.024 177.35C101.024 177.266 100.958 177.266 100.958 177.182C100.696 176.344 100.499 175.423 100.499 174.501L118.145 173.244Z" fill="#A2EC75"/>
<path d="M71.6351 251.082C68.8799 251.753 66.3215 251.166 63.7631 250.831C64.4191 249.909 65.4687 249.155 65.4687 249.155C62.2543 248.82 58.4495 249.323 55.4319 251.334C55.7599 250.328 56.0879 249.742 56.0879 249.742C53.7919 250.999 50.9711 254.518 49.9871 258.456C49.6591 259.629 49.5935 260.885 49.6591 262.058C49.6591 262.226 49.6591 262.31 49.7247 262.477L49.7903 262.729L49.8559 262.98C50.0527 264.153 50.5119 265.326 51.1023 266.415C51.1023 266.415 55.9567 261.975 61.1391 258.12C66.1903 254.266 71.6351 251.082 71.6351 251.082Z" fill="#A2EC75"/>
<path d="M71.6351 251.082C69.5359 253.345 68.3551 256.361 67.2399 259.21C68.1583 259.042 69.1423 258.456 69.1423 258.456C67.5679 261.891 65.5999 265.494 63.1071 267.756C63.8943 267.923 64.4191 267.84 64.4191 267.84C62.6479 269.599 59.4335 271.024 56.4159 270.605C55.4975 270.521 54.5791 270.186 53.7919 269.599C53.7263 269.515 53.5951 269.432 53.4639 269.348L53.2671 269.18L53.0703 269.013C52.2831 268.342 51.5615 267.421 50.9711 266.415C50.9711 266.415 55.8255 261.975 61.0079 258.12C66.1903 254.266 71.6351 251.082 71.6351 251.082Z" fill="#A2EC75"/>
<path d="M61.0735 291.049C58.9743 291.384 57.0063 290.965 54.9727 290.797C55.4975 290.043 56.3503 289.457 56.3503 289.457C53.7919 289.289 50.7743 289.96 48.4127 291.97C48.6095 291.133 48.8719 290.63 48.8719 290.63C47.0351 291.97 45.0015 295.238 44.6735 298.506C44.5423 299.511 44.6079 300.433 44.8703 301.271C44.8703 301.355 44.9359 301.438 44.9359 301.606L45.0015 301.773L45.0671 301.941C45.3951 302.779 45.8543 303.533 46.4447 304.203C46.4447 304.203 46.6415 303.952 46.9695 303.449C47.2975 302.946 47.7567 302.276 48.4127 301.522C49.5935 300.014 51.2991 298.087 53.1359 296.411C54.9727 294.735 56.9407 293.311 58.5151 292.389C59.3023 291.887 59.8927 291.551 60.3519 291.3C60.8111 291.216 61.0735 291.049 61.0735 291.049Z" fill="#A2EC75"/>
<path d="M61.0735 291.049C59.3679 292.641 58.4495 294.903 57.7935 297.082C58.4495 296.914 59.1711 296.495 59.1711 296.495C58.0559 299.092 56.8751 301.69 55.3663 303.533C55.9567 303.617 56.2847 303.533 56.2847 303.533C55.2351 304.874 53.1359 306.13 50.9711 306.298C50.3151 306.382 49.5935 306.298 48.9375 306.047C48.8719 306.047 48.8063 305.963 48.6751 305.963L48.5439 305.879L48.4127 305.795C47.7567 305.46 47.1007 304.957 46.5103 304.287C46.5103 304.287 46.7071 304.036 47.0351 303.533C47.3631 303.03 47.8223 302.36 48.4783 301.606C49.6591 300.098 51.3647 298.171 53.2015 296.495C55.0383 294.819 57.0063 293.395 58.5807 292.473C59.3679 291.97 59.9583 291.635 60.4175 291.384C60.8111 291.216 61.0735 291.049 61.0735 291.049Z" fill="#A2EC75"/>
<path d="M41.3935 347.186C41.1311 346.097 40.9999 345.007 40.9343 343.918C40.5407 344.421 40.2127 344.924 39.8191 345.51C41.5903 347.94 42.9023 350.789 44.1487 353.47C42.9023 353.386 41.5247 352.632 41.5247 352.632C43.8207 356.989 47.0351 361.43 50.7087 363.943C49.6591 364.362 48.9375 364.278 48.9375 364.278C50.2495 365.284 52.0863 366.122 54.1199 366.457C55.1039 366.624 56.1535 366.708 57.2031 366.624C57.4655 366.624 57.7279 366.624 57.9903 366.541C58.1215 366.541 58.2527 366.541 58.3839 366.457H58.5807L58.7119 366.373C59.0399 366.206 59.3023 365.87 59.4991 365.535C60.0895 364.865 61.0079 364.195 61.8607 363.524C61.9919 363.441 62.0575 363.357 62.1887 363.273L62.3855 363.105L62.5823 362.938C63.5007 362.268 64.3535 361.597 65.2719 360.508C65.2719 359.754 64.9439 359 64.5503 358.497C64.1567 357.911 63.6319 357.492 63.1071 357.157C62.0575 356.402 60.9423 355.9 59.8271 355.229L53.2671 351.627L40.1471 344.337L41.3935 347.186Z" fill="#A2EC75"/>
<path d="M41.3935 347.186C40.7375 346.348 40.0815 345.678 39.4255 345.007L37.7855 343.416H40.5407C43.1647 343.416 45.6575 342.745 48.0847 342.075C47.1663 340.986 45.7887 340.148 45.7887 340.148C49.8559 339.31 54.5791 339.226 58.5807 340.986C58.1215 339.729 57.5967 339.059 57.5967 339.059C59.1055 339.645 60.8111 340.818 62.3855 342.41C63.1727 343.248 63.8943 344.17 64.6159 345.175C64.8127 345.426 64.9439 345.678 65.0751 345.929C65.1407 346.097 65.2063 346.18 65.2719 346.348L65.4031 346.516L65.5999 346.767C66.0591 347.437 66.5839 348.191 67.0431 348.945C68.1583 350.956 68.4863 352.967 68.2239 354.727C68.2239 354.978 68.1583 355.146 68.0927 355.397C68.0927 355.565 68.0271 355.648 67.9615 355.816L67.8303 356.151V356.235C67.3055 357.994 66.2559 359.419 65.2719 360.592C65.2719 359.838 64.9439 359.084 64.5503 358.581C64.1567 357.994 63.6319 357.576 63.1071 357.24C62.0575 356.486 60.9423 355.984 59.8271 355.313L53.2671 351.71L40.1471 344.421L41.3935 347.186Z" fill="#A2EC75"/>
<path d="M45.1328 382.628C48.2815 383.466 50.7743 385.644 53.1359 387.823C52.1519 388.326 50.8399 388.409 50.8399 388.409C53.9231 390.839 57.5967 393.018 61.2047 393.52C60.4831 394.274 59.8927 394.61 59.8927 394.61C61.2047 394.861 62.8447 394.777 64.5503 394.191C66.1247 393.688 68.3551 392.766 68.3551 391.342C68.7487 390.588 69.2735 389.918 69.6015 389.331L69.7327 389.08L69.7983 388.912L69.8639 388.745C70.1919 388.074 70.3231 387.153 70.7167 386.063C70.7167 386.063 70.7823 385.98 70.9135 385.728C71.0447 385.477 71.1103 385.142 71.0447 384.639C70.9791 384.136 70.7167 383.634 70.2575 383.298C69.7983 382.963 69.2079 382.796 68.5519 382.712C65.9279 382.544 62.5167 382.293 59.0399 382.293C52.0863 382.209 45.1328 382.628 45.1328 382.628Z" fill="#A2EC75"/>
<path d="M45.1328 382.628C48.2159 381.371 50.5775 379.025 53.0703 376.763C52.0207 376.344 50.6431 376.26 50.6431 376.26C53.7919 373.663 57.7279 371.401 61.6639 371.233C60.8767 370.395 60.2863 370.06 60.2863 370.06C61.7295 369.892 63.5007 370.144 65.3375 370.814C66.2559 371.149 67.1087 371.652 67.9615 372.239C68.4207 372.574 68.6831 372.825 69.4047 373.244C69.5359 373.328 69.7983 373.412 69.9295 373.579C70.0607 373.663 70.2575 373.83 70.3887 373.914C70.6511 374.166 70.9791 374.417 71.2415 374.668C71.8975 375.339 72.3567 376.177 72.6191 377.014C72.8815 377.852 72.9471 378.774 72.8159 379.612C72.8159 379.863 72.7503 380.031 72.7503 380.282C72.7503 380.45 72.6847 380.533 72.6847 380.701L72.6191 381.036V381.12C72.0943 382.879 71.3727 384.555 70.8479 386.147C70.8479 386.147 70.9135 386.063 71.0447 385.812C71.1759 385.561 71.2415 385.225 71.1759 384.723C71.1103 384.22 70.8479 383.717 70.3887 383.382C69.9295 383.047 69.3391 382.879 68.6831 382.796C66.0591 382.628 62.6479 382.377 59.1711 382.377C52.0863 382.209 45.1328 382.628 45.1328 382.628Z" fill="#A2EC75"/>
<path d="M82.9183 359.167C81.0159 361.262 78.7855 362.351 76.5551 363.357C76.7519 362.268 77.3423 361.178 77.3423 361.178C74.6527 362.687 71.8319 364.865 69.9951 367.798C69.9295 366.792 69.9951 366.206 69.9951 366.206C68.5519 368.3 67.3055 372.322 67.5679 375.925C67.6335 377.014 67.8959 378.103 68.2895 379.025C68.3551 379.109 68.4207 379.276 68.4207 379.36C68.4863 379.444 68.4863 379.528 68.5519 379.612C68.6175 379.695 68.6175 379.779 68.6831 379.779C69.2079 380.701 69.8639 381.539 70.5855 382.209L82.9183 359.167Z" fill="#A2EC75"/>
<path d="M82.9183 359.167C82.0655 362.268 82.1311 365.284 82.1967 368.216C82.9183 367.546 83.5087 366.457 83.5087 366.457C83.4431 370.144 82.8527 374.333 81.3439 377.601C82.0655 377.349 82.5247 376.93 82.5247 376.93C81.5407 379.444 79.1135 382.376 76.3583 383.382C75.5055 383.717 74.6527 383.801 73.7999 383.717C73.6687 383.717 73.6031 383.717 73.4719 383.633C73.4063 383.633 73.3407 383.633 73.2751 383.55C73.2095 383.55 73.1439 383.549 73.0783 383.466C72.2255 383.214 71.3727 382.712 70.6511 382.041L82.9183 359.167Z" fill="#A2EC75"/>
<path d="M76.2927 330.512C74.7183 332.942 72.6847 334.283 70.6511 335.456C70.7823 334.45 71.1759 333.277 71.1759 333.277C68.8143 335.037 66.3215 337.215 64.6815 339.897C64.5503 338.975 64.6159 338.388 64.6159 338.388C63.3695 340.316 62.3855 343.918 62.5823 347.27C62.6479 348.359 62.8447 349.365 63.1727 350.286C63.2383 350.37 63.2383 350.538 63.3039 350.621L63.3695 350.873L63.4351 351.04C63.8943 351.962 64.4847 352.8 65.2063 353.47C65.2063 353.47 68.4863 348.108 71.1759 342.326C74.0623 336.713 76.2927 330.512 76.2927 330.512Z" fill="#A2EC75"/>
<path d="M76.2927 330.512C75.8991 333.613 76.2271 336.545 76.4895 339.478C77.1455 338.724 77.6703 337.551 77.6703 337.551C77.8671 341.237 77.4735 345.594 76.0303 349.029C76.7519 348.694 77.2111 348.275 77.2111 348.275C76.2927 350.956 73.7343 354.057 70.9791 355.062C70.1263 355.397 69.2735 355.481 68.4863 355.313C68.3551 355.313 68.2895 355.23 68.1583 355.23L67.9615 355.146L67.7647 355.062C66.9119 354.811 66.1247 354.224 65.4687 353.554C65.4687 353.554 68.7487 348.192 71.4383 342.41C74.0623 336.713 76.2927 330.512 76.2927 330.512Z" fill="#A2EC75"/>
<path d="M22.6319 304.035C24.4687 307.471 25.8463 311.157 27.2895 314.76C26.6991 314.593 26.1087 314.341 25.5839 314.09C25.1247 313.838 24.7968 313.587 24.7968 313.587C25.7807 315.849 27.0928 318.028 28.4703 319.955C29.8479 321.882 31.2255 323.474 32.5375 324.647C32.1439 324.815 31.7503 324.898 31.4879 324.898C31.2255 324.898 31.0943 324.898 31.0943 324.898C32.1439 325.82 33.3247 326.574 34.5711 326.909C35.8831 327.244 37.0639 327.244 38.5071 327.077C38.9663 327.077 39.4255 326.993 39.8847 326.825C40.4095 326.742 40.8031 326.658 41.3279 326.49C41.4591 326.49 41.5903 326.407 41.7215 326.407C41.7871 326.407 41.8527 326.323 41.9839 326.323L42.1807 326.239C43.2303 325.82 44.3455 325.317 45.3951 324.563C45.3951 324.563 45.1327 324.06 44.7391 323.306C44.5423 322.887 44.2143 322.385 43.8863 321.882C43.6895 321.631 43.5583 321.296 43.3615 321.044C43.1647 320.793 42.9023 320.458 42.7055 320.206C41.7871 319.033 40.5407 317.776 39.1631 316.603C37.7855 315.43 36.2111 314.341 34.6367 313.336C33.0623 312.33 31.4879 311.325 30.0447 310.319C28.6015 309.314 27.2239 308.392 26.1087 307.471C25.5183 307.052 25.0591 306.549 24.5999 306.214C24.1407 305.795 23.7472 305.46 23.4848 305.125C22.96 304.371 22.6319 304.035 22.6319 304.035Z" fill="#A2EC75"/>
<path d="M22.6319 304.036C24.1407 304.957 25.6495 305.292 27.0927 305.292C27.4863 305.292 27.8143 305.292 28.2079 305.292C28.6015 305.292 28.9295 305.209 29.3231 305.125C30.0447 305.041 30.7663 304.873 31.4879 304.706C31.1599 304.203 30.7007 303.7 30.3727 303.365C30.0447 303.03 29.7823 302.779 29.7823 302.779C31.4879 302.611 33.3903 302.444 35.2927 302.695C37.2607 302.946 39.2943 303.533 41.3279 304.706C41.0655 304.036 40.8687 303.617 40.6719 303.281C40.4751 302.946 40.3439 302.779 40.3439 302.779C41.7871 303.533 43.6239 305.041 45.2639 307.303C46.9039 309.482 48.3471 312.582 48.7407 315.431C48.8719 316.352 48.9375 317.19 48.8719 318.028C48.8063 318.866 48.6751 319.62 48.4783 320.29C48.4127 320.458 48.3471 320.625 48.2815 320.793C48.2159 320.877 48.2159 320.961 48.1503 321.128L48.0191 321.379C47.4287 322.636 46.5103 323.642 45.4607 324.396C45.4607 324.396 45.1983 323.893 44.8047 323.139C44.6079 322.72 44.2799 322.217 43.9519 321.715C43.7551 321.463 43.6239 321.128 43.4271 320.877C43.2303 320.625 42.9679 320.29 42.7711 320.039C41.8527 318.866 40.6063 317.609 39.2287 316.436C37.8511 315.263 36.2767 314.174 34.7023 313.168C33.1279 312.163 31.5535 311.157 30.1103 310.152C28.6671 309.147 27.2896 308.225 26.1744 307.303C25.584 306.884 25.1247 306.382 24.6655 306.046C24.2063 305.628 23.8128 305.292 23.5504 304.957C22.96 304.371 22.6319 304.036 22.6319 304.036Z" fill="#A2EC75"/>
<path d="M98.3999 281.078C99.2527 284.849 98.7935 288.368 98.2031 291.719C97.4815 290.797 96.9567 289.541 96.9567 289.541C96.5631 293.73 96.3007 298.254 97.0223 302.192C96.3007 301.69 95.9071 301.187 95.9071 301.187C96.3663 304.036 98.1375 307.806 100.761 310.236C101.549 310.99 102.467 311.577 103.385 311.912C103.517 311.912 103.648 311.996 103.713 311.996C103.779 311.996 103.845 311.996 103.976 312.079L104.173 312.163C105.222 312.414 106.272 312.414 107.387 312.163C107.387 312.163 107.321 311.66 107.19 310.739C107.059 309.817 106.862 308.56 106.6 307.052C106.075 304.036 105.157 300.014 103.976 296.076C102.861 292.222 101.483 288.368 100.302 285.686C99.7119 284.262 99.2527 283.173 98.8591 282.419C98.5967 281.497 98.3999 281.078 98.3999 281.078Z" fill="#A2EC75"/>
<path d="M98.3999 281.078C100.565 283.759 103.123 285.435 105.616 287.362C105.485 285.938 104.96 284.43 104.96 284.43C108.043 286.859 111.126 290.797 112.635 295.49C112.963 294.316 112.963 293.395 112.963 293.395C114.275 296.746 114.669 302.611 113.16 306.717C112.701 308.058 112.11 309.063 111.323 309.985C111.257 310.068 111.126 310.152 110.995 310.32L110.798 310.487L110.601 310.655C109.683 311.409 108.699 311.828 107.584 312.079C107.584 312.079 107.518 311.577 107.387 310.655C107.256 309.733 107.059 308.476 106.797 306.968C106.272 303.952 105.353 299.93 104.173 295.992C103.057 292.138 101.68 288.284 100.499 285.603C99.9087 284.178 99.4495 283.089 99.0559 282.335C98.5967 281.497 98.3999 281.078 98.3999 281.078Z" fill="#A2EC75"/>
<path d="M129.56 345.091C126.345 346.599 123.065 346.767 119.785 347.102C120.441 345.762 121.557 344.589 121.557 344.589C117.489 345.175 112.963 347.018 109.617 350.537C109.749 349.197 110.142 348.275 110.142 348.275C107.518 350.621 104.763 355.984 104.435 361.095C104.304 362.686 104.435 364.195 104.829 365.619C104.894 365.787 104.96 365.954 104.96 366.122C105.025 366.206 105.025 366.373 105.091 366.457L105.222 366.708C105.747 368.049 106.534 369.306 107.453 370.395C107.453 370.395 108.699 368.635 110.601 366.038C112.504 363.441 115.128 360.089 117.883 356.905C120.638 353.721 123.525 350.705 125.755 348.61C127.985 346.516 129.56 345.091 129.56 345.091Z" fill="#A2EC75"/>
<path d="M129.56 345.091C127.329 348.526 126.477 352.464 125.689 356.319C126.739 355.816 127.854 354.81 127.854 354.81C126.608 359.503 124.902 364.446 122.409 367.965C123.393 367.965 124.049 367.714 124.049 367.714C122.278 370.395 118.736 373.076 114.997 373.663C113.816 373.83 112.701 373.746 111.585 373.411C111.454 373.327 111.323 373.327 111.192 373.244C111.126 373.244 110.995 373.16 110.929 373.16L110.667 373.076C109.552 372.573 108.502 371.735 107.518 370.646C107.518 370.646 108.765 368.887 110.667 366.289C112.569 363.692 115.193 360.34 117.949 357.157C120.704 353.973 123.59 350.956 125.821 348.862C127.985 346.516 129.56 345.091 129.56 345.091Z" fill="#A2EC75"/>
<path d="M92.3646 370.144C93.939 374.333 93.8734 378.606 93.5454 382.544C92.627 381.622 91.8398 380.282 91.8398 380.282C91.8398 385.225 91.9711 390.42 93.0863 394.609C92.1679 394.191 91.7086 393.688 91.7086 393.688C92.4302 396.788 94.6606 400.726 97.875 403.24C98.859 404.077 99.9086 404.664 101.024 404.999C101.155 404.999 101.286 405.083 101.417 405.083C101.483 405.083 101.614 405.083 101.68 405.167L101.942 405.25H102.008C103.254 405.502 104.501 405.418 105.813 405.083C105.813 405.083 105.681 404.496 105.55 403.407C105.485 402.904 105.353 402.234 105.222 401.48C105.091 400.726 104.894 399.972 104.697 399.05C104.304 397.291 103.779 395.196 103.123 393.101C102.467 390.923 101.68 388.661 100.893 386.482C100.04 384.304 99.1214 382.125 98.1374 380.114C97.1534 378.187 96.235 376.344 95.3822 374.92C94.9886 374.165 94.5294 373.495 94.2014 372.909C93.8734 372.322 93.5454 371.819 93.2174 371.4C92.627 370.646 92.3646 370.144 92.3646 370.144Z" fill="#A2EC75"/>
<path d="M92.3646 370.144C95.3166 372.741 98.531 374.165 101.745 375.925C101.417 374.249 100.565 372.573 100.565 372.573C102.533 373.746 104.566 375.338 106.403 377.433C108.24 379.444 109.814 381.958 110.929 384.723C111.192 383.214 111.061 382.209 111.061 382.209C113.029 386.147 113.881 393.353 112.241 398.464C111.782 400.056 111.061 401.396 110.142 402.485C110.011 402.653 109.945 402.737 109.814 402.821L109.552 403.072L109.355 403.24C108.305 404.161 107.125 404.748 105.878 405.083C105.878 405.083 105.747 404.496 105.616 403.407C105.55 402.904 105.419 402.234 105.288 401.48C105.157 400.726 104.96 399.972 104.763 399.05C104.369 397.291 103.845 395.196 103.189 393.101C102.533 390.923 101.745 388.661 100.958 386.482C100.105 384.304 99.187 382.125 98.203 380.114C97.219 378.187 96.3006 376.344 95.4478 374.92C95.0542 374.165 94.595 373.495 94.267 372.909C93.939 372.322 93.611 371.819 93.283 371.4C92.627 370.646 92.3646 370.144 92.3646 370.144Z" fill="#A2EC75"/>
<path d="M131.265 399.301C128.313 399.301 125.755 398.212 123.131 397.123C123.918 396.369 125.099 395.866 125.099 395.866C121.819 394.777 117.883 394.274 114.472 395.447C114.931 394.442 115.39 393.939 115.39 393.939C112.832 394.609 109.421 397.458 107.781 401.145C107.256 402.318 106.928 403.491 106.862 404.748C106.862 404.915 106.862 405.083 106.862 405.25C106.862 405.334 106.862 405.418 106.862 405.586V405.837C106.862 407.177 107.125 408.434 107.518 409.691C107.518 409.691 113.291 406.591 119.261 403.994C125.23 401.396 131.265 399.301 131.265 399.301Z" fill="#A2EC75"/>
<path d="M131.265 399.302C128.707 401.145 127.067 403.994 125.493 406.675C126.477 406.759 127.592 406.34 127.592 406.34C125.493 409.524 122.803 412.791 119.785 414.467C120.573 414.886 121.163 414.886 121.163 414.886C118.998 416.31 115.39 416.813 112.307 415.556C111.323 415.221 110.47 414.551 109.749 413.797C109.683 413.713 109.552 413.629 109.486 413.462L109.289 413.294L109.158 413.126C108.437 412.205 107.912 411.032 107.453 409.775C107.453 409.775 113.225 406.675 119.195 404.077C125.23 401.396 131.265 399.302 131.265 399.302Z" fill="#A2EC75"/>
<path d="M87.5103 422.846C88.1007 422.678 88.5599 423.013 88.8223 423.432C88.9535 423.683 89.0191 423.935 89.0847 424.102C89.0847 424.186 89.0847 424.354 89.0847 424.437C89.0847 424.521 89.0846 424.521 89.019 424.605V424.856C88.8222 425.694 88.2975 426.448 87.7727 427.454C87.6415 427.035 87.5103 426.7 87.4447 426.532C87.3791 426.365 87.3791 426.281 87.3791 426.281C87.1167 426.532 86.7887 426.951 86.5263 427.621C86.3951 427.957 86.2639 428.375 86.1327 428.794C86.0015 429.213 85.9359 429.632 85.8047 430.051C85.4111 431.727 85.2143 433.403 85.2143 435.078C84.7551 434.492 84.5583 433.989 84.5583 433.989C84.4927 436.419 85.3455 440.106 87.1167 442.368C87.6415 443.122 88.2974 443.625 88.9534 444.044C89.019 444.127 89.1502 444.127 89.2158 444.211L89.4127 444.295L89.5438 444.379C90.2654 444.63 91.1182 444.798 91.9054 444.63C91.9054 444.63 91.5118 438.514 91.0526 432.313C90.9214 430.805 90.8558 429.213 90.7246 427.789C90.659 426.365 90.5278 424.94 90.003 424.019C89.4782 423.013 88.6911 422.678 88.1663 422.678C87.7071 422.594 87.5103 422.846 87.5103 422.846Z" fill="#A2EC75"/>
<path d="M87.5103 422.846C87.9039 422.343 88.5598 422.092 89.2158 422.175C89.5438 422.175 89.8718 422.259 90.1998 422.427C90.3966 422.51 90.5278 422.594 90.659 422.678L90.9214 422.846L91.1182 422.929C92.3646 424.019 93.0862 425.527 93.8078 426.7C93.8734 426.197 93.8734 425.443 93.8078 424.773C93.7422 424.102 93.611 423.6 93.611 423.6C94.267 424.605 94.6606 425.694 95.0542 426.532C95.251 426.951 95.3822 427.286 95.579 427.705C95.7758 428.04 95.907 428.459 96.0382 428.878C96.6286 430.47 97.0878 432.062 97.2846 433.738C97.6782 433.068 97.8094 432.481 97.8094 432.481C98.203 434.911 97.8094 438.681 96.3662 441.279C95.907 442.117 95.3822 442.787 94.7918 443.29C94.7262 443.373 94.6606 443.373 94.5294 443.457L94.3982 443.541L94.267 443.709C93.5454 444.128 92.7582 444.379 91.971 444.546C91.971 444.546 91.5774 438.43 91.1182 432.23C90.987 430.722 90.9214 429.13 90.7902 427.705C90.7246 426.281 90.5934 424.857 90.0686 423.935C89.5438 422.929 88.7566 422.594 88.2318 422.594C87.707 422.594 87.5103 422.846 87.5103 422.846Z" fill="#A2EC75"/>
<path d="M32.9312 466.164C34.7023 469.012 35.2927 472.364 35.5551 475.548C34.7679 475.045 33.9152 474.207 33.9152 474.207C34.5711 478.061 35.3583 481.999 36.7359 485.016C35.9487 484.848 35.5551 484.597 35.5551 484.597C36.5391 486.859 38.7695 489.373 41.5247 490.713C42.3775 491.132 43.2959 491.383 44.2143 491.467C44.3455 491.467 44.4767 491.467 44.5423 491.467H44.7391H44.9359C45.9199 491.383 46.9039 491.132 47.8879 490.629C47.8879 490.629 47.7567 490.21 47.4943 489.373C47.3631 488.954 47.1663 488.535 46.9695 487.948C46.7727 487.445 46.5103 486.775 46.2479 486.189C45.7231 484.848 45.0671 483.424 44.2799 481.832C43.4927 480.324 42.6399 478.648 41.6559 477.14C40.6719 475.632 39.6879 474.123 38.7039 472.783C37.7199 471.442 36.7359 470.269 35.8175 469.347C35.3583 468.845 34.9648 468.426 34.6368 468.091C34.2432 467.672 33.9808 467.42 33.6528 467.169C33.1936 466.415 32.9312 466.164 32.9312 466.164Z" fill="#A2EC75"/>
<path d="M32.9312 466.164C35.5551 467.504 38.3103 467.839 40.9999 468.593C40.5407 467.42 39.6223 466.247 39.6223 466.247C41.3279 466.75 43.1647 467.588 44.8703 468.761C46.5759 469.934 48.1503 471.61 49.3967 473.537C49.3967 472.28 49.1999 471.526 49.1999 471.526C51.2335 474.207 52.8735 479.653 52.2175 484.094C52.0863 485.435 51.6927 486.691 51.1023 487.697C51.0367 487.781 50.9711 487.948 50.9055 488.032L50.7743 488.283L50.6431 488.451C49.9215 489.373 49.0687 490.043 48.1503 490.629C48.1503 490.629 48.0191 490.21 47.7567 489.373C47.6255 488.954 47.4287 488.535 47.2319 487.948C47.0351 487.445 46.7727 486.775 46.5103 486.189C45.9855 484.848 45.3295 483.424 44.5423 481.832C43.7551 480.324 42.9023 478.648 41.9183 477.14C40.9343 475.632 39.9503 474.123 38.9664 472.783C37.9824 471.442 36.9983 470.269 36.0799 469.347C35.6207 468.845 35.2271 468.426 34.8991 468.091C34.5055 467.672 34.2432 467.42 33.9152 467.169C33.1936 466.415 32.9312 466.164 32.9312 466.164Z" fill="#A2EC75"/>
<path d="M66.9775 479.569C67.7647 479.737 68.5519 479.905 69.2735 480.24C69.0767 479.653 68.9455 478.983 68.7487 478.396C66.4527 478.732 64.2223 478.732 61.9263 478.815C62.5823 477.642 63.7631 476.553 63.7631 476.553C59.9583 476.804 55.4975 478.396 52.2832 481.832C52.48 480.575 52.8079 479.737 52.8079 479.737C51.5615 480.91 50.1839 482.753 49.1999 484.932C48.2159 487.11 47.4944 489.708 47.3632 492.054C47.2976 493.562 47.4288 494.986 47.888 496.243C47.9536 496.411 48.0192 496.578 48.0192 496.746L48.1504 496.997L48.2816 497.248C48.8064 498.505 49.5935 499.595 50.5119 500.432C55.6287 491.97 61.9919 484.68 69.1423 479.15L66.9775 479.569Z" fill="#A2EC75"/>
<path d="M66.9775 479.569C67.6991 479.15 68.4207 478.732 69.0767 478.229L71.7007 476.218L69.6015 480.072C68.2895 482.418 67.5679 485.099 66.9775 487.613C67.9615 487.278 69.0111 486.44 69.0111 486.44C67.6991 490.545 66.1247 494.819 64.0255 497.835C64.9439 497.835 65.4687 497.667 65.4687 497.667C64.7471 498.84 63.5663 499.93 62.1887 500.851C60.8111 501.773 59.2367 502.527 57.5311 502.778C56.4815 503.03 55.4319 502.946 54.4479 502.695C54.3167 502.695 54.1856 502.611 54.0544 502.611C53.9888 502.611 53.9231 502.527 53.7919 502.527L53.5952 502.443C52.5456 502.024 51.5616 501.354 50.6432 500.432C55.7599 491.97 62.1231 484.68 69.2735 479.15L66.9775 479.569Z" fill="#A2EC75"/>
<path d="M32.7999 508.727C34.7023 509.649 35.7519 511.576 36.4079 513.419C36.1455 513.419 35.8175 513.336 35.6207 513.252C35.3583 513.168 35.2271 513.168 35.2271 513.168C36.3423 515.263 37.1295 517.525 38.1135 518.949C37.6543 519.033 37.3263 519.033 37.3263 519.033C38.0479 520.122 39.4255 521.044 41.2623 521.547C41.7871 521.714 42.4431 521.798 43.0991 521.882C43.1647 521.882 43.2303 521.882 43.3615 521.882H43.4927H43.6239C44.2799 521.798 45.0015 521.631 45.7231 521.379C45.7231 521.379 45.5919 521.044 45.4607 520.541C45.3951 520.29 45.2639 519.955 45.1327 519.536C45.0015 519.201 44.8047 518.782 44.6079 518.279C44.2143 517.357 43.6239 516.436 42.9679 515.43C42.3119 514.509 41.5247 513.503 40.6719 512.665C39.8191 511.827 38.9007 511.157 37.9823 510.571C37.0639 510.068 36.2111 509.565 35.4239 509.314C35.0303 509.146 34.7023 509.062 34.3743 508.979C34.0463 508.895 33.7839 508.811 33.5215 508.811C33.0623 508.727 32.7999 508.727 32.7999 508.727Z" fill="#A2EC75"/>
<path d="M32.7999 508.727C34.7679 508.308 36.6047 507.554 38.6383 507.219C38.0479 506.549 37.1295 506.13 37.1295 506.13C38.4415 505.879 39.8847 505.879 41.3279 506.297C42.7711 506.716 44.2143 507.638 45.4607 508.895C45.2639 507.973 44.9359 507.47 44.9359 507.47C45.9199 508.308 46.9039 509.733 47.6255 511.408C48.3471 513.084 48.6751 515.011 48.6095 516.687C48.5439 517.776 48.2815 518.614 47.8879 519.368C47.8223 519.452 47.7567 519.536 47.7567 519.62L47.6255 519.787L47.4943 519.955C47.0351 520.625 46.3791 521.044 45.7231 521.379C45.7231 521.379 45.5919 521.044 45.4607 520.541C45.3951 520.29 45.2639 519.955 45.1327 519.536C45.0015 519.201 44.8047 518.782 44.6079 518.279C44.2143 517.357 43.6239 516.436 42.9679 515.43C42.3119 514.509 41.5247 513.503 40.6719 512.665C39.8191 511.827 38.9007 511.157 37.9823 510.571C37.0639 510.068 36.2111 509.565 35.4239 509.314C35.0303 509.146 34.7023 509.062 34.3743 508.979C34.0463 508.895 33.7839 508.811 33.5215 508.811C33.0623 508.727 32.7999 508.727 32.7999 508.727Z" fill="#A2EC75"/>
<path d="M104.369 481.413C100.499 480.91 97.0879 479.15 93.4143 477.894C94.5951 476.804 96.3007 476.134 96.3007 476.134C94.0047 475.38 91.3807 474.961 88.6911 475.129C86.0015 475.296 83.3119 476.05 80.8847 477.475C81.4751 475.966 82.1311 475.129 82.1311 475.129C80.2287 475.966 78.1295 477.81 76.3583 480.072C74.5215 482.418 73.1439 485.267 72.4879 488.199C72.0287 490.043 71.9631 491.802 72.2255 493.478C72.2255 493.646 72.2911 493.897 72.3567 494.064C72.3567 494.232 72.4223 494.316 72.4223 494.483L72.4879 494.819V494.902C72.9471 496.578 73.6687 498.086 74.5871 499.427C74.5871 499.427 74.9807 499.008 75.6367 498.254C75.9647 497.835 76.4239 497.416 76.8831 496.913C77.3423 496.41 77.9327 495.824 78.5887 495.237C79.8351 493.981 81.3439 492.724 82.9839 491.383C84.6895 490.126 86.5263 488.786 88.3631 487.697C90.2655 486.607 92.1679 485.602 94.0703 484.764C95.9071 483.926 97.6783 483.256 99.1871 482.837C99.9743 482.586 100.63 482.418 101.286 482.25C101.877 482.083 102.467 481.915 102.926 481.832C103.845 481.496 104.369 481.413 104.369 481.413Z" fill="#A2EC75"/>
<path d="M104.369 481.413C100.761 483.423 98.5311 487.026 96.6943 490.629C97.2847 490.629 97.9407 490.545 98.4655 490.462C98.9903 490.378 99.3183 490.294 99.3183 490.294C98.0063 492.305 96.6287 494.4 95.2511 496.327C93.8079 498.17 92.4303 499.93 90.8559 501.186C91.8399 501.605 92.4959 501.605 92.4959 501.605C90.3311 503.532 86.4607 504.957 82.4591 504.454C81.2127 504.37 80.0319 503.951 78.8511 503.281C78.7199 503.197 78.5887 503.113 78.3919 503.03C78.3263 502.946 78.1951 502.946 78.1295 502.862L77.8671 502.695H77.8015C76.6207 501.857 75.5055 500.767 74.5871 499.427C74.5871 499.427 74.9807 499.008 75.6367 498.254C75.9647 497.835 76.4239 497.416 76.8831 496.913C77.3423 496.41 77.9327 495.824 78.5887 495.237C79.8351 493.981 81.3439 492.724 82.9839 491.383C84.6895 490.126 86.5263 488.786 88.3631 487.697C90.2655 486.607 92.1679 485.602 94.0703 484.764C95.9071 483.926 97.6783 483.256 99.1871 482.837C99.9743 482.586 100.63 482.418 101.286 482.25C101.877 482.083 102.467 481.915 102.926 481.832C103.845 481.496 104.369 481.413 104.369 481.413Z" fill="#A2EC75"/>
<path d="M40.1471 555.48C41.9839 558.078 42.9679 561.178 43.4271 564.111C42.6399 563.775 41.7871 563.105 41.7871 563.105C42.3119 564.865 42.7711 566.708 43.2303 568.216C43.4271 569.054 43.6239 569.808 43.8207 570.395C44.0175 571.065 44.1487 571.568 44.2799 572.07C43.6239 572.07 43.3615 571.986 43.3615 571.986C43.5583 572.741 44.0175 573.327 44.6079 573.914C45.1983 574.5 45.9855 575.003 46.9695 575.673C47.5599 576.092 48.2159 576.511 49.0031 577.098C49.0687 577.181 49.1999 577.265 49.2655 577.265L49.4623 577.349L49.6591 577.433C50.4463 577.935 51.3647 578.522 52.3487 578.857C52.3487 578.857 52.3487 578.773 52.4143 578.522C52.4799 578.271 52.5455 578.019 52.5455 577.6C52.6767 576.762 52.7423 575.589 52.6111 574.165C52.4799 572.741 52.1519 571.149 51.6271 569.557C51.1023 567.965 50.3151 566.289 49.3311 564.865C47.4287 561.932 45.0671 559.67 43.2303 558.078C42.3119 557.24 41.5247 556.653 40.9999 556.235C40.4751 555.732 40.1471 555.48 40.1471 555.48Z" fill="#A2EC75"/>
<path d="M40.1471 555.481C42.7711 556.57 45.3295 556.402 48.0191 556.737C47.4287 555.648 46.4447 554.643 46.4447 554.643C48.0847 554.81 49.9215 555.397 51.8239 556.486C52.7423 557.072 53.6607 557.743 54.5135 558.664C55.3663 559.586 56.2191 560.675 56.8751 561.932C56.8095 560.592 56.5471 559.586 56.5471 559.586C57.7279 561.262 58.7775 563.859 59.2367 566.876C59.6959 569.808 59.4335 573.076 58.4495 575.506C57.8591 577.014 57.0063 578.019 56.1535 578.606C56.0223 578.69 55.9567 578.773 55.8255 578.773L55.6287 578.857L55.4319 578.941C54.4479 579.276 53.4639 579.192 52.5455 578.857C52.5455 578.857 52.5455 578.773 52.6111 578.522C52.6767 578.271 52.7423 578.019 52.7423 577.6C52.8735 576.762 52.9391 575.589 52.8079 574.165C52.6767 572.741 52.3487 571.149 51.8239 569.557C51.2991 567.965 50.5119 566.289 49.5279 564.865C47.6255 561.932 45.2639 559.67 43.4271 558.078C42.5087 557.24 41.7215 556.654 41.1967 556.235C40.4751 555.732 40.1471 555.481 40.1471 555.481Z" fill="#A2EC75"/>
<path d="M88.8879 540.231C86.2639 541.823 83.5743 542.075 80.9503 542.41C81.4095 541.321 82.3279 540.231 82.3279 540.231C79.0479 540.902 75.4399 542.326 72.7503 545.091C72.8815 544.002 73.1439 543.331 73.1439 543.331C71.0447 545.175 68.8799 549.28 68.4863 553.47C68.3551 554.726 68.4207 555.983 68.6831 557.156C68.6831 557.324 68.7487 557.408 68.8143 557.575L68.8799 557.827L68.9455 558.078C69.3391 559.251 69.9295 560.34 70.6511 561.262C70.6511 561.262 75.0463 555.732 79.6383 550.453C84.1647 545.259 88.8879 540.231 88.8879 540.231Z" fill="#A2EC75"/>
<path d="M88.8879 540.231C87.2479 543.248 86.5919 546.599 86.0671 549.867C86.9855 549.448 87.9039 548.442 87.9039 548.442C86.9855 552.464 85.5423 556.737 83.3119 559.754C84.1647 559.754 84.6895 559.502 84.6895 559.502C83.1807 561.848 79.9663 564.194 76.8175 564.446C75.8335 564.53 74.8495 564.446 73.9967 564.027C73.8655 563.943 73.7999 563.943 73.6687 563.859L73.4719 563.775L73.2751 563.692C72.3567 563.189 71.5039 562.435 70.7823 561.429C70.7823 561.429 75.1775 555.899 79.7695 550.621C84.1647 545.259 88.8879 540.231 88.8879 540.231Z" fill="#A2EC75"/>
<path d="M96.4318 585.309C93.0862 584.806 90.0686 583.298 86.9198 582.041C87.9694 581.119 89.4127 580.617 89.4127 580.617C87.4447 579.863 85.2143 579.444 82.9183 579.444C80.6223 579.444 78.2607 579.946 76.1615 581.036C76.6863 579.779 77.2767 579.108 77.2767 579.108C73.9967 580.365 69.8639 584.722 68.4863 589.666C68.0271 591.174 67.8959 592.682 68.0271 594.19C68.0271 594.358 68.0927 594.525 68.0927 594.693C68.0927 594.777 68.1583 594.944 68.1583 595.028L68.2239 595.363C68.4863 596.871 69.0767 598.212 69.7983 599.469C69.7983 599.469 70.1919 599.134 70.7823 598.547C71.1103 598.212 71.5039 597.877 71.9631 597.458C72.4223 597.039 72.9471 596.62 73.5375 596.117C74.7183 595.196 76.0959 594.106 77.6047 593.101C79.1135 592.095 80.7535 591.09 82.4591 590.168C84.1647 589.247 85.8703 588.493 87.5103 587.822C89.1503 587.152 90.6591 586.649 92.0367 586.23C92.6926 586.063 93.3486 585.895 93.8734 585.728C94.3982 585.56 94.923 585.476 95.3166 585.392C95.9726 585.476 96.4318 585.309 96.4318 585.309Z" fill="#A2EC75"/>
<path d="M96.4318 585.309C93.283 587.068 91.2494 590.168 89.5438 593.268C90.5934 593.352 91.9055 593.017 91.9055 593.017C89.4783 596.536 86.8543 600.139 83.9679 602.317C84.8207 602.736 85.4111 602.736 85.4111 602.736C83.3775 604.412 79.7695 605.418 76.2927 604.663C75.1775 604.496 74.1279 603.993 73.1439 603.323C73.0127 603.239 72.8815 603.155 72.7503 603.072L72.5535 602.904L72.3567 602.736C71.3727 601.899 70.4543 600.809 69.7327 599.553C69.7327 599.553 70.1263 599.217 70.7167 598.631C71.0447 598.296 71.4383 597.961 71.8975 597.542C72.3567 597.123 72.8815 596.704 73.4719 596.201C74.6527 595.279 76.0303 594.19 77.5391 593.185C79.0479 592.179 80.6879 591.174 82.3935 590.252C84.0991 589.331 85.8047 588.576 87.4447 587.906C89.0847 587.236 90.5935 586.733 91.9711 586.314C92.6271 586.147 93.283 585.979 93.8078 585.811C94.3326 585.644 94.8575 585.56 95.251 585.476C95.9726 585.476 96.4318 585.309 96.4318 585.309Z" fill="#A2EC75"/>
<path d="M85.4111 623.013C83.2463 623.516 81.2127 623.18 79.1135 623.013C79.6383 622.259 80.4911 621.588 80.4911 621.588C77.8671 621.505 74.7839 622.175 72.4223 624.186C72.6191 623.348 72.8815 622.845 72.8815 622.845C71.0447 624.102 68.9455 627.37 68.4863 630.637C68.3551 631.643 68.3551 632.648 68.5519 633.57C68.5519 633.654 68.6175 633.821 68.6175 633.905L68.6831 634.156L68.7487 634.324C69.0111 635.246 69.4703 636.084 70.0607 636.754C70.0607 636.754 70.9135 635.665 72.2255 634.156C73.5375 632.648 75.3743 630.721 77.3423 629.045C79.3103 627.286 81.2783 625.778 82.8527 624.689C84.2959 623.683 85.4111 623.013 85.4111 623.013Z" fill="#A2EC75"/>
<path d="M85.4111 623.013C83.7055 624.856 82.8527 627.202 82.1311 629.465C82.8527 629.297 83.5743 628.794 83.5743 628.794C82.4591 631.559 81.1471 634.408 79.4415 636.335C80.0319 636.419 80.4255 636.335 80.4255 636.335C79.2447 637.759 76.9487 639.1 74.5871 639.184C73.8655 639.184 73.1439 639.1 72.4879 638.765C72.4223 638.765 72.2911 638.681 72.2255 638.681L72.0943 638.597L71.9631 638.514C71.3071 638.095 70.6511 637.508 70.0607 636.838C70.0607 636.838 70.9135 635.749 72.2255 634.24C73.5375 632.732 75.3743 630.805 77.3423 629.129C79.3103 627.37 81.2783 625.862 82.8527 624.772C84.2959 623.683 85.4111 623.013 85.4111 623.013Z" fill="#A2EC75"/>
<path d="M49.6591 639.686C50.7087 642.2 51.6927 644.797 52.7423 647.227C52.3487 647.143 51.8895 646.976 51.5615 646.724C51.2335 646.557 50.9711 646.389 50.9711 646.389C51.6927 647.981 52.6111 649.489 53.5951 650.83C54.5791 652.171 55.5631 653.26 56.4815 654.014C56.2191 654.098 55.9567 654.181 55.7599 654.181C55.5631 654.181 55.4975 654.181 55.4975 654.181C56.2191 654.852 57.0719 655.271 57.8591 655.438C58.7119 655.606 59.4335 655.522 60.3519 655.354C60.6143 655.354 60.9423 655.271 61.2703 655.187C61.5983 655.103 61.9263 655.019 62.2543 654.935C62.3199 654.935 62.4511 654.852 62.5167 654.852L62.7135 654.768L62.8447 654.684C63.5663 654.433 64.3535 654.181 65.1407 653.762C65.1407 653.762 65.0095 653.427 64.7471 652.841C64.6159 652.506 64.4191 652.171 64.2223 651.835C64.0911 651.668 63.9599 651.416 63.8943 651.249C63.7631 651.081 63.5663 650.83 63.4351 650.662C62.1887 648.987 60.0239 647.395 57.8591 646.054C56.7439 645.384 55.6943 644.713 54.6447 644.043C53.6607 643.373 52.7423 642.703 51.9551 642.032C51.5615 641.697 51.2335 641.362 50.9711 641.111C50.7087 640.859 50.4463 640.524 50.2495 640.273C49.9215 639.938 49.6591 639.686 49.6591 639.686Z" fill="#A2EC75"/>
<path d="M49.6591 639.686C50.6431 640.44 51.6271 640.776 52.6767 640.776C52.9391 640.776 53.2015 640.776 53.3983 640.776C53.6607 640.776 53.9231 640.692 54.1199 640.692C54.5791 640.608 55.1039 640.524 55.5631 640.44C55.3007 640.105 55.0383 639.77 54.8415 639.603C54.6447 639.351 54.4479 639.267 54.4479 639.267C55.5631 639.1 56.8095 639.016 58.1215 639.1C59.4335 639.184 60.8111 639.519 62.2543 640.357C62.0575 639.938 61.9263 639.603 61.7951 639.351C61.6639 639.1 61.5983 639.016 61.5983 639.016C62.5823 639.435 63.8943 640.524 65.0751 642.032C66.2559 643.541 67.3711 645.803 67.6335 647.814C67.8303 649.154 67.7647 650.327 67.3711 651.249C67.3055 651.333 67.3055 651.5 67.2399 651.584L67.1743 651.752L67.1087 651.919C66.6495 652.757 65.9935 653.344 65.2719 653.846C65.2719 653.846 65.1407 653.511 64.8783 652.925C64.7471 652.59 64.5503 652.254 64.3535 651.919C64.2223 651.752 64.0911 651.5 64.0255 651.333C63.8943 651.165 63.6975 650.914 63.5663 650.746C62.3199 649.07 60.1551 647.478 57.9903 646.138C56.8751 645.468 55.8255 644.797 54.7759 644.127C53.7919 643.457 52.8735 642.786 52.0863 642.116C51.6927 641.781 51.3647 641.446 51.1023 641.194C50.8399 640.943 50.5775 640.608 50.3807 640.357C49.9215 639.938 49.6591 639.686 49.6591 639.686Z" fill="#A2EC75"/>
</svg>
