<svg width="154" height="703" viewBox="0 0 154 703" fill="none" xmlns="http://www.w3.org/2000/svg">
<path d="M101.089 1.73214C95.9727 9.52433 91.8399 18.9923 88.1007 28.0413C84.4271 36.9227 81.1471 46.0555 78.5887 55.6072C73.4063 74.7106 70.1263 94.233 69.6671 114.426C69.2079 134.535 71.3071 154.308 76.2271 173.412C81.9343 195.615 92.6927 214.132 100.827 234.911C109.683 257.534 113.357 283.089 111.323 308.309C109.355 332.775 101.352 354.392 92.6271 376.009C84.6895 395.782 76.6863 416.059 76.6863 438.765C76.6863 463.566 84.9519 487.194 89.4783 510.99C95.1199 540.985 93.0863 571.484 91.0527 601.815C89.0191 632.481 87.0511 663.231 84.7551 693.897C84.4271 698.589 81.9343 702.527 77.9983 702.527C74.5215 702.527 70.9791 698.589 71.2415 693.897C72.8159 666.498 74.7183 639.1 76.4895 611.618C78.2607 584.555 80.7535 557.156 78.1295 530.009C75.7679 505.124 67.2399 481.915 64.0911 457.282C62.4511 444.63 62.3855 432.146 64.2223 419.494C65.8623 408.099 69.2735 397.207 73.0127 386.733C80.3599 366.038 90.1343 346.767 94.9231 324.731C99.9743 301.522 98.7279 276.637 92.3647 254.099C89.0847 242.452 83.8367 231.811 78.9167 221.17C74.1279 210.948 69.7983 200.559 66.1903 189.583C60.0239 170.479 57.2031 149.7 56.6783 129.172C56.0879 104.958 59.6959 80.3243 66.7807 57.8694C70.2575 46.8933 74.7839 36.1686 80.2287 26.6169C82.9839 21.7572 86.0671 17.1489 89.2159 12.7082C92.4303 8.26752 96.2351 4.41332 99.7775 0.391547C100.696 -0.697684 101.811 0.726694 101.089 1.73214Z" fill="#5AA32D"/>
<path d="M36.1456 29.5495C30.5696 72.3646 25.256 121.799 45.3951 160.09C54.4479 177.35 68.2239 189.666 79.5727 204.329C90.5935 218.573 99.5807 236.42 100.302 256.864C100.499 262.142 94.3327 261.975 94.0047 256.864C92.5615 236.503 81.4095 219.997 70.3887 206.424C58.5151 191.761 45.3296 178.523 36.736 160.09C17.9088 119.788 26.6992 71.6105 34.3744 28.8792C34.6368 27.371 36.3424 28.0413 36.1456 29.5495Z" fill="#5AA32D"/>
<path d="M144.845 133.026C126.214 158.33 116.505 193.688 118.211 228.292C118.736 238.347 119.982 248.317 120.573 258.456C121.163 268.175 120.638 277.81 119.261 287.446C117.883 296.83 115.39 305.963 112.569 314.844C109.617 324.061 106.534 333.696 102.598 342.326C100.499 346.851 94.2014 343.834 95.8414 338.64C98.5966 329.674 102.336 321.212 105.222 312.247C108.24 302.946 110.733 293.311 112.176 283.34C115.259 262.98 110.798 242.787 110.733 222.427C110.601 187.572 123.065 154.141 143.467 131.351C144.385 130.261 145.697 131.853 144.845 133.026Z" fill="#5AA32D"/>
<path d="M17.712 264.321C31.0288 277.475 40.4096 297.668 45.3296 318.028C51.1023 341.907 47.9536 366.122 48.0192 390.588C48.0848 403.24 49.528 415.389 53.8575 426.868C57.8591 437.341 63.3695 446.641 68.1583 456.444C78.3919 477.391 83.3775 502.527 85.2143 526.909C85.2799 527.915 85.3455 528.92 85.4111 529.926C85.7391 534.701 79.8351 535.539 78.9823 531.015C76.6863 519.285 75.0463 507.303 72.5535 495.573C69.9951 483.508 66.2559 472.28 61.2047 461.555C56.6783 452.004 51.5616 442.955 47.56 432.984C43.1648 422.008 41.0656 410.361 40.6064 398.129C39.6224 373.495 44.936 349.364 41.3936 324.815C38.048 301.857 28.9296 282.419 16.5968 265.494C16.072 264.74 17.056 263.65 17.712 264.321Z" fill="#5AA32D"/>
<path d="M123.197 452.506C104.041 472.112 106.009 506.214 106.469 534.282C106.731 551.375 105.485 567.713 101.483 584.052C97.4159 600.642 92.1679 616.98 86.9855 633.067C85.1487 638.681 77.9983 636.419 79.7039 630.47C84.3615 614.048 90.0031 598.128 94.2671 581.538C98.7935 563.943 99.3839 546.264 99.3183 527.915C99.2527 500.349 100.958 465.912 121.688 449.993C122.869 448.987 124.312 451.333 123.197 452.506Z" fill="#5AA32D"/>
<path d="M137.366 225.695C135.464 228.376 134.611 231.56 133.824 234.66C134.742 234.325 135.661 233.571 135.661 233.571C134.48 237.341 132.84 241.279 130.609 244.044C131.397 244.128 131.921 243.876 131.921 243.876C130.347 245.971 127.198 247.982 124.115 248.066C123.131 248.15 122.213 247.898 121.36 247.563C121.229 247.479 121.163 247.479 121.032 247.396L120.835 247.312L120.638 247.228C119.785 246.641 118.933 245.887 118.211 244.966C118.211 244.966 122.606 239.603 127.461 234.828C132.249 229.968 137.366 225.695 137.366 225.695Z" fill="#A2EC75"/>
<path d="M137.366 225.695C134.677 226.784 131.987 226.784 129.363 226.784C129.953 225.779 130.872 224.857 130.872 224.857C127.592 225.108 123.787 226.281 120.966 228.795C121.163 227.706 121.491 227.035 121.491 227.035C119.261 228.711 116.833 232.817 116.309 236.922C116.112 238.179 116.177 239.436 116.374 240.609C116.374 240.776 116.44 240.86 116.44 241.028L116.505 241.279L116.571 241.531C116.899 242.704 117.489 243.793 118.211 244.714C118.211 244.714 122.606 239.352 127.461 234.576C132.249 229.968 137.366 225.695 137.366 225.695Z" fill="#A2EC75"/>
<path d="M95.3823 175.423C98.5967 177.517 101.942 178.188 105.288 179.025C104.763 177.517 103.648 176.093 103.648 176.093C107.781 177.35 112.373 180.115 115.456 184.472C115.456 183.047 115.193 182.042 115.193 182.042C117.686 185.058 119.917 191.175 119.523 196.537C119.457 198.213 119.129 199.721 118.539 201.061C118.473 201.229 118.408 201.397 118.342 201.564C118.277 201.648 118.211 201.732 118.211 201.899L118.08 202.151C117.358 203.407 116.374 204.497 115.259 205.418C115.259 205.418 114.997 204.916 114.537 203.994C114.078 203.072 113.422 201.816 112.635 200.224C110.995 197.123 108.699 193.185 106.272 189.415C103.779 185.645 101.155 182.042 99.0559 179.528C98.0063 178.271 97.1535 177.182 96.4975 176.428C95.7759 175.842 95.3823 175.423 95.3823 175.423Z" fill="#A2EC75"/>
<path d="M95.3823 175.423C97.3503 179.277 97.8751 183.466 98.2687 187.572C97.2191 186.901 96.1695 185.645 96.1695 185.645C96.9567 190.588 98.1375 195.95 100.237 199.888C99.2527 199.721 98.6623 199.302 98.6623 199.302C100.106 202.318 103.386 205.67 107.125 207.01C108.24 207.429 109.486 207.597 110.601 207.429C110.733 207.429 110.864 207.429 111.061 207.345C111.126 207.345 111.257 207.345 111.323 207.262L111.585 207.178H111.651C112.897 206.843 114.078 206.256 115.193 205.418C115.193 205.418 114.931 204.916 114.472 203.994C114.013 203.072 113.357 201.816 112.569 200.224C110.929 197.123 108.634 193.185 106.206 189.415C103.714 185.645 101.09 182.042 98.9903 179.528C97.9407 178.271 97.0879 177.182 96.4319 176.428C95.7759 175.842 95.3823 175.423 95.3823 175.423Z" fill="#A2EC75"/>
<path d="M116.768 153.722C117.752 156.654 119.392 158.916 120.966 161.095C121.163 160.006 121.032 158.665 121.032 158.665C122.869 161.514 124.574 165.284 125.033 169.138C125.493 168.301 125.624 167.714 125.624 167.714C126.149 170.479 125.624 174.92 123.984 177.852C123.459 178.774 122.869 179.528 122.147 180.115C122.081 180.198 121.95 180.282 121.885 180.282L121.688 180.366L121.491 180.45C120.704 180.952 119.785 181.204 118.867 181.204C118.867 181.204 118.605 174.25 118.08 167.379C117.555 160.592 116.768 153.722 116.768 153.722Z" fill="#A2EC75"/>
<path d="M116.768 153.722C116.505 156.906 115.325 159.587 114.209 162.1C113.816 161.095 113.685 159.838 113.685 159.838C112.438 163.106 111.454 167.044 111.454 170.647C110.929 169.976 110.667 169.39 110.667 169.39C110.601 172.071 111.585 175.925 113.488 178.523C114.078 179.361 114.734 179.947 115.521 180.45C115.587 180.534 115.718 180.534 115.784 180.617L115.981 180.701L116.177 180.785C117.03 181.12 117.883 181.288 118.801 181.204C118.801 181.204 118.539 174.25 118.014 167.379C117.555 160.592 116.768 153.722 116.768 153.722Z" fill="#A2EC75"/>
<path d="M148.19 157.576C146.616 160.257 145.829 163.357 144.91 166.29C145.829 165.955 146.747 165.117 146.747 165.117C145.501 168.803 143.401 172.741 140.646 175.087C141.499 175.255 142.024 175.087 142.024 175.087C140.056 177.015 136.317 178.439 133.299 177.517C132.381 177.266 131.528 176.763 130.806 176.093C130.741 176.009 130.609 175.925 130.544 175.841L130.413 175.674L130.281 175.506C129.625 174.668 129.101 173.663 128.707 172.574C128.707 172.574 130.019 171.904 131.921 170.647C133.824 169.474 136.382 167.798 138.809 165.871C141.237 164.028 143.598 161.933 145.304 160.341C147.075 158.665 148.19 157.576 148.19 157.576Z" fill="#A2EC75"/>
<path d="M148.19 157.576C145.763 158.917 143.27 158.917 140.909 158.749C141.433 157.827 142.221 156.99 142.221 156.99C139.269 157.157 136.12 157.576 133.561 159.168C133.824 158.246 134.086 157.744 134.086 157.744C132.184 158.749 129.822 161.43 128.707 164.782C128.313 165.787 128.117 166.876 128.051 168.049C128.051 168.217 128.051 168.301 128.051 168.468V168.72V168.971C128.117 170.144 128.313 171.317 128.707 172.49C128.707 172.49 130.019 171.82 131.921 170.563C133.824 169.39 136.382 167.714 138.809 165.787C141.237 163.944 143.598 161.849 145.304 160.257C147.075 158.665 148.19 157.576 148.19 157.576Z" fill="#A2EC75"/>
<path d="M42.5743 122.385C45.3951 123.894 48.2815 123.977 51.1679 124.145C50.5775 123.056 49.5935 121.967 49.5935 121.967C53.1359 122.385 57.0063 123.559 60.0239 126.072C59.8271 124.899 59.4991 124.229 59.4991 124.229C61.7951 125.905 64.4191 129.926 65.2063 134.283C65.4687 135.624 65.5343 136.964 65.3375 138.221C65.3375 138.389 65.2719 138.556 65.2719 138.724C65.2719 138.808 65.2063 138.892 65.2063 139.059L65.1407 139.31C64.8127 140.651 64.3535 141.908 63.6319 142.997L42.5743 122.385Z" fill="#A2EC75"/>
<path d="M42.5744 122.385C44.4768 125.486 45.264 129.088 46.1168 132.524C45.1328 132.105 44.0832 131.183 44.0832 131.183C45.264 135.456 47.1664 139.897 49.856 142.997C48.9376 143.081 48.3472 142.83 48.3472 142.83C50.184 145.176 53.9232 147.354 57.4 147.186C58.4496 147.186 59.4991 146.851 60.4175 146.349C60.5487 146.265 60.6799 146.181 60.7455 146.097L60.9423 145.93L61.1391 145.762C62.0575 145.092 62.9103 144.086 63.5663 142.997L42.5744 122.385Z" fill="#A2EC75"/>
<path d="M88.1007 80.7433C88.3631 80.9109 88.6255 81.1622 88.8223 81.5812C88.9535 82.0001 89.0191 82.419 89.0847 82.838C89.0847 83.6758 89.0191 84.5137 88.8223 85.3516C88.5599 86.2732 88.4287 86.8597 88.2975 87.6138C88.1663 88.2841 88.0351 89.0382 87.9039 89.7085C87.4447 92.4735 87.2479 95.3222 86.9855 98.0872C88.4287 97.0817 89.8063 95.2384 89.8063 95.2384C88.8879 102.109 87.0511 109.65 83.6399 115.264C85.0831 115.012 85.9359 114.509 85.9359 114.509C83.6399 118.783 78.4575 123.475 73.2095 124.48C71.5695 124.815 69.9951 124.731 68.4207 124.229C68.2239 124.145 68.0271 124.061 67.8303 124.061C67.6991 123.977 67.5679 123.977 67.4367 123.894L67.1087 123.726H67.0431C65.4687 122.972 64.0255 121.799 62.7791 120.375C62.7791 120.375 69.6015 110.655 76.4895 100.936C79.9007 96.0763 83.3119 91.2167 85.8703 87.6138C86.5263 86.6922 87.1167 85.8543 87.6415 85.1002C88.1663 84.3461 88.4943 83.592 88.6255 82.838C88.7567 82.1677 88.6911 81.5811 88.4943 81.246C88.2319 80.8271 88.0351 80.7433 88.1007 80.7433Z" fill="#A2EC75"/>
<path d="M88.1007 80.7433C88.4942 81.3298 88.2974 82.0839 88.035 82.5028C87.7726 83.0055 87.3135 83.3407 86.9199 83.592C86.4607 83.8434 85.9359 84.0948 85.4767 84.3461C84.9519 84.5975 84.4271 84.8488 83.9023 85.0164C81.8031 85.8543 79.6383 86.4408 77.4735 87.1111C78.1295 85.184 79.3759 83.2569 79.3759 83.2569C74.1279 85.1002 68.4863 88.2841 64.4847 93.2275C64.5503 91.3842 64.8783 90.2112 64.8783 90.2112C61.7951 93.5627 58.7119 100.601 58.5151 107.471C58.3839 109.566 58.6463 111.661 59.1711 113.504C59.2367 113.755 59.3023 114.007 59.3679 114.174C59.4335 114.342 59.4991 114.509 59.4991 114.593L59.6303 115.012V115.096C60.3519 117.023 61.4015 118.699 62.7135 120.207C62.7135 120.207 69.5359 110.488 76.4239 100.768C79.8351 95.9087 83.2463 91.0491 85.8047 87.4462C86.4607 86.5246 87.0511 85.6867 87.5759 84.9326C88.1007 84.1786 88.4287 83.4245 88.5599 82.6704C88.6911 82.0001 88.6254 81.4136 88.4286 81.0784C88.2318 80.8271 88.0351 80.7433 88.1007 80.7433Z" fill="#A2EC75"/>
<path d="M51.2336 54.1829C53.5296 56.3613 56.1536 57.283 58.712 58.2046C58.384 57.0316 57.6624 55.7748 57.6624 55.7748C60.8112 57.1992 64.1567 59.3777 66.3871 62.5616C66.3871 61.4723 66.2559 60.7182 66.2559 60.7182C67.1743 61.8913 67.9615 63.3994 68.7487 65.5779C69.4703 67.7563 70.1263 70.5213 69.9295 73.1187C69.8639 74.7107 69.4703 76.1351 68.8799 77.2243C68.8143 77.3919 68.7487 77.4757 68.6175 77.6432L68.4207 77.8946L68.2895 78.0622C67.5023 78.9838 66.5839 79.5703 65.5999 79.9055C65.5999 79.9055 65.5999 79.8217 65.5343 79.5703C65.4687 79.319 65.4031 78.9838 65.2719 78.6487C65.0751 77.8108 64.6815 76.7216 64.0911 75.381C62.9103 72.7836 60.8768 69.7672 58.9744 66.6671C55.104 60.3831 51.2336 54.1829 51.2336 54.1829Z" fill="#A2EC75"/>
<path d="M51.2336 54.1829C52.4144 57.5343 52.48 61.0534 52.6112 64.4049C51.7584 63.7346 50.9712 62.5616 50.9712 62.5616C51.2992 66.7509 52.2176 71.443 54.12 74.962C53.2672 74.7107 52.7424 74.3755 52.7424 74.3755C53.3328 75.7161 54.5136 77.2243 55.6288 78.2297C56.744 79.2352 57.9247 79.7379 59.1711 79.9892C59.9583 80.1568 60.7456 80.2406 61.664 80.2406C61.7952 80.2406 61.8608 80.2406 61.992 80.2406H62.1887H62.3855C63.3695 80.2406 64.4191 80.1568 65.4031 79.8217C65.4031 79.8217 65.4031 79.7379 65.3375 79.4865C65.2719 79.2352 65.2063 78.9 65.0751 78.5649C64.8783 77.727 64.4847 76.6378 63.8943 75.2972C62.7135 72.6998 60.6799 69.6834 58.7775 66.5833C55.1039 60.3831 51.2336 54.1829 51.2336 54.1829Z" fill="#A2EC75"/>
<path d="M100.04 18.8247C97.6783 22.4275 96.8254 26.6169 96.1694 30.6387C97.2846 30.136 98.3999 29.0467 98.3999 29.0467C97.2191 33.9064 95.7103 39.1012 93.3487 42.8716C94.3983 42.7878 94.9887 42.5364 94.9887 42.5364C93.3487 45.3852 89.8719 48.4015 86.0671 49.3232C84.8863 49.6583 83.7055 49.6583 82.5247 49.407C82.3935 49.407 82.2623 49.3232 82.0655 49.3232C81.9999 49.3232 81.8687 49.2394 81.8031 49.2394L81.5407 49.1556H81.4751C80.2287 48.7367 79.0479 48.0664 77.9983 47.0609C77.9983 47.0609 78.2607 46.5582 78.7855 45.6365C79.3103 44.7149 80.0319 43.4581 80.9503 42.0337C82.7871 39.1012 85.3455 35.3307 88.1007 31.7279C90.8559 28.2089 93.8079 24.9412 96.1694 22.5951C97.3502 21.4221 98.3343 20.5004 98.9903 19.8301C99.6463 19.1599 100.04 18.8247 100.04 18.8247Z" fill="#A2EC75"/>
<path d="M100.04 18.8247C96.6287 20.4166 93.2175 20.668 89.7407 21.1707C90.3967 19.7463 91.6431 18.4058 91.6431 18.4058C87.3791 19.1598 82.4591 21.4221 79.0479 25.6114C79.1791 24.1033 79.5071 23.1816 79.5071 23.1816C76.7519 25.9466 74.0623 32.063 74.1279 37.5092C74.0623 39.1849 74.3903 40.7769 74.8495 42.2013C74.9151 42.3688 74.9807 42.5364 75.0463 42.704C75.1119 42.7878 75.1119 42.9554 75.1775 43.0391L75.3087 43.2905C75.9647 44.6311 76.8831 45.8879 77.9983 46.8096C77.9983 46.8096 78.2607 46.3068 78.7855 45.3852C79.3103 44.4635 80.0319 43.2067 80.9503 41.7823C82.7871 38.8498 85.3455 35.0794 88.1007 31.4765C90.8559 27.9575 93.8078 24.6898 96.1694 22.3437C97.3502 21.1707 98.3343 20.2491 98.9903 19.5788C99.6463 19.1598 100.04 18.8247 100.04 18.8247Z" fill="#A2EC75"/>
<path d="M8.00323 129.843C11.2176 130.345 14.1696 129.34 17.1216 128.418C16.2688 127.496 15.0224 126.826 15.0224 126.826C18.696 125.905 22.8944 125.653 26.5024 127.161C26.0432 126.072 25.584 125.486 25.584 125.486C28.2736 126.323 31.816 129.424 33.5872 133.529C34.1776 134.786 34.5056 136.127 34.6368 137.467V137.635C34.6368 137.635 34.6368 137.635 34.7024 137.719C34.768 137.802 34.8992 137.886 34.9648 137.97C35.2928 138.305 35.6208 138.64 35.8176 138.975L35.8832 139.059C36.2112 139.562 36.3424 139.981 36.408 140.483C36.4736 140.819 36.5392 141.238 36.5392 141.489V141.573C36.4736 142.578 36.1456 143.081 35.8832 143.5C35.8176 143.584 35.6864 143.751 35.6208 143.835C35.5552 143.919 35.424 144.086 35.3584 144.17C35.2272 144.254 35.096 144.505 34.9648 144.589C34.9648 144.589 34.8992 144.673 34.8336 144.757C34.768 144.84 34.7024 144.924 34.6368 144.924C34.5712 145.008 34.5056 145.008 34.44 145.092C34.3744 145.092 34.3744 145.092 34.3088 145.176C34.2432 145.259 34.112 145.259 34.0464 145.343C33.6528 145.511 33.128 145.511 32.8656 145.343C32.6032 145.176 32.4064 145.008 32.2096 144.757C32.0128 144.421 32.0784 144.421 32.0128 144.254C32.0128 144.17 32.0128 144.086 32.0128 144.003C32.0128 143.584 32.2096 143.667 32.3408 143.5C32.6032 143.332 32.8656 143.248 33.1936 143.165C33.1936 143.165 33.1936 143.165 33.1936 143.248C33.1936 143.248 33.2592 143.332 33.2592 143.248C33.2592 143.248 33.3248 143.165 33.3248 143.081C33.3248 142.913 33.3248 142.746 33.2592 142.578C33.1936 142.411 32.9968 142.327 32.8656 142.243C32.144 141.908 31.16 141.405 29.9136 140.735C27.4864 139.478 24.2064 137.886 20.992 136.21C14.4976 133.11 8.00323 129.843 8.00323 129.843Z" fill="#A2EC75"/>
<path d="M8.00322 129.842C10.6272 132.272 12.2672 135.624 13.8416 138.808C12.7264 138.724 11.48 138.137 11.48 138.137C13.6448 141.992 16.5968 145.846 20.008 147.94C19.0896 148.359 18.4336 148.359 18.4336 148.359C20.8608 150.119 25.1248 150.957 28.6016 149.449C29.7168 149.03 30.6352 148.359 31.488 147.438L31.5536 147.354L32.9312 142.829L32.8656 142.913C32.8 142.913 32.8 142.913 32.7344 142.997C32.6032 143.081 32.472 142.997 32.6032 143.081C32.7344 143.081 33.128 143.248 33.1936 143.332C33.1936 143.332 33.2592 143.248 33.3248 143.248C33.3904 143.248 33.5216 143.165 33.5872 143.165L33.7184 143.081H33.6528H33.5216L33.0624 143.248C33.0624 143.248 33.0624 143.248 33.0624 143.332C33.0624 143.332 33.128 143.416 33.128 143.332C33.128 143.332 33.1936 143.248 33.1936 143.165C33.1936 142.997 33.1936 142.829 33.128 142.662C33.0624 142.494 32.8656 142.41 32.7344 142.327C32.0128 141.992 31.0288 141.489 29.7824 140.819C27.3552 139.562 24.0752 137.97 20.8608 136.294C14.4976 133.11 8.00322 129.842 8.00322 129.842Z" fill="#A2EC75"/>
<path d="M7.47844 83.257C10.7584 85.4354 14.1696 85.8543 17.5152 86.2733C16.9248 84.9327 15.8096 83.5921 15.8096 83.5921C19.9424 84.43 24.4032 86.0219 27.8144 89.122C27.6176 87.7815 27.2896 86.9436 27.2896 86.9436C29.848 89.0383 32.7344 93.7303 33.5872 98.8413C33.8496 100.433 33.9152 102.025 33.7184 103.533C33.7184 103.701 33.6528 103.952 33.6528 104.12C33.6528 104.204 33.5872 104.371 33.5872 104.455L33.5216 104.79V104.874C33.1936 106.466 32.5376 107.974 31.7504 109.315C31.7504 109.315 25.4528 103.198 19.352 96.6629C13.3168 90.1275 7.47844 83.257 7.47844 83.257Z" fill="#A2EC75"/>
<path d="M7.47841 83.257C9.44641 87.1949 10.168 91.5519 11.0208 95.825C9.84001 95.2385 8.6592 93.9817 8.6592 93.9817C9.84 99.1765 12.0048 104.874 15.2192 108.728C14.104 108.728 13.3824 108.393 13.3824 108.393C15.6128 111.493 20.1392 114.342 24.3376 114.258C25.6496 114.258 26.896 113.923 28.0112 113.253C28.1424 113.169 28.2736 113.085 28.4048 113.001C28.4704 112.918 28.6016 112.918 28.6672 112.834L28.9296 112.666C30.0448 111.828 31.0288 110.655 31.816 109.315C31.816 109.315 25.5184 103.198 19.4176 96.6629C13.3168 90.1275 7.47841 83.257 7.47841 83.257Z" fill="#A2EC75"/>
<path d="M31.816 199.386C35.3584 197.459 37.9168 194.191 40.4752 191.091C39.1632 190.756 37.5888 191.007 37.5888 191.007C40.9344 187.32 45.1328 183.885 49.528 182.628C48.544 181.874 47.8224 181.623 47.8224 181.623C50.9712 180.45 56.0879 180.953 59.7615 183.801C60.9423 184.639 61.8608 185.728 62.648 187.069C62.7136 187.237 62.8447 187.404 62.9103 187.572C62.9759 187.655 63.0415 187.823 63.0415 187.907C63.1071 187.991 63.1071 188.074 63.1727 188.242C63.8287 189.75 64.2879 191.426 64.4847 193.185L31.816 199.386Z" fill="#A2EC75"/>
<path d="M31.816 199.386C35.6208 199.972 38.8352 202.067 41.984 204.162C40.8032 204.916 39.2288 205.335 39.2288 205.335C43.2304 207.597 48.0191 209.356 52.5455 208.937C51.7583 210.027 51.1023 210.529 51.1023 210.529C54.3823 210.446 59.1711 208.1 62.0575 203.994C62.9759 202.737 63.6319 201.313 64.0911 199.805C64.1567 199.637 64.2223 199.386 64.2223 199.218C64.2223 199.134 64.2879 198.967 64.2879 198.799C64.2879 198.715 64.3535 198.548 64.3535 198.464C64.3535 198.464 64.3535 198.464 64.3535 198.38C64.6815 196.704 64.6815 194.945 64.4847 193.185L31.816 199.386Z" fill="#A2EC75"/>
<path d="M35.0304 173.244C37.064 172.658 38.6384 171.317 40.2784 169.976C39.6224 169.641 38.7696 169.557 38.7696 169.557C40.8032 168.049 43.296 166.793 45.7232 166.709C45.264 166.206 44.8704 165.955 44.8704 165.955C46.6416 165.787 49.2656 166.709 50.9712 168.72C51.496 169.306 51.9552 170.06 52.2176 170.814C52.2832 170.898 52.2832 170.982 52.3488 171.149C52.3488 171.233 52.4144 171.317 52.4144 171.317C52.4144 171.401 52.48 171.401 52.48 171.485C52.7424 172.322 52.808 173.328 52.7424 174.25L35.0304 173.244Z" fill="#A2EC75"/>
<path d="M35.0304 173.244C36.9984 173.998 38.5072 175.59 40.016 177.098C39.36 177.35 38.5072 177.35 38.5072 177.35C40.4096 179.109 42.8368 180.617 45.1984 181.036C44.6736 181.539 44.28 181.707 44.28 181.707C46.0512 182.126 48.7408 181.455 50.5776 179.696C51.168 179.193 51.6272 178.523 51.9552 177.769C52.0208 177.685 52.0208 177.601 52.0864 177.517C52.0864 177.433 52.152 177.35 52.152 177.35C52.152 177.266 52.2176 177.266 52.2176 177.182C52.48 176.344 52.6768 175.423 52.6768 174.501L35.0304 173.244Z" fill="#A2EC75"/>
<path d="M81.5407 251.082C84.2959 251.753 86.8543 251.166 89.4127 250.831C88.7567 249.909 87.7071 249.155 87.7071 249.155C90.9215 248.82 94.7263 249.323 97.7439 251.334C97.4159 250.328 97.0879 249.742 97.0879 249.742C99.3839 250.999 102.205 254.518 103.189 258.456C103.517 259.629 103.582 260.885 103.517 262.058C103.517 262.226 103.517 262.31 103.451 262.477L103.385 262.729L103.32 262.98C103.123 264.153 102.664 265.326 102.073 266.415C102.073 266.415 97.2191 261.975 92.0367 258.12C86.9855 254.266 81.5407 251.082 81.5407 251.082Z" fill="#A2EC75"/>
<path d="M81.5407 251.082C83.6399 253.345 84.8207 256.361 85.9359 259.21C85.0175 259.042 84.0335 258.456 84.0335 258.456C85.6079 261.891 87.5759 265.494 90.0687 267.756C89.2815 267.923 88.7567 267.84 88.7567 267.84C90.5279 269.599 93.7423 271.024 96.7599 270.605C97.6783 270.521 98.5967 270.186 99.3839 269.599C99.4495 269.515 99.5807 269.432 99.7119 269.348L99.9087 269.18L100.105 269.013C100.893 268.342 101.614 267.421 102.205 266.415C102.205 266.415 97.3503 261.975 92.1679 258.12C86.9855 254.266 81.5407 251.082 81.5407 251.082Z" fill="#A2EC75"/>
<path d="M92.1023 291.049C94.2015 291.384 96.1695 290.965 98.2031 290.797C97.6783 290.043 96.8255 289.457 96.8255 289.457C99.3839 289.289 102.401 289.96 104.763 291.97C104.566 291.133 104.304 290.63 104.304 290.63C106.141 291.97 108.174 295.238 108.502 298.506C108.633 299.511 108.568 300.433 108.305 301.271C108.305 301.355 108.24 301.438 108.24 301.606L108.174 301.773L108.109 301.941C107.781 302.779 107.321 303.533 106.731 304.203C106.731 304.203 106.534 303.952 106.206 303.449C105.878 302.946 105.419 302.276 104.763 301.522C103.582 300.014 101.877 298.087 100.04 296.411C98.2031 294.735 96.2351 293.311 94.6607 292.389C93.8735 291.887 93.2831 291.551 92.8239 291.3C92.3647 291.216 92.1023 291.049 92.1023 291.049Z" fill="#A2EC75"/>
<path d="M92.1023 291.049C93.8079 292.641 94.7263 294.903 95.3823 297.082C94.7263 296.914 94.0047 296.495 94.0047 296.495C95.1199 299.092 96.3007 301.69 97.8095 303.533C97.2191 303.617 96.8911 303.533 96.8911 303.533C97.9407 304.874 100.04 306.13 102.205 306.298C102.861 306.382 103.582 306.298 104.238 306.047C104.304 306.047 104.369 305.963 104.501 305.963L104.632 305.879L104.763 305.795C105.419 305.46 106.075 304.957 106.665 304.287C106.665 304.287 106.469 304.036 106.141 303.533C105.813 303.03 105.353 302.36 104.697 301.606C103.517 300.098 101.811 298.171 99.9743 296.495C98.1375 294.819 96.1695 293.395 94.5951 292.473C93.8079 291.97 93.2175 291.635 92.7583 291.384C92.3647 291.216 92.1023 291.049 92.1023 291.049Z" fill="#A2EC75"/>
<path d="M111.782 347.186C112.045 346.097 112.176 345.007 112.241 343.918C112.635 344.421 112.963 344.924 113.357 345.51C111.585 347.94 110.273 350.789 109.027 353.47C110.273 353.386 111.651 352.632 111.651 352.632C109.355 356.989 106.141 361.43 102.467 363.943C103.517 364.362 104.238 364.278 104.238 364.278C102.926 365.284 101.089 366.122 99.0559 366.457C98.0719 366.624 97.0223 366.708 95.9727 366.624C95.7103 366.624 95.4479 366.624 95.1855 366.541C95.0543 366.541 94.9231 366.541 94.7919 366.457H94.5951L94.4639 366.373C94.1359 366.206 93.8735 365.87 93.6767 365.535C93.0863 364.865 92.1679 364.195 91.3151 363.524C91.1839 363.441 91.1183 363.357 90.9871 363.273L90.7903 363.105L90.5935 362.938C89.6751 362.268 88.8223 361.597 87.9039 360.508C87.9039 359.754 88.2319 359 88.6255 358.497C89.0191 357.911 89.5439 357.492 90.0687 357.157C91.1183 356.402 92.2335 355.9 93.3487 355.229L99.9087 351.627L113.029 344.337L111.782 347.186Z" fill="#A2EC75"/>
<path d="M111.782 347.186C112.438 346.348 113.094 345.678 113.75 345.007L115.39 343.416H112.635C110.011 343.416 107.518 342.745 105.091 342.075C106.009 340.986 107.387 340.148 107.387 340.148C103.32 339.31 98.5967 339.226 94.5951 340.986C95.0543 339.729 95.5791 339.059 95.5791 339.059C94.0703 339.645 92.3647 340.818 90.7903 342.41C90.0031 343.248 89.2815 344.17 88.5599 345.175C88.3631 345.426 88.2319 345.678 88.1007 345.929C88.0351 346.097 87.9695 346.18 87.9039 346.348L87.7727 346.516L87.5759 346.767C87.1167 347.437 86.5919 348.191 86.1327 348.945C85.0175 350.956 84.6895 352.967 84.9519 354.727C84.9519 354.978 85.0175 355.146 85.0831 355.397C85.0831 355.565 85.1487 355.648 85.2143 355.816L85.3455 356.151V356.235C85.8703 357.994 86.9199 359.419 87.9039 360.592C87.9039 359.838 88.2319 359.084 88.6255 358.581C89.0191 357.994 89.5439 357.576 90.0687 357.24C91.1183 356.486 92.2335 355.984 93.3487 355.313L99.9087 351.71L113.029 344.421L111.782 347.186Z" fill="#A2EC75"/>
<path d="M108.043 382.628C104.894 383.466 102.402 385.644 100.04 387.823C101.024 388.326 102.336 388.409 102.336 388.409C99.2527 390.839 95.5791 393.018 91.9711 393.52C92.6927 394.274 93.2831 394.61 93.2831 394.61C91.9711 394.861 90.3311 394.777 88.6255 394.191C87.0511 393.688 84.8207 392.766 84.8207 391.342C84.4271 390.588 83.9023 389.918 83.5743 389.331L83.4431 389.08L83.3775 388.912L83.3119 388.745C82.9839 388.074 82.8527 387.153 82.4591 386.063C82.4591 386.063 82.3935 385.98 82.2623 385.728C82.1311 385.477 82.0655 385.142 82.1311 384.639C82.1967 384.136 82.4591 383.634 82.9183 383.298C83.3775 382.963 83.9679 382.796 84.6239 382.712C87.2479 382.544 90.6591 382.293 94.1359 382.293C101.09 382.209 108.043 382.628 108.043 382.628Z" fill="#A2EC75"/>
<path d="M108.043 382.628C104.96 381.371 102.598 379.025 100.106 376.763C101.155 376.344 102.533 376.26 102.533 376.26C99.3839 373.663 95.4479 371.401 91.5119 371.233C92.2991 370.395 92.8895 370.06 92.8895 370.06C91.4463 369.892 89.6751 370.144 87.8383 370.814C86.9199 371.149 86.0671 371.652 85.2143 372.239C84.7551 372.574 84.4927 372.825 83.7711 373.244C83.6399 373.328 83.3775 373.412 83.2463 373.579C83.1151 373.663 82.9183 373.83 82.7871 373.914C82.5247 374.166 82.1967 374.417 81.9343 374.668C81.2783 375.339 80.8191 376.177 80.5567 377.014C80.2943 377.852 80.2288 378.774 80.3599 379.612C80.3599 379.863 80.4255 380.031 80.4255 380.282C80.4255 380.45 80.4911 380.533 80.4911 380.701L80.5567 381.036V381.12C81.0815 382.879 81.8031 384.555 82.3279 386.147C82.3279 386.147 82.2623 386.063 82.1311 385.812C81.9999 385.561 81.9343 385.225 81.9999 384.723C82.0655 384.22 82.3279 383.717 82.7871 383.382C83.2463 383.047 83.8367 382.879 84.4927 382.796C87.1167 382.628 90.5279 382.377 94.0047 382.377C101.09 382.209 108.043 382.628 108.043 382.628Z" fill="#A2EC75"/>
<path d="M70.2575 359.167C72.1599 361.262 74.3903 362.351 76.6207 363.357C76.4239 362.268 75.8335 361.178 75.8335 361.178C78.5231 362.687 81.3439 364.865 83.1807 367.798C83.2463 366.792 83.1807 366.206 83.1807 366.206C84.6239 368.3 85.8703 372.322 85.6079 375.925C85.5423 377.014 85.2799 378.103 84.8863 379.025C84.8207 379.109 84.7551 379.276 84.7551 379.36C84.6895 379.444 84.6895 379.528 84.6239 379.612C84.5583 379.695 84.5583 379.779 84.4927 379.779C83.9679 380.701 83.3119 381.539 82.5903 382.209L70.2575 359.167Z" fill="#A2EC75"/>
<path d="M70.2575 359.167C71.1103 362.268 71.0447 365.284 70.9791 368.216C70.2575 367.546 69.6671 366.457 69.6671 366.457C69.7327 370.144 70.3231 374.333 71.8319 377.601C71.1103 377.349 70.6511 376.93 70.6511 376.93C71.6351 379.444 74.0623 382.376 76.8175 383.382C77.6703 383.717 78.5231 383.801 79.3759 383.717C79.5071 383.717 79.5727 383.717 79.7039 383.633C79.7695 383.633 79.8351 383.633 79.9007 383.55C79.9663 383.55 80.0319 383.549 80.0975 383.466C80.9503 383.214 81.8031 382.712 82.5247 382.041L70.2575 359.167Z" fill="#A2EC75"/>
<path d="M76.8831 330.512C78.4575 332.942 80.4911 334.283 82.5247 335.456C82.3935 334.45 81.9999 333.277 81.9999 333.277C84.3615 335.037 86.8543 337.215 88.4943 339.897C88.6255 338.975 88.5599 338.388 88.5599 338.388C89.8063 340.316 90.7903 343.918 90.5935 347.27C90.5279 348.359 90.3311 349.365 90.0031 350.286C89.9375 350.37 89.9375 350.538 89.8719 350.621L89.8063 350.873L89.7407 351.04C89.2815 351.962 88.6911 352.8 87.9695 353.47C87.9695 353.47 84.6895 348.108 81.9999 342.326C79.1135 336.713 76.8831 330.512 76.8831 330.512Z" fill="#A2EC75"/>
<path d="M76.8831 330.512C77.2767 333.613 76.9487 336.545 76.6863 339.478C76.0303 338.724 75.5055 337.551 75.5055 337.551C75.3087 341.237 75.7023 345.594 77.1455 349.029C76.4239 348.694 75.9647 348.275 75.9647 348.275C76.8831 350.956 79.4415 354.057 82.1967 355.062C83.0495 355.397 83.9023 355.481 84.6895 355.313C84.8207 355.313 84.8863 355.23 85.0175 355.23L85.2143 355.146L85.4111 355.062C86.2639 354.811 87.0511 354.224 87.7071 353.554C87.7071 353.554 84.4271 348.192 81.7375 342.41C79.1135 336.713 76.8831 330.512 76.8831 330.512Z" fill="#A2EC75"/>
<path d="M130.544 304.035C128.707 307.471 127.329 311.157 125.886 314.76C126.477 314.593 127.067 314.341 127.592 314.09C128.051 313.838 128.379 313.587 128.379 313.587C127.395 315.849 126.083 318.028 124.705 319.955C123.328 321.882 121.95 323.474 120.638 324.647C121.032 324.815 121.425 324.898 121.688 324.898C121.95 324.898 122.081 324.898 122.081 324.898C121.032 325.82 119.851 326.574 118.605 326.909C117.293 327.244 116.112 327.244 114.669 327.077C114.209 327.077 113.75 326.993 113.291 326.825C112.766 326.742 112.373 326.658 111.848 326.49C111.717 326.49 111.585 326.407 111.454 326.407C111.389 326.407 111.323 326.323 111.192 326.323L110.995 326.239C109.945 325.82 108.83 325.317 107.781 324.563C107.781 324.563 108.043 324.06 108.437 323.306C108.633 322.887 108.961 322.385 109.289 321.882C109.486 321.631 109.617 321.296 109.814 321.044C110.011 320.793 110.273 320.458 110.47 320.206C111.389 319.033 112.635 317.776 114.013 316.603C115.39 315.43 116.965 314.341 118.539 313.336C120.113 312.33 121.688 311.325 123.131 310.319C124.574 309.314 125.952 308.392 127.067 307.471C127.657 307.052 128.117 306.549 128.576 306.214C129.035 305.795 129.429 305.46 129.691 305.125C130.216 304.371 130.544 304.035 130.544 304.035Z" fill="#A2EC75"/>
<path d="M130.544 304.036C129.035 304.957 127.526 305.292 126.083 305.292C125.689 305.292 125.361 305.292 124.968 305.292C124.574 305.292 124.246 305.209 123.853 305.125C123.131 305.041 122.409 304.873 121.688 304.706C122.016 304.203 122.475 303.7 122.803 303.365C123.131 303.03 123.393 302.779 123.393 302.779C121.688 302.611 119.785 302.444 117.883 302.695C115.915 302.946 113.881 303.533 111.848 304.706C112.11 304.036 112.307 303.617 112.504 303.281C112.701 302.946 112.832 302.779 112.832 302.779C111.389 303.533 109.552 305.041 107.912 307.303C106.272 309.482 104.829 312.582 104.435 315.431C104.304 316.352 104.238 317.19 104.304 318.028C104.369 318.866 104.501 319.62 104.697 320.29C104.763 320.458 104.829 320.625 104.894 320.793C104.96 320.877 104.96 320.961 105.025 321.128L105.157 321.379C105.747 322.636 106.665 323.642 107.715 324.396C107.715 324.396 107.977 323.893 108.371 323.139C108.568 322.72 108.896 322.217 109.224 321.715C109.421 321.463 109.552 321.128 109.749 320.877C109.945 320.625 110.208 320.29 110.405 320.039C111.323 318.866 112.569 317.609 113.947 316.436C115.325 315.263 116.899 314.174 118.473 313.168C120.048 312.163 121.622 311.157 123.065 310.152C124.509 309.147 125.886 308.225 127.001 307.303C127.592 306.884 128.051 306.382 128.51 306.046C128.969 305.628 129.363 305.292 129.625 304.957C130.216 304.371 130.544 304.036 130.544 304.036Z" fill="#A2EC75"/>
<path d="M54.7759 281.078C53.9232 284.849 54.3823 288.368 54.9727 291.719C55.6943 290.797 56.2191 289.541 56.2191 289.541C56.6127 293.73 56.8751 298.254 56.1535 302.192C56.8751 301.69 57.2687 301.187 57.2687 301.187C56.8095 304.036 55.0383 307.806 52.4144 310.236C51.6272 310.99 50.7088 311.577 49.7904 311.912C49.6592 311.912 49.528 311.996 49.4624 311.996C49.3968 311.996 49.3312 311.996 49.2 312.079L49.0031 312.163C47.9535 312.414 46.904 312.414 45.7888 312.163C45.7888 312.163 45.8543 311.66 45.9855 310.739C46.1167 309.817 46.3136 308.56 46.576 307.052C47.1008 304.036 48.0192 300.014 49.2 296.076C50.3152 292.222 51.6927 288.368 52.8735 285.686C53.4639 284.262 53.9231 283.173 54.3167 282.419C54.5791 281.497 54.7759 281.078 54.7759 281.078Z" fill="#A2EC75"/>
<path d="M54.7759 281.078C52.6111 283.759 50.0527 285.435 47.56 287.362C47.6912 285.938 48.216 284.43 48.216 284.43C45.1328 286.859 42.0496 290.797 40.5408 295.49C40.2128 294.316 40.2128 293.395 40.2128 293.395C38.9008 296.746 38.5072 302.611 40.016 306.717C40.4752 308.058 41.0656 309.063 41.8528 309.985C41.9184 310.068 42.0496 310.152 42.1808 310.32L42.3775 310.487L42.5744 310.655C43.4928 311.409 44.4768 311.828 45.592 312.079C45.592 312.079 45.6575 311.577 45.7887 310.655C45.9199 309.733 46.1167 308.476 46.3791 306.968C46.9039 303.952 47.8223 299.93 49.0031 295.992C50.1183 292.138 51.4959 288.284 52.6767 285.603C53.2671 284.178 53.7263 283.089 54.1199 282.335C54.5791 281.497 54.7759 281.078 54.7759 281.078Z" fill="#A2EC75"/>
<path d="M23.616 345.091C26.8304 346.599 30.1104 346.767 33.3904 347.102C32.7344 345.762 31.6192 344.589 31.6192 344.589C35.6864 345.175 40.2128 347.018 43.5584 350.537C43.4272 349.197 43.0336 348.275 43.0336 348.275C45.6576 350.621 48.4128 355.984 48.7408 361.095C48.872 362.686 48.7408 364.195 48.3472 365.619C48.2816 365.787 48.216 365.954 48.216 366.122C48.1504 366.206 48.1504 366.373 48.0848 366.457L47.9536 366.708C47.4288 368.049 46.6416 369.306 45.7232 370.395C45.7232 370.395 44.4768 368.635 42.5744 366.038C40.672 363.441 38.048 360.089 35.2928 356.905C32.5376 353.721 29.6512 350.705 27.4208 348.61C25.1904 346.516 23.616 345.091 23.616 345.091Z" fill="#A2EC75"/>
<path d="M23.616 345.091C25.8464 348.526 26.6992 352.464 27.4864 356.319C26.4368 355.816 25.3216 354.81 25.3216 354.81C26.568 359.503 28.2736 364.446 30.7664 367.965C29.7824 367.965 29.1264 367.714 29.1264 367.714C30.8976 370.395 34.44 373.076 38.1792 373.663C39.36 373.83 40.4752 373.746 41.5904 373.411C41.7216 373.327 41.8528 373.327 41.984 373.244C42.0496 373.244 42.1808 373.16 42.2464 373.16L42.5088 373.076C43.624 372.573 44.6736 371.735 45.6576 370.646C45.6576 370.646 44.4112 368.887 42.5088 366.289C40.6064 363.692 37.9824 360.34 35.2272 357.157C32.472 353.973 29.5856 350.956 27.3552 348.862C25.1904 346.516 23.616 345.091 23.616 345.091Z" fill="#A2EC75"/>
<path d="M60.8111 370.144C59.2367 374.333 59.3023 378.606 59.6303 382.544C60.5487 381.622 61.3359 380.282 61.3359 380.282C61.3359 385.225 61.2047 390.42 60.0895 394.609C61.0079 394.191 61.4671 393.688 61.4671 393.688C60.7455 396.788 58.5151 400.726 55.3007 403.24C54.3167 404.077 53.2671 404.664 52.1519 404.999C52.0207 404.999 51.8895 405.083 51.7583 405.083C51.6927 405.083 51.5615 405.083 51.4959 405.167L51.2335 405.25H51.1679C49.9215 405.502 48.6751 405.418 47.3631 405.083C47.3631 405.083 47.4943 404.496 47.6255 403.407C47.6911 402.904 47.8223 402.234 47.9535 401.48C48.0847 400.726 48.2815 399.972 48.4783 399.05C48.8719 397.291 49.3967 395.196 50.0527 393.101C50.7087 390.923 51.4959 388.661 52.2831 386.482C53.1359 384.304 54.0543 382.125 55.0383 380.114C56.0223 378.187 56.9407 376.344 57.7935 374.92C58.1871 374.165 58.6463 373.495 58.9743 372.909C59.3023 372.322 59.6303 371.819 59.9583 371.4C60.5487 370.646 60.8111 370.144 60.8111 370.144Z" fill="#A2EC75"/>
<path d="M60.8112 370.144C57.8592 372.741 54.6448 374.165 51.4304 375.925C51.7584 374.249 52.6112 372.573 52.6112 372.573C50.6432 373.746 48.6096 375.338 46.7728 377.433C44.936 379.444 43.3616 381.958 42.2464 384.723C41.984 383.214 42.1152 382.209 42.1152 382.209C40.1472 386.147 39.2944 393.353 40.9344 398.464C41.3936 400.056 42.1152 401.396 43.0336 402.485C43.1648 402.653 43.2304 402.737 43.3616 402.821L43.624 403.072L43.8208 403.24C44.8704 404.161 46.0512 404.748 47.2976 405.083C47.2976 405.083 47.4288 404.496 47.56 403.407C47.6256 402.904 47.7568 402.234 47.888 401.48C48.0192 400.726 48.216 399.972 48.4128 399.05C48.8064 397.291 49.3312 395.196 49.9872 393.101C50.6432 390.923 51.4304 388.661 52.2176 386.482C53.0704 384.304 53.9888 382.125 54.9728 380.114C55.9568 378.187 56.8752 376.344 57.728 374.92C58.1216 374.165 58.5808 373.495 58.9088 372.909C59.2368 372.322 59.5648 371.819 59.8928 371.4C60.5488 370.646 60.8112 370.144 60.8112 370.144Z" fill="#A2EC75"/>
<path d="M21.9104 399.301C24.8624 399.301 27.4208 398.212 30.0448 397.123C29.2576 396.369 28.0768 395.866 28.0768 395.866C31.3568 394.777 35.2928 394.274 38.704 395.447C38.2448 394.442 37.7856 393.939 37.7856 393.939C40.3439 394.609 43.7551 397.458 45.3951 401.145C45.9199 402.318 46.2479 403.491 46.3135 404.748C46.3135 404.915 46.3135 405.083 46.3135 405.25C46.3135 405.334 46.3135 405.418 46.3135 405.586V405.837C46.3135 407.177 46.0511 408.434 45.6575 409.691C45.6575 409.691 39.8848 406.591 33.9152 403.994C27.9456 401.396 21.9104 399.301 21.9104 399.301Z" fill="#A2EC75"/>
<path d="M21.9104 399.302C24.4688 401.145 26.1088 403.994 27.6832 406.675C26.6992 406.759 25.584 406.34 25.584 406.34C27.6832 409.524 30.3728 412.791 33.3904 414.467C32.6032 414.886 32.0128 414.886 32.0128 414.886C34.1776 416.31 37.7856 416.813 40.8688 415.556C41.8528 415.221 42.7055 414.551 43.4271 413.797C43.4927 413.713 43.6239 413.629 43.6895 413.462L43.8864 413.294L44.0175 413.126C44.7391 412.205 45.2639 411.032 45.7231 409.775C45.7231 409.775 39.9504 406.675 33.9808 404.077C27.9456 401.396 21.9104 399.302 21.9104 399.302Z" fill="#A2EC75"/>
<path d="M65.6655 422.846C65.0751 422.678 64.6159 423.013 64.3535 423.432C64.2223 423.683 64.1567 423.935 64.0911 424.102C64.0911 424.186 64.0911 424.354 64.0911 424.437C64.0911 424.521 64.0911 424.521 64.1567 424.605V424.856C64.3535 425.694 64.8783 426.448 65.4031 427.454C65.5343 427.035 65.6655 426.7 65.7311 426.532C65.7967 426.365 65.7967 426.281 65.7967 426.281C66.0591 426.532 66.3871 426.951 66.6495 427.621C66.7807 427.957 66.9119 428.375 67.0431 428.794C67.1743 429.213 67.2399 429.632 67.3711 430.051C67.7647 431.727 67.9615 433.403 67.9615 435.078C68.4207 434.492 68.6175 433.989 68.6175 433.989C68.6831 436.419 67.8303 440.106 66.0591 442.368C65.5343 443.122 64.8783 443.625 64.2223 444.044C64.1567 444.127 64.0255 444.127 63.9599 444.211L63.7631 444.295L63.6319 444.379C62.9103 444.63 62.0575 444.798 61.2703 444.63C61.2703 444.63 61.6639 438.514 62.1231 432.313C62.2543 430.805 62.3199 429.213 62.4511 427.789C62.5167 426.365 62.6479 424.94 63.1727 424.019C63.6975 423.013 64.4847 422.678 65.0095 422.678C65.4687 422.594 65.6655 422.846 65.6655 422.846Z" fill="#A2EC75"/>
<path d="M65.6655 422.846C65.2719 422.343 64.6159 422.092 63.9599 422.175C63.6319 422.175 63.3039 422.259 62.9759 422.427C62.7791 422.51 62.6479 422.594 62.5167 422.678L62.2543 422.846L62.0575 422.929C60.8111 424.019 60.0896 425.527 59.368 426.7C59.3024 426.197 59.3024 425.443 59.368 424.773C59.4336 424.102 59.5647 423.6 59.5647 423.6C58.9087 424.605 58.5151 425.694 58.1215 426.532C57.9247 426.951 57.7935 427.286 57.5967 427.705C57.3999 428.04 57.2687 428.459 57.1375 428.878C56.5471 430.47 56.0879 432.062 55.8911 433.738C55.4975 433.068 55.3664 432.481 55.3664 432.481C54.9728 434.911 55.3663 438.681 56.8095 441.279C57.2687 442.117 57.7936 442.787 58.384 443.29C58.4496 443.373 58.5152 443.373 58.6463 443.457L58.7775 443.541L58.9087 443.709C59.6303 444.128 60.4175 444.379 61.2047 444.546C61.2047 444.546 61.5983 438.43 62.0575 432.23C62.1887 430.722 62.2543 429.13 62.3855 427.705C62.4511 426.281 62.5823 424.857 63.1071 423.935C63.6319 422.929 64.4191 422.594 64.9439 422.594C65.4687 422.594 65.6655 422.846 65.6655 422.846Z" fill="#A2EC75"/>
<path d="M120.245 466.164C118.473 469.012 117.883 472.364 117.621 475.548C118.408 475.045 119.261 474.207 119.261 474.207C118.605 478.061 117.817 481.999 116.44 485.016C117.227 484.848 117.621 484.597 117.621 484.597C116.637 486.859 114.406 489.373 111.651 490.713C110.798 491.132 109.88 491.383 108.961 491.467C108.83 491.467 108.699 491.467 108.633 491.467H108.437H108.24C107.256 491.383 106.272 491.132 105.288 490.629C105.288 490.629 105.419 490.21 105.681 489.373C105.813 488.954 106.009 488.535 106.206 487.948C106.403 487.445 106.665 486.775 106.928 486.189C107.453 484.848 108.109 483.424 108.896 481.832C109.683 480.324 110.536 478.648 111.52 477.14C112.504 475.632 113.488 474.123 114.472 472.783C115.456 471.442 116.44 470.269 117.358 469.347C117.817 468.845 118.211 468.426 118.539 468.091C118.933 467.672 119.195 467.42 119.523 467.169C119.982 466.415 120.245 466.164 120.245 466.164Z" fill="#A2EC75"/>
<path d="M120.245 466.164C117.621 467.504 114.865 467.839 112.176 468.593C112.635 467.42 113.553 466.247 113.553 466.247C111.848 466.75 110.011 467.588 108.305 468.761C106.6 469.934 105.025 471.61 103.779 473.537C103.779 472.28 103.976 471.526 103.976 471.526C101.942 474.207 100.302 479.653 100.958 484.094C101.089 485.435 101.483 486.691 102.073 487.697C102.139 487.781 102.205 487.948 102.27 488.032L102.401 488.283L102.533 488.451C103.254 489.373 104.107 490.043 105.025 490.629C105.025 490.629 105.157 490.21 105.419 489.373C105.55 488.954 105.747 488.535 105.944 487.948C106.141 487.445 106.403 486.775 106.665 486.189C107.19 484.848 107.846 483.424 108.633 481.832C109.421 480.324 110.273 478.648 111.257 477.14C112.241 475.632 113.225 474.123 114.209 472.783C115.193 471.442 116.177 470.269 117.096 469.347C117.555 468.845 117.949 468.426 118.277 468.091C118.67 467.672 118.933 467.42 119.261 467.169C119.982 466.415 120.245 466.164 120.245 466.164Z" fill="#A2EC75"/>
<path d="M86.1982 479.569C85.411 479.737 84.6238 479.905 83.9022 480.24C84.099 479.653 84.2302 478.983 84.427 478.396C86.723 478.732 88.9534 478.732 91.2494 478.815C90.5934 477.642 89.4126 476.553 89.4126 476.553C93.2174 476.804 97.6782 478.396 100.893 481.832C100.696 480.575 100.368 479.737 100.368 479.737C101.614 480.91 102.992 482.753 103.976 484.932C104.96 487.11 105.681 489.708 105.813 492.054C105.878 493.562 105.747 494.986 105.288 496.243C105.222 496.411 105.157 496.578 105.157 496.746L105.025 496.997L104.894 497.248C104.369 498.505 103.582 499.595 102.664 500.432C97.547 491.97 91.1838 484.68 84.0334 479.15L86.1982 479.569Z" fill="#A2EC75"/>
<path d="M86.1982 479.569C85.4766 479.15 84.755 478.732 84.099 478.229L81.475 476.218L83.5742 480.072C84.8862 482.418 85.6078 485.099 86.1982 487.613C85.2142 487.278 84.1646 486.44 84.1646 486.44C85.4766 490.545 87.051 494.819 89.1502 497.835C88.2318 497.835 87.707 497.667 87.707 497.667C88.4286 498.84 89.6094 499.93 90.987 500.851C92.3646 501.773 93.939 502.527 95.6446 502.778C96.6942 503.03 97.7438 502.946 98.7278 502.695C98.859 502.695 98.9902 502.611 99.1214 502.611C99.187 502.611 99.2526 502.527 99.3838 502.527L99.5806 502.443C100.63 502.024 101.614 501.354 102.533 500.432C97.4158 491.97 91.0526 484.68 83.9022 479.15L86.1982 479.569Z" fill="#A2EC75"/>
<path d="M120.376 508.727C118.473 509.649 117.424 511.576 116.768 513.419C117.03 513.419 117.358 513.336 117.555 513.252C117.817 513.168 117.949 513.168 117.949 513.168C116.833 515.263 116.046 517.525 115.062 518.949C115.521 519.033 115.849 519.033 115.849 519.033C115.128 520.122 113.75 521.044 111.913 521.547C111.389 521.714 110.733 521.798 110.077 521.882C110.011 521.882 109.945 521.882 109.814 521.882H109.683H109.552C108.896 521.798 108.174 521.631 107.453 521.379C107.453 521.379 107.584 521.044 107.715 520.541C107.781 520.29 107.912 519.955 108.043 519.536C108.174 519.201 108.371 518.782 108.568 518.279C108.961 517.357 109.552 516.436 110.208 515.43C110.864 514.509 111.651 513.503 112.504 512.665C113.357 511.827 114.275 511.157 115.193 510.571C116.112 510.068 116.965 509.565 117.752 509.314C118.145 509.146 118.473 509.062 118.801 508.979C119.129 508.895 119.392 508.811 119.654 508.811C120.113 508.727 120.376 508.727 120.376 508.727Z" fill="#A2EC75"/>
<path d="M120.376 508.727C118.408 508.308 116.571 507.554 114.537 507.219C115.128 506.549 116.046 506.13 116.046 506.13C114.734 505.879 113.291 505.879 111.848 506.297C110.405 506.716 108.961 507.638 107.715 508.895C107.912 507.973 108.24 507.47 108.24 507.47C107.256 508.308 106.272 509.733 105.55 511.408C104.829 513.084 104.501 515.011 104.566 516.687C104.632 517.776 104.894 518.614 105.288 519.368C105.353 519.452 105.419 519.536 105.419 519.62L105.55 519.787L105.681 519.955C106.141 520.625 106.797 521.044 107.453 521.379C107.453 521.379 107.584 521.044 107.715 520.541C107.781 520.29 107.912 519.955 108.043 519.536C108.174 519.201 108.371 518.782 108.568 518.279C108.961 517.357 109.552 516.436 110.208 515.43C110.864 514.509 111.651 513.503 112.504 512.665C113.357 511.827 114.275 511.157 115.193 510.571C116.112 510.068 116.965 509.565 117.752 509.314C118.145 509.146 118.473 509.062 118.801 508.979C119.129 508.895 119.392 508.811 119.654 508.811C120.113 508.727 120.376 508.727 120.376 508.727Z" fill="#A2EC75"/>
<path d="M48.8063 481.413C52.6767 480.91 56.0879 479.15 59.7615 477.894C58.5807 476.804 56.8751 476.134 56.8751 476.134C59.1711 475.38 61.7951 474.961 64.4847 475.129C67.1743 475.296 69.8639 476.05 72.2911 477.475C71.7007 475.966 71.0447 475.129 71.0447 475.129C72.9471 475.966 75.0463 477.81 76.8175 480.072C78.6543 482.418 80.0319 485.267 80.6879 488.199C81.1471 490.043 81.2127 491.802 80.9503 493.478C80.9503 493.646 80.8847 493.897 80.8191 494.064C80.8191 494.232 80.7535 494.316 80.7535 494.483L80.6879 494.819V494.902C80.2287 496.578 79.5071 498.086 78.5887 499.427C78.5887 499.427 78.1951 499.008 77.5391 498.254C77.2111 497.835 76.7519 497.416 76.2927 496.913C75.8335 496.41 75.2431 495.824 74.5871 495.237C73.3407 493.981 71.8319 492.724 70.1919 491.383C68.4863 490.126 66.6495 488.786 64.8127 487.697C62.9103 486.607 61.0079 485.602 59.1055 484.764C57.2687 483.926 55.4975 483.256 53.9887 482.837C53.2015 482.586 52.5455 482.418 51.8895 482.25C51.2991 482.083 50.7087 481.915 50.2495 481.832C49.3311 481.496 48.8063 481.413 48.8063 481.413Z" fill="#A2EC75"/>
<path d="M48.8063 481.413C52.4143 483.423 54.6447 487.026 56.4815 490.629C55.8911 490.629 55.2351 490.545 54.7103 490.462C54.1855 490.378 53.8575 490.294 53.8575 490.294C55.1695 492.305 56.5471 494.4 57.9247 496.327C59.3679 498.17 60.7455 499.93 62.3199 501.186C61.3359 501.605 60.6799 501.605 60.6799 501.605C62.8447 503.532 66.7151 504.957 70.7167 504.454C71.9631 504.37 73.1439 503.951 74.3247 503.281C74.4559 503.197 74.5871 503.113 74.7839 503.03C74.8495 502.946 74.9807 502.946 75.0463 502.862L75.3087 502.695H75.3743C76.5551 501.857 77.6703 500.767 78.5887 499.427C78.5887 499.427 78.1951 499.008 77.5391 498.254C77.2111 497.835 76.7519 497.416 76.2927 496.913C75.8335 496.41 75.2431 495.824 74.5871 495.237C73.3407 493.981 71.8319 492.724 70.1919 491.383C68.4863 490.126 66.6495 488.786 64.8127 487.697C62.9103 486.607 61.0079 485.602 59.1055 484.764C57.2687 483.926 55.4975 483.256 53.9887 482.837C53.2015 482.586 52.5455 482.418 51.8895 482.25C51.2991 482.083 50.7087 481.915 50.2495 481.832C49.3311 481.496 48.8063 481.413 48.8063 481.413Z" fill="#A2EC75"/>
<path d="M113.029 555.48C111.192 558.078 110.208 561.178 109.749 564.111C110.536 563.775 111.389 563.105 111.389 563.105C110.864 564.865 110.405 566.708 109.945 568.216C109.749 569.054 109.552 569.808 109.355 570.395C109.158 571.065 109.027 571.568 108.896 572.07C109.552 572.07 109.814 571.986 109.814 571.986C109.617 572.741 109.158 573.327 108.568 573.914C107.978 574.5 107.19 575.003 106.206 575.673C105.616 576.092 104.96 576.511 104.173 577.098C104.107 577.181 103.976 577.265 103.91 577.265L103.713 577.349L103.517 577.433C102.73 577.935 101.811 578.522 100.827 578.857C100.827 578.857 100.827 578.773 100.761 578.522C100.696 578.271 100.63 578.019 100.63 577.6C100.499 576.762 100.434 575.589 100.565 574.165C100.696 572.741 101.024 571.149 101.549 569.557C102.074 567.965 102.861 566.289 103.845 564.865C105.747 561.932 108.109 559.67 109.945 558.078C110.864 557.24 111.651 556.653 112.176 556.235C112.701 555.732 113.029 555.48 113.029 555.48Z" fill="#A2EC75"/>
<path d="M113.029 555.481C110.405 556.57 107.846 556.402 105.157 556.737C105.747 555.648 106.731 554.643 106.731 554.643C105.091 554.81 103.254 555.397 101.352 556.486C100.434 557.072 99.5151 557.743 98.6623 558.664C97.8095 559.586 96.9567 560.675 96.3007 561.932C96.3663 560.592 96.6287 559.586 96.6287 559.586C95.4479 561.262 94.3983 563.859 93.9391 566.876C93.4799 569.808 93.7423 573.076 94.7263 575.506C95.3167 577.014 96.1695 578.019 97.0223 578.606C97.1535 578.69 97.2191 578.773 97.3503 578.773L97.5471 578.857L97.7439 578.941C98.7279 579.276 99.7119 579.192 100.63 578.857C100.63 578.857 100.63 578.773 100.565 578.522C100.499 578.271 100.433 578.019 100.433 577.6C100.302 576.762 100.237 575.589 100.368 574.165C100.499 572.741 100.827 571.149 101.352 569.557C101.877 567.965 102.664 566.289 103.648 564.865C105.55 561.932 107.912 559.67 109.749 558.078C110.667 557.24 111.454 556.654 111.979 556.235C112.701 555.732 113.029 555.481 113.029 555.481Z" fill="#A2EC75"/>
<path d="M64.2879 540.231C66.9119 541.823 69.6015 542.075 72.2255 542.41C71.7663 541.321 70.8479 540.231 70.8479 540.231C74.1279 540.902 77.7359 542.326 80.4255 545.091C80.2943 544.002 80.0319 543.331 80.0319 543.331C82.1311 545.175 84.2959 549.28 84.6895 553.47C84.8207 554.726 84.7551 555.983 84.4927 557.156C84.4927 557.324 84.4271 557.408 84.3615 557.575L84.2959 557.827L84.2303 558.078C83.8367 559.251 83.2463 560.34 82.5247 561.262C82.5247 561.262 78.1295 555.732 73.5375 550.453C69.0111 545.259 64.2879 540.231 64.2879 540.231Z" fill="#A2EC75"/>
<path d="M64.2879 540.231C65.9279 543.248 66.5839 546.599 67.1087 549.867C66.1903 549.448 65.2719 548.442 65.2719 548.442C66.1903 552.464 67.6335 556.737 69.8639 559.754C69.0111 559.754 68.4863 559.502 68.4863 559.502C69.9951 561.848 73.2095 564.194 76.3583 564.446C77.3423 564.53 78.3263 564.446 79.1791 564.027C79.3103 563.943 79.3759 563.943 79.5071 563.859L79.7039 563.775L79.9007 563.692C80.8191 563.189 81.6719 562.435 82.3935 561.429C82.3935 561.429 77.9983 555.899 73.4063 550.621C69.0111 545.259 64.2879 540.231 64.2879 540.231Z" fill="#A2EC75"/>
<path d="M56.744 585.309C60.0896 584.806 63.1072 583.298 66.256 582.041C65.2064 581.119 63.7632 580.617 63.7632 580.617C65.7312 579.863 67.9616 579.444 70.2576 579.444C72.5536 579.444 74.9152 579.946 77.0144 581.036C76.4896 579.779 75.8992 579.108 75.8992 579.108C79.1791 580.365 83.3119 584.722 84.6895 589.666C85.1487 591.174 85.2799 592.682 85.1487 594.19C85.1487 594.358 85.0831 594.525 85.0831 594.693C85.0831 594.777 85.0175 594.944 85.0175 595.028L84.9519 595.363C84.6896 596.871 84.0991 598.212 83.3775 599.469C83.3775 599.469 82.9839 599.134 82.3935 598.547C82.0655 598.212 81.6719 597.877 81.2127 597.458C80.7535 597.039 80.2288 596.62 79.6384 596.117C78.4576 595.196 77.08 594.106 75.5712 593.101C74.0624 592.095 72.4224 591.09 70.7168 590.168C69.0112 589.247 67.3056 588.493 65.6656 587.822C64.0256 587.152 62.5168 586.649 61.1392 586.23C60.4832 586.063 59.8272 585.895 59.3024 585.728C58.7776 585.56 58.2528 585.476 57.8592 585.392C57.2032 585.476 56.744 585.309 56.744 585.309Z" fill="#A2EC75"/>
<path d="M56.744 585.309C59.8928 587.068 61.9264 590.168 63.632 593.268C62.5824 593.352 61.2704 593.017 61.2704 593.017C63.6976 596.536 66.3216 600.139 69.208 602.317C68.3552 602.736 67.7647 602.736 67.7647 602.736C69.7983 604.412 73.4063 605.418 76.8831 604.663C77.9983 604.496 79.0479 603.993 80.0319 603.323C80.1631 603.239 80.2943 603.155 80.4255 603.072L80.6223 602.904L80.8191 602.736C81.8031 601.899 82.7215 600.809 83.4431 599.553C83.4431 599.553 83.0495 599.217 82.4591 598.631C82.1311 598.296 81.7375 597.961 81.2783 597.542C80.8191 597.123 80.2943 596.704 79.7039 596.201C78.5231 595.279 77.1455 594.19 75.6367 593.185C74.1279 592.179 72.4879 591.174 70.7823 590.252C69.0767 589.331 67.3711 588.576 65.7311 587.906C64.0911 587.236 62.5824 586.733 61.2048 586.314C60.5488 586.147 59.8928 585.979 59.368 585.811C58.8432 585.644 58.3184 585.56 57.9248 585.476C57.2032 585.476 56.744 585.309 56.744 585.309Z" fill="#A2EC75"/>
<path d="M67.7647 623.013C69.9295 623.516 71.9631 623.18 74.0623 623.013C73.5375 622.259 72.6847 621.588 72.6847 621.588C75.3087 621.505 78.3918 622.175 80.7534 624.186C80.5566 623.348 80.2943 622.845 80.2943 622.845C82.1311 624.102 84.2302 627.37 84.6894 630.637C84.8206 631.643 84.8207 632.648 84.6239 633.57C84.6239 633.654 84.5583 633.821 84.5583 633.905L84.4926 634.156L84.427 634.324C84.1646 635.246 83.7054 636.084 83.115 636.754C83.115 636.754 82.2623 635.665 80.9503 634.156C79.6383 632.648 77.8015 630.721 75.8335 629.045C73.8655 627.286 71.8975 625.778 70.3231 624.689C68.8799 623.683 67.7647 623.013 67.7647 623.013Z" fill="#A2EC75"/>
<path d="M67.7647 623.013C69.4703 624.856 70.3231 627.202 71.0447 629.465C70.3231 629.297 69.6015 628.794 69.6015 628.794C70.7167 631.559 72.0287 634.408 73.7343 636.335C73.1439 636.419 72.7503 636.335 72.7503 636.335C73.9311 637.759 76.2271 639.1 78.5887 639.184C79.3103 639.184 80.0319 639.1 80.6879 638.765C80.7535 638.765 80.8847 638.681 80.9503 638.681L81.0815 638.597L81.2127 638.514C81.8687 638.095 82.5247 637.508 83.1151 636.838C83.1151 636.838 82.2623 635.749 80.9503 634.24C79.6383 632.732 77.8015 630.805 75.8335 629.129C73.8655 627.37 71.8975 625.862 70.3231 624.772C68.8799 623.683 67.7647 623.013 67.7647 623.013Z" fill="#A2EC75"/>
<path d="M103.517 639.686C102.467 642.2 101.483 644.797 100.433 647.227C100.827 647.143 101.286 646.976 101.614 646.724C101.942 646.557 102.205 646.389 102.205 646.389C101.483 647.981 100.565 649.489 99.5806 650.83C98.5966 652.171 97.6126 653.26 96.6942 654.014C96.9566 654.098 97.219 654.181 97.4158 654.181C97.6126 654.181 97.6782 654.181 97.6782 654.181C96.9566 654.852 96.1038 655.271 95.3166 655.438C94.4638 655.606 93.7422 655.522 92.8238 655.354C92.5614 655.354 92.2334 655.271 91.9054 655.187C91.5774 655.103 91.2494 655.019 90.9214 654.935C90.8558 654.935 90.7246 654.852 90.659 654.852L90.4622 654.768L90.331 654.684C89.6094 654.433 88.8222 654.181 88.035 653.762C88.035 653.762 88.1662 653.427 88.4286 652.841C88.5598 652.506 88.7566 652.171 88.9534 651.835C89.0846 651.668 89.2158 651.416 89.2814 651.249C89.4126 651.081 89.6094 650.83 89.7406 650.662C90.987 648.987 93.1518 647.395 95.3166 646.054C96.4318 645.384 97.4814 644.713 98.531 644.043C99.515 643.373 100.433 642.703 101.221 642.032C101.614 641.697 101.942 641.362 102.205 641.111C102.467 640.859 102.729 640.524 102.926 640.273C103.254 639.938 103.517 639.686 103.517 639.686Z" fill="#A2EC75"/>
<path d="M103.517 639.686C102.533 640.44 101.549 640.776 100.499 640.776C100.237 640.776 99.9742 640.776 99.7774 640.776C99.515 640.776 99.2526 640.692 99.0558 640.692C98.5966 640.608 98.0718 640.524 97.6126 640.44C97.875 640.105 98.1374 639.77 98.3342 639.603C98.531 639.351 98.7278 639.267 98.7278 639.267C97.6126 639.1 96.3662 639.016 95.0542 639.1C93.7422 639.184 92.3646 639.519 90.9214 640.357C91.1182 639.938 91.2494 639.603 91.3806 639.351C91.5118 639.1 91.5774 639.016 91.5774 639.016C90.5934 639.435 89.2814 640.524 88.1006 642.032C86.9198 643.541 85.8046 645.803 85.5422 647.814C85.3454 649.154 85.411 650.327 85.8046 651.249C85.8702 651.333 85.8702 651.5 85.9358 651.584L86.0014 651.752L86.067 651.919C86.5262 652.757 87.1822 653.344 87.9038 653.846C87.9038 653.846 88.035 653.511 88.2974 652.925C88.4286 652.59 88.6254 652.254 88.8222 651.919C88.9534 651.752 89.0846 651.5 89.1502 651.333C89.2814 651.165 89.4782 650.914 89.6094 650.746C90.8558 649.07 93.0206 647.478 95.1854 646.138C96.3006 645.468 97.3502 644.797 98.3998 644.127C99.3838 643.457 100.302 642.786 101.089 642.116C101.483 641.781 101.811 641.446 102.073 641.194C102.336 640.943 102.598 640.608 102.795 640.357C103.254 639.938 103.517 639.686 103.517 639.686Z" fill="#A2EC75"/>
</svg>
