<svg width="784" height="586" viewBox="0 0 784 586" fill="none" xmlns="http://www.w3.org/2000/svg">
<path d="M368.426 491.934C368.426 491.934 378.404 475.742 391.215 485.316C404.026 494.889 427.75 511.043 427.75 511.043C427.75 511.043 432.61 521.375 420.033 517.494C407.456 513.613 366.399 507.368 366.399 507.368L368.426 491.934Z" fill="#FEB8B8"/>
<path d="M89.5687 389.103C92.7485 363.813 108.595 338.895 132.98 330.665C123.363 356.695 123.365 385.251 132.986 411.28C136.733 421.305 141.956 432.07 138.432 442.174C136.239 448.46 130.874 453.27 124.877 456.278C118.88 459.285 112.224 460.719 105.652 462.124L104.358 463.182C93.925 439.88 86.3889 414.393 89.5687 389.103Z" fill="#5AA32D"/>
<path d="M133.222 331.143C119.021 346.881 110.195 366.644 107.997 387.626C107.443 392.135 107.611 396.702 108.494 401.159C109.497 405.473 111.649 409.443 114.727 412.656C117.537 415.709 120.768 418.51 122.778 422.185C123.779 424.082 124.363 426.166 124.492 428.301C124.621 430.436 124.293 432.575 123.528 434.576C121.753 439.61 118.255 443.714 114.693 447.61C110.739 451.935 106.562 456.366 104.881 462.1C104.677 462.794 103.599 462.441 103.802 461.747C106.727 451.771 116.519 446.104 121.188 437.119C123.367 432.926 124.282 428.058 122.239 423.632C120.453 419.762 117.123 416.87 114.252 413.803C111.202 410.712 108.964 406.93 107.733 402.786C106.623 398.388 106.278 393.835 106.712 389.323C107.526 379.148 109.952 369.163 113.902 359.733C118.349 348.947 124.63 338.992 132.471 330.301C132.956 329.763 133.705 330.609 133.222 331.143V331.143Z" fill="white"/>
<path d="M108.303 380.829C104.794 379.986 101.702 377.937 99.579 375.048C97.4563 372.159 96.4411 368.617 96.7146 365.056C96.7725 364.335 97.9071 364.391 97.8491 365.112C97.5882 368.428 98.5342 371.727 100.516 374.413C102.499 377.1 105.387 378.997 108.659 379.762C109.37 379.93 109.01 380.995 108.303 380.829Z" fill="white"/>
<path d="M113.097 411.293C119.435 407.55 124.113 401.582 126.2 394.579C126.406 393.885 127.484 394.238 127.278 394.931C125.093 402.215 120.211 408.416 113.608 412.297C112.978 412.666 112.47 411.661 113.097 411.293V411.293Z" fill="white"/>
<path d="M119.403 350.011C120.692 350.617 122.113 350.897 123.538 350.825C124.964 350.753 126.349 350.333 127.569 349.601C128.194 349.224 128.701 350.23 128.08 350.604C126.728 351.407 125.198 351.869 123.623 351.952C122.048 352.034 120.477 351.734 119.047 351.078C118.907 351.027 118.791 350.925 118.724 350.794C118.657 350.662 118.643 350.51 118.686 350.368C118.734 350.227 118.836 350.111 118.97 350.044C119.104 349.977 119.26 349.965 119.403 350.011V350.011Z" fill="white"/>
<path d="M207.31 375.836C206.927 376.082 206.544 376.329 206.16 376.585C201.024 379.925 196.172 383.672 191.65 387.79C191.295 388.102 190.94 388.425 190.595 388.747C179.808 398.782 170.997 410.71 164.612 423.926C162.076 429.187 159.949 434.632 158.248 440.212C155.9 447.919 153.973 456.46 149.325 462.764C148.847 463.427 148.329 464.061 147.772 464.66H105.764C105.668 464.613 105.572 464.575 105.477 464.528L103.799 464.603C103.867 464.31 103.943 464.006 104.01 463.712C104.049 463.542 104.096 463.371 104.135 463.2C104.163 463.087 104.192 462.973 104.212 462.869C104.221 462.831 104.231 462.793 104.24 462.764C104.259 462.66 104.288 462.565 104.307 462.47C104.729 460.774 105.164 459.077 105.611 457.38C105.611 457.37 105.611 457.37 105.62 457.361C109.061 444.44 113.623 431.69 119.997 420.03C120.189 419.679 120.38 419.319 120.591 418.968C123.493 413.728 126.824 408.732 130.549 404.028C132.598 401.459 134.776 398.995 137.076 396.644C143.032 390.58 149.914 385.481 157.472 381.533C172.538 373.665 189.982 370.65 206.084 375.457C206.495 375.58 206.898 375.703 207.31 375.836Z" fill="#5AA32D"/>
<path d="M207.216 376.363C186.297 380.473 167.22 390.997 152.693 406.44C149.506 409.71 146.86 413.457 144.852 417.541C143.027 421.583 142.328 426.034 142.83 430.433C143.215 434.544 144.09 438.704 143.458 442.836C143.102 444.946 142.3 446.958 141.103 448.74C139.907 450.522 138.343 452.033 136.514 453.175C132.032 456.138 126.741 457.332 121.526 458.321C115.736 459.42 109.704 460.47 104.871 464.048C104.286 464.481 103.64 463.557 104.224 463.124C112.633 456.9 123.9 458.206 133.098 453.813C137.39 451.762 141.083 448.42 142.146 443.67C143.076 439.516 142.178 435.225 141.752 431.066C141.199 426.782 141.714 422.429 143.254 418.388C145.045 414.215 147.54 410.374 150.634 407.03C157.477 399.39 165.493 392.863 174.386 387.686C184.503 381.722 195.577 377.514 207.129 375.243C207.844 375.103 207.926 376.224 207.216 376.363H207.216Z" fill="white"/>
<path d="M157.074 401.195C154.785 398.433 153.564 394.955 153.628 391.384C153.692 387.813 155.037 384.381 157.423 381.701C157.908 381.16 158.78 381.879 158.295 382.421C156.068 384.913 154.815 388.11 154.763 391.436C154.71 394.761 155.861 397.996 158.008 400.556C158.474 401.112 157.538 401.749 157.074 401.195H157.074Z" fill="white"/>
<path d="M142.358 428.374C149.697 429.16 157.065 427.181 162.994 422.831C163.581 422.4 164.227 423.324 163.641 423.755C157.462 428.269 149.79 430.313 142.155 429.479C141.427 429.399 141.634 428.294 142.358 428.374V428.374Z" fill="white"/>
<path d="M184.697 383.199C185.357 384.45 186.321 385.52 187.503 386.311C188.685 387.103 190.047 387.592 191.466 387.734C192.195 387.805 191.987 388.91 191.264 388.84C189.696 388.675 188.192 388.133 186.885 387.261C185.577 386.39 184.505 385.214 183.763 383.838C183.682 383.715 183.652 383.565 183.678 383.42C183.705 383.274 183.787 383.145 183.906 383.057C184.03 382.973 184.183 382.941 184.331 382.967C184.479 382.994 184.61 383.077 184.697 383.199V383.199Z" fill="white"/>
<path d="M708.081 348.525C703.193 309.653 678.836 271.353 641.355 258.703C656.137 298.713 656.133 342.605 641.346 382.613C635.587 398.022 627.559 414.567 632.976 430.097C636.347 439.76 644.593 447.153 653.81 451.776C663.028 456.399 673.258 458.602 683.36 460.761L685.348 462.388C701.385 426.571 712.968 387.397 708.081 348.525Z" fill="#5AA32D"/>
<path d="M640.983 259.438C662.811 283.628 676.377 314.005 679.755 346.255C680.437 353.169 680.519 360.241 678.991 367.055C677.45 373.686 674.142 379.788 669.411 384.727C665.092 389.419 660.126 393.725 657.036 399.374C653.78 405.328 653.654 412.094 655.884 418.419C658.612 426.157 663.988 432.465 669.463 438.453C675.541 445.101 681.961 451.911 684.545 460.724C684.858 461.792 686.515 461.249 686.203 460.183C681.707 444.849 666.657 436.139 659.48 422.327C656.131 415.883 654.725 408.401 657.865 401.598C660.611 395.649 665.728 391.205 670.142 386.491C674.777 381.541 678.33 376.11 680.161 369.557C682.033 362.853 682.23 355.763 681.73 348.863C680.48 333.224 676.751 317.876 670.68 303.383C663.844 286.804 654.191 271.503 642.138 258.143C641.392 257.317 640.242 258.617 640.983 259.438L640.983 259.438Z" fill="white"/>
<path d="M679.286 335.808C684.679 334.512 689.432 331.363 692.694 326.922C695.957 322.481 697.518 317.037 697.097 311.564C697.008 310.456 695.264 310.541 695.353 311.65C695.754 316.746 694.3 321.817 691.254 325.946C688.207 330.075 683.768 332.992 678.738 334.168C677.646 334.425 678.199 336.063 679.285 335.808H679.286Z" fill="white"/>
<path d="M671.917 382.633C662.175 376.88 654.984 367.706 651.777 356.942C651.46 355.875 649.803 356.418 650.12 357.483C653.478 368.679 660.981 378.21 671.132 384.175C672.1 384.743 672.88 383.197 671.917 382.633V382.633Z" fill="white"/>
<path d="M662.224 288.439C660.243 289.37 658.059 289.8 655.868 289.69C653.677 289.58 651.548 288.934 649.672 287.809C648.712 287.229 647.933 288.775 648.887 289.351C650.966 290.584 653.318 291.295 655.738 291.422C658.158 291.549 660.573 291.088 662.772 290.078C662.987 290 663.164 289.844 663.267 289.642C663.37 289.439 663.391 289.206 663.327 288.988C663.253 288.771 663.096 288.592 662.89 288.489C662.683 288.386 662.444 288.368 662.224 288.439V288.439Z" fill="white"/>
<path d="M527.106 328.133C527.696 328.512 528.285 328.891 528.875 329.284C536.768 334.418 544.227 340.178 551.178 346.507C551.723 346.987 552.268 347.483 552.798 347.978C569.379 363.402 582.921 381.737 592.735 402.05C596.633 410.137 599.903 418.505 602.517 427.083C606.127 438.929 609.088 452.057 616.233 461.746C616.967 462.765 617.764 463.739 618.619 464.66H683.188C683.335 464.587 683.482 464.529 683.63 464.456L686.208 464.573C686.104 464.121 685.987 463.655 685.883 463.203C685.824 462.941 685.751 462.679 685.692 462.416C685.648 462.242 685.604 462.067 685.574 461.906C685.56 461.848 685.545 461.79 685.53 461.746C685.501 461.586 685.456 461.44 685.427 461.295C684.778 458.686 684.111 456.078 683.423 453.47C683.423 453.455 683.423 453.455 683.409 453.441C678.12 433.581 671.108 413.983 661.311 396.062C661.017 395.522 660.722 394.969 660.398 394.43C655.937 386.375 650.818 378.695 645.092 371.466C641.943 367.518 638.595 363.729 635.059 360.116C625.906 350.796 615.327 342.958 603.711 336.89C580.552 324.796 553.741 320.163 528.992 327.55C528.359 327.74 527.739 327.929 527.106 328.133Z" fill="#5AA32D"/>
<path d="M527.252 328.943C559.404 335.26 588.728 351.436 611.056 375.174C615.809 380.288 620.179 385.885 623.108 392.236C625.914 398.448 626.987 405.29 626.215 412.051C625.624 418.369 624.279 424.764 625.251 431.115C626.275 437.809 630.293 443.285 635.924 447.007C642.812 451.562 650.945 453.396 658.961 454.917C667.861 456.606 677.132 458.22 684.56 463.718C685.46 464.385 686.453 462.965 685.554 462.299C672.631 452.733 655.312 454.74 641.174 447.987C634.577 444.835 628.901 439.699 627.266 432.397C625.837 426.012 627.218 419.416 627.873 413.024C628.56 406.312 628.092 399.86 625.564 393.537C622.979 387.07 618.82 381.292 614.221 376.08C603.702 364.337 591.382 354.304 577.713 346.347C562.162 337.18 545.141 330.712 527.386 327.222C526.287 327.006 526.16 328.729 527.252 328.943V328.943Z" fill="white"/>
<path d="M604.321 367.111C607.84 362.865 609.717 357.521 609.619 352.032C609.521 346.543 607.453 341.268 603.785 337.147C603.04 336.316 601.699 337.422 602.445 338.255C605.868 342.085 607.794 346.999 607.874 352.111C607.955 357.222 606.186 362.194 602.887 366.129C602.17 366.984 603.609 367.963 604.321 367.112L604.321 367.111Z" fill="white"/>
<path d="M626.941 408.887C615.661 410.094 604.335 407.052 595.222 400.367C594.32 399.704 593.327 401.124 594.228 401.786C603.725 408.725 615.518 411.867 627.253 410.585C628.372 410.462 628.054 408.764 626.941 408.887V408.887Z" fill="white"/>
<path d="M561.865 339.45C560.85 341.374 559.367 343.018 557.551 344.234C555.735 345.451 553.642 346.203 551.459 346.422C550.34 346.531 550.659 348.228 551.771 348.12C554.181 347.867 556.492 347.035 558.502 345.695C560.511 344.355 562.159 342.548 563.3 340.433C563.424 340.243 563.471 340.013 563.43 339.79C563.389 339.566 563.263 339.367 563.079 339.232C562.889 339.103 562.654 339.053 562.427 339.094C562.199 339.135 561.997 339.263 561.865 339.45V339.45Z" fill="white"/>
<path d="M319.407 512.059C308.67 512.059 298.841 511.041 291.032 508.636C281.749 505.777 275.921 501.154 273.707 494.885C272.666 492.223 272.355 489.337 272.806 486.518C273.257 483.699 274.453 481.048 276.273 478.834C290.005 461.136 337.657 456.144 344.051 455.554L357.022 431.261C357.852 425.464 353.925 421.076 360.71 420.966L440.964 419.888C447.627 419.75 445.736 423.831 446.877 429.482L459.104 451.072L406.48 473.039L414.436 492.215L413.917 492.513C398.515 501.349 354.223 512.057 319.407 512.059Z" fill="#2F2E41"/>
<path d="M451.819 451.993C451.819 451.993 525.312 443.675 520.519 476.949C515.726 510.223 459.807 533.793 375.13 476.949L384.716 460.312C384.716 460.312 416.271 458.759 435.443 450.441L451.819 451.993Z" fill="#2F2E41"/>
<path d="M347.772 301.248C347.772 301.248 333.804 298.736 329.994 320.087C326.184 341.439 320.082 392.015 320.082 392.015L301.135 456.983C298.9 458.157 297.049 459.935 295.798 462.11C294.546 464.285 293.947 466.767 294.069 469.266C294.19 471.766 295.029 474.18 296.486 476.226C297.943 478.271 299.958 479.865 302.297 480.82C304.635 481.776 307.2 482.053 309.692 481.62C312.184 481.188 314.5 480.063 316.37 478.377C318.239 476.69 319.585 474.513 320.251 472.099C320.916 469.684 320.873 467.132 320.126 464.741L345.479 395.788L350.311 336.42V305.312C350.311 304.468 350.074 303.641 349.625 302.923C349.177 302.205 348.535 301.625 347.772 301.248V301.248Z" fill="#FEB8B8"/>
<path d="M446.092 301.248C446.092 301.248 460.06 298.736 463.87 320.087C467.679 341.439 473.782 392.015 473.782 392.015L492.729 456.983C494.964 458.157 496.815 459.935 498.066 462.11C499.317 464.285 499.917 466.767 499.795 469.266C499.673 471.766 498.835 474.18 497.378 476.226C495.921 478.271 493.906 479.865 491.567 480.82C489.229 481.776 486.664 482.053 484.172 481.62C481.68 481.188 479.364 480.063 477.494 478.377C475.624 476.69 474.278 474.513 473.613 472.099C472.948 469.684 472.991 467.132 473.737 464.741L448.385 395.788L443.552 336.42V305.312C443.552 304.468 443.79 303.641 444.238 302.923C444.687 302.205 445.329 301.625 446.092 301.248V301.248Z" fill="#FEB8B8"/>
<path d="M445.027 283.599L418.606 273.825L367.394 273.171L345.35 283.599L351.541 318.793C351.541 318.793 339.041 339.729 352.804 360.667L355.893 435.273C355.893 435.273 405.268 463.592 446.944 429.586L437.524 360.219C437.524 360.219 453.28 328.036 441.068 316.079L445.027 283.599Z" fill="#9A95F5" fill-opacity="0.97"/>
<path d="M434.266 294.536L445.027 283.599C445.027 283.599 468.513 295.818 468.03 336.685L438.403 327.654L434.266 294.536Z" fill="#9A95F5" fill-opacity="0.97"/>
<path d="M357.305 294.536L345.872 283.227C345.872 283.227 325.697 298.661 326.181 339.529L353.168 327.654L357.305 294.536Z" fill="#9A95F5" fill-opacity="0.97"/>
<path d="M431.836 483.849C431.836 483.849 423.607 466.722 409.862 474.933C396.118 483.143 370.83 496.78 370.83 496.78C370.83 496.78 364.915 506.559 377.831 503.987C390.746 501.415 432.236 499.408 432.236 499.408L431.836 483.849Z" fill="#FEB8B8"/>
<path d="M408.972 177.695C409.088 177.585 409.21 177.486 409.325 177.372C416.679 170.098 418.17 159.779 412.654 154.323C407.441 149.168 397.84 150.208 390.593 156.477C384.38 150.625 376.048 148.994 370.655 153.033C364.436 157.691 364.484 168.115 370.764 176.316C371.193 176.878 371.645 177.409 372.108 177.92C363.752 180.945 356.538 186.436 351.441 193.649C346.344 200.863 343.61 209.451 343.611 218.252V259.129C343.611 260.327 343.849 261.514 344.313 262.621C344.777 263.729 345.457 264.735 346.314 265.583C347.17 266.43 348.188 267.102 349.307 267.561C350.427 268.02 351.627 268.256 352.839 268.256H429.222C431.587 268.256 433.856 267.327 435.528 265.672C437.201 264.018 438.141 261.774 438.141 259.435V218.252C438.139 209.333 435.33 200.636 430.103 193.368C424.876 186.1 417.49 180.622 408.972 177.695Z" fill="#503730"/>
<path d="M417.712 253.678C431.867 239.677 431.867 216.978 417.712 202.978C403.557 188.978 380.607 188.978 366.452 202.978C352.297 216.978 352.297 239.677 366.452 253.678C380.607 267.678 403.557 267.678 417.712 253.678Z" fill="#FFB6B6"/>
<path d="M353.996 205.778C362.279 211.425 372.11 214.43 382.169 214.39C378.581 216.851 374.496 218.513 370.195 219.262C383.57 222.1 397.393 222.176 410.799 219.488C413.779 219.015 416.654 218.038 419.299 216.6C420.617 215.872 421.765 214.878 422.669 213.682C423.573 212.487 424.212 211.116 424.546 209.66C425.437 204.626 421.471 200.053 417.35 196.971C411.04 192.325 403.765 189.123 396.051 187.598C388.337 186.074 380.377 186.264 372.746 188.156C367.764 189.429 362.772 191.582 359.536 195.539C356.3 199.497 355.341 205.598 358.424 209.674L353.996 205.778Z" fill="#503730"/>
<path d="M160.125 134.238L161.268 132.715L191.697 155.04C190.043 150.055 184.19 134.252 174.595 127.947C163.132 120.414 155.067 122.757 150.673 129.298C146.279 135.84 147.22 144.101 158.683 151.634C168.4 158.02 185.71 157.132 190.76 156.713L160.125 134.238Z" fill="#A2EC75"/>
<path d="M617.968 12.0127L619.38 13.2948L593.767 40.9066C598.951 39.7983 615.451 35.6841 622.789 26.9009C631.556 16.4081 630.039 8.23075 623.918 3.22808C617.798 -1.77458 609.392 -1.70833 600.625 8.7846C593.193 17.679 592.286 34.7993 592.182 39.8107L617.968 12.0127Z" fill="#A2EC75"/>
<path d="M204.882 306.83L206.295 308.112L180.681 335.724C185.866 334.616 202.365 330.502 209.704 321.718C218.47 311.226 216.953 303.048 210.833 298.046C204.712 293.043 196.307 293.109 187.539 303.602C180.108 312.497 179.2 329.617 179.096 334.628L204.882 306.83Z" fill="#A2EC75"/>
<path d="M421.466 43.6539L423.126 44.6037L404.151 77.0382C408.971 74.8478 424.181 67.3038 429.427 57.1596C435.694 45.0406 432.426 37.381 425.357 33.8049C418.288 30.2287 410.095 32.0902 403.828 44.2093C398.516 54.4821 401.371 71.3918 402.364 76.3071L421.466 43.6539Z" fill="#A2EC75"/>
<path d="M598.777 246.519L600.436 247.468L581.461 279.903C586.281 277.713 601.492 270.169 606.738 260.024C613.004 247.905 609.736 240.246 602.667 236.67C595.598 233.094 587.406 234.955 581.139 247.074C575.826 257.347 578.681 274.257 579.674 279.172L598.777 246.519Z" fill="#A2EC75"/>
</svg>
