<svg width="783" height="631" viewBox="0 0 783 631" fill="none" xmlns="http://www.w3.org/2000/svg">
<path d="M381.111 200.82C384.047 194.648 387.627 189.001 391.171 183.388C402.498 199.683 419.81 236.233 424.155 250.173L424.472 250.247C425.469 253.505 429.447 263.119 434.39 280.052C443.893 311.761 448.57 344.309 448.9 376.205C451.348 365.609 451.349 362.595 451.349 344.487C451.235 342.512 450.694 340.596 451.02 338.644C451.66 334.807 450.051 330.471 450.207 325.868C450.127 325.697 449.611 317.963 450.147 315.101C450.594 314.108 450.058 312.202 449.921 311.871C449.6 311.095 449.774 310.714 449.319 307.636C447.449 294.993 442.153 290.533 440.693 272.864C440.347 268.677 440.532 262.84 440.956 256.932C438.59 250.807 436.021 244.91 433.259 239.263C437.108 235.422 440.959 231.582 444.809 227.741C444.875 227.199 444.939 226.657 444.996 226.113C445.081 225.298 445.01 224.127 445.247 223.372C446.759 218.549 445.308 219.703 446.67 217.249C447.152 216.382 447.414 215.518 448.218 212.144C450.105 204.226 450.399 199.783 450.93 196.274C444.318 203.051 438.14 209.984 432.995 216.132C426.748 204.595 420.052 193.45 412.874 182.846C410.687 178.616 414.578 148.211 426.827 111.431C426.656 110.583 426.486 109.734 426.315 108.886C426.234 108.871 426.154 108.855 426.073 108.839C425.929 108.083 425.784 107.328 425.64 106.572C425.72 106.572 425.8 106.571 425.88 106.57C425.716 106.552 425.329 104.532 425.244 104.258C424.871 103.062 424.578 101.862 424.451 100.577C424.589 100.538 424.727 100.499 424.864 100.46C424.576 98.8691 423.862 97.4123 422.872 96.3938C423.019 96.1769 423.346 96.2741 423.405 96.5516C423.56 96.4641 423.715 96.3769 423.87 96.2894C423.307 95.5109 422.849 94.6061 422.52 93.6291C421.93 91.876 422.619 92.4856 422.644 92.1478C422.66 91.9286 422.422 91.866 422.408 91.7147C422.369 91.3151 422.05 91.1796 421.828 90.9815C421.315 89.932 420.192 89.18 419.674 88.4591C419.389 88.3332 419.059 88.2694 418.859 87.952C418.231 87.2149 417.283 87.3677 416.638 86.6725C415.762 85.9113 413.921 86.1282 413.314 85.5543C413.22 85.5282 411.651 84.6445 410.294 85.0986C409.696 85.013 409.092 85.2318 408.509 85.4076C408.478 85.4602 408.416 85.5665 408.385 85.6203C408.335 85.618 408.236 85.613 408.187 85.6107C407.924 85.2598 407.579 84.9961 407.195 84.9715C406.78 84.9335 406.379 84.6207 405.961 84.8065C405.465 85.0168 404.9 84.7869 404.444 85.1619C404.097 85.4065 403.69 85.1216 403.339 85.3001C402.474 85.8022 401.268 85.9182 400.334 86.213C400.116 86.8687 399.558 87.3082 399.006 87.2595C398.51 87.8046 398.014 88.3501 397.517 88.8952C396.981 90.1854 395.58 91.5581 394.773 93.4349C394.713 93.5743 394.054 95.451 394.07 95.6077C394.106 95.9485 394.516 96.0341 393.991 96.934C393.192 98.304 391.902 101.494 393.229 100.947C393.256 101.063 393.243 101.164 393.239 101.288C393.295 101.294 393.407 101.308 393.463 101.314C393.427 102.068 392.978 102.61 392.833 103.314C392.773 103.655 392.527 103.852 392.418 104.161C392.377 104.264 392.313 104.339 392.23 104.386C392.179 104.687 392.126 104.986 392.095 105.292C392.052 105.341 391.963 105.438 391.92 105.486C391.913 105.645 391.908 105.805 391.905 105.966C391.985 105.961 392.146 105.952 392.227 105.946C392.204 106.383 391.962 106.72 391.886 107.137C391.767 107.771 391.777 108.447 391.577 109.056C391.504 109.324 391.544 109.617 391.509 109.895C391.289 110.625 391.323 111.427 391.168 112.179C391.03 112.817 391.051 113.483 391.05 114.138C391.07 114.399 390.835 114.516 390.792 114.746C390.924 115.347 390.819 115.971 390.844 116.586C390.792 116.708 389.115 118.411 389.31 121.349C389.345 121.754 389.441 122.147 389.443 122.557C389.448 123.026 389.401 123.513 389.541 123.961C390.008 125.565 389.255 127.888 390.666 130.042C391.044 130.409 391.367 130.905 391.839 131.08C392.79 131.369 393.807 131.336 394.73 130.906C394.864 131.082 394.977 131.283 395.082 131.493C395.976 131.473 395.11 132.756 396.95 137.433C397.074 137.748 397.186 138.116 397.351 138.4C397.54 138.728 397.756 138.898 397.813 139.338C397.911 140.101 397.552 141.163 397.735 142.885C397.735 142.885 398.869 148.143 399.285 151.209C399.636 153.793 399.698 152.794 399.03 158.556C398.686 161.527 397.777 164.479 397.002 166.899C395.811 169.823 395.634 168.383 394.973 168.928C394.722 169.122 394.441 169.226 394.16 169.312C393.951 169.584 393.658 169.673 393.394 169.82C393.166 169.974 392.973 170.2 392.781 170.418C392.166 170.26 392.418 169.947 390.641 171.357C390.257 171.627 389.937 172.016 389.645 172.431C389.483 172.664 389.307 173.106 389.061 173.207C388.784 173.32 388.439 173.109 388.136 173.193C387.556 173.353 386.915 174.097 386.425 173.408C385.759 172.471 384.897 170.239 383.449 167.965C382.692 166.933 382.022 165.805 381.272 164.769C380.478 163.564 378.112 161.022 375.903 158.141C364.999 143.922 369.28 152.894 363.076 131.653C359.918 120.437 356.777 114.633 357.16 109.593C358.368 103.324 375.206 86.3923 379.139 82.7251C384.2 78.0352 405.343 62.7515 405.438 62.705C405.494 62.7001 405.606 62.6893 405.663 62.6843C406.02 62.1308 405.985 61.3242 406.367 60.778C406.424 60.7595 406.537 60.7204 406.593 60.7008C406.718 60.2463 407.146 60.2571 407.453 60.1814C407.597 59.9737 407.728 59.7511 407.858 59.5265C408.211 60.0129 408.265 60.6448 409.418 60.6448C409.425 60.7158 409.439 60.8586 409.446 60.9308C409.505 60.9565 409.622 61.0102 409.682 61.0359C412.478 66.0191 424.157 69.3281 438.946 79.8967C441.092 75.0107 443.381 70.1108 445.818 65.2356C436.701 61.2805 428.904 58.6989 428.844 58.6751C423.549 57.3093 421.795 54.5611 419.739 53.953C419.151 53.7188 419.352 54.2313 418.035 51.6336C416.772 48.5008 415.589 43.1107 415.476 42.4631C413.693 34.9794 412.684 30.2416 412.684 22.4684C412.685 21.9272 412.498 21.4323 412.377 20.9264C411.946 20.3225 412.236 20.2431 411.866 17.1955C411.576 16.1728 411.911 15.2131 411.556 13.0684C411.565 12.4684 411.359 11.9049 411.378 11.306C411.501 10.8001 411.501 10.1951 411.381 9.68911C411.394 9.19429 411.195 8.76281 410.951 8.4035C410.488 8.34362 410.112 8.71867 409.768 9.0584C409.425 9.4227 409.304 9.99314 409.183 10.5187C409.034 10.4185 408.896 10.2976 408.804 10.1156C408.652 9.81349 407.652 8.75897 407.399 9.81349C407.2 10.6446 407.057 11.4945 406.896 12.3386C406.82 12.7348 406.789 13.6408 406.586 13.9628C406.586 13.9628 406.23 16.1379 406.088 16.8611C405.929 17.6684 405.59 18.5406 405.505 19.3582C405.211 22.1936 404.552 21.0327 404.091 25.2988C403.714 32.194 402.396 35.5675 402.321 35.8501C401.254 39.5959 399.719 49.2336 396.542 54.4451C396.318 54.7856 395.173 54.948 394.23 55.6025C392.34 56.8098 391.701 58.3634 387.259 60.5914C368.89 69.8053 355.097 79.8295 347.034 86.6318C359.061 115.531 367.997 148.173 371.292 180.945C369.516 183.634 367.755 186.343 366.012 189.071C369.019 196.001 369.55 192.77 372.863 210.028C373.43 212.979 373.445 213.732 373.822 214.853C376.094 210.125 378.448 205.48 380.882 200.93L381.111 200.82Z" fill="url(#paint0_linear_6_2)"/>
<path d="M337.23 360.657C331.936 365.831 326.843 371.107 322.976 375.255C322.991 376.212 323.009 377.17 323.032 378.129C323.797 396.708 326.835 415.704 330.929 433.699C331.912 434.189 333.662 435.064 333.784 435.147C334.167 435.252 334.311 435.347 334.538 435.51C334.885 435.535 335.616 436.048 336.149 436.171C336.788 436.608 339.93 437.838 343.376 439.124C340.034 423.167 337.798 406.386 337.075 389.101C336.754 379.535 336.816 370.047 337.23 360.657Z" fill="url(#paint1_linear_6_2)"/>
<path d="M414.359 578.061C414.346 577.973 414.332 577.894 414.315 577.834C413.999 575.087 414.237 575.796 414.41 573.586C415.019 565.807 415.323 567.604 416.21 562.127C416.246 562.12 416.319 562.105 416.355 562.099C416.203 561.713 416.41 561.321 416.389 560.926C416.699 560.578 416.847 560.605 417.429 560.223C413.468 561.69 410.192 562.698 407.757 563.264C408.456 562.226 413.235 557.953 420.463 550.49C421.059 547.695 421.755 544.005 421.755 544.005C422.411 541.75 424.649 532.075 425.349 528.998C424.794 529.584 424.369 530.012 424.093 530.272C424.593 529.156 425.087 528.038 425.576 526.921C425.568 526.319 425.556 525.718 425.657 525.127C426.016 521.555 427.267 519.661 427.456 517.8C427.746 513.517 428.936 509.988 429.076 508.02C429.112 506.637 429.296 505.274 429.502 503.919C430.125 498.231 430.428 493.857 430.576 490.169C423.777 509.492 415.183 527.607 404.952 544.022C404.862 544.765 404.703 545.497 404.71 546.257C404.554 546.911 404.739 548.493 404.183 549.982C403.978 550.999 403.619 550.66 402.927 551.941C402.923 552.178 402.923 552.42 402.928 552.669C403.735 554.722 404.821 555.34 405.215 557.558C405.384 557.83 405.469 558.226 405.316 558.549C405.316 558.549 404.83 560.874 404.83 560.874C404.795 561.192 404.883 561.558 404.736 561.849C404.711 562.169 404.769 562.521 404.649 562.827C404.634 562.932 404.621 563.046 404.609 563.169C404.605 563.18 404.262 564.834 404.242 565.014C404.182 565.13 404.124 565.253 404.067 565.381C404.063 565.442 404.056 565.563 404.052 565.624C403.712 566.27 403.275 568.073 403.239 568.196C402.18 571.647 402.174 570.576 400.846 573.692C400.843 573.753 400.836 573.876 400.833 573.937C400.772 574.052 400.712 574.173 400.655 574.301C400.652 574.362 400.645 574.486 400.641 574.547C400.482 574.861 400.19 575.844 400.156 576.019C400.102 576.134 400.048 576.254 399.995 576.38C399.994 576.685 399.971 576.998 399.894 577.298C399.687 578.085 399.87 578.928 399.774 579.738C399.696 580.069 399.695 580.417 399.689 580.766C399.67 580.818 399.633 580.92 399.615 580.971C399.612 582.335 399.502 583.69 399.404 585.045C399.281 585.277 399.34 585.566 399.295 585.837C398.593 589.771 398.633 586.849 398.568 591.601C398.573 591.724 398.298 594.26 398.591 595.556C398.613 595.613 399.204 599.202 399.261 599.962C399.253 600.008 399.236 600.101 399.227 600.148C399.344 600.449 399.326 600.789 399.321 601.125C399.3 601.595 399.446 602.044 399.433 602.521C399.551 602.748 399.526 606.395 399.525 606.517C399.669 607.107 399.672 609.264 399.788 609.694C399.975 610.405 399.566 611.051 399.601 611.759C399.593 612.654 399.893 614.558 399.964 614.831C401.044 617.602 399.969 616.482 401.142 620.388C401.814 622.385 403.811 622.045 405.761 622.408C406.25 622.547 406.665 622.119 407.089 621.887C408.194 621.247 407.928 621.246 408.499 619.227C408.65 618.719 408.479 618.126 408.732 617.664C408.899 617.213 409.577 616.809 409.858 618.095C409.976 618.657 409.887 619.245 409.924 619.822C410.562 621.951 410.056 621.079 411.204 622.116C412.909 623.529 414.022 621.486 414.748 620.767C415.249 620.666 415.769 620.792 416.277 620.749C417.359 620.482 416.961 619.221 417.627 618.922C418.057 618.779 418.503 619 418.938 618.862C419.301 618.881 419.521 618.464 419.739 618.157C419.913 617.641 419.613 616.488 420.261 616.453C421.809 616.154 422.52 616.844 422.852 616.182C423.471 614.235 422.873 610.215 419.402 606.383C418.53 605.42 419.843 606.037 415.214 601.648C413.714 600.479 413.872 598.127 413.42 595.944C413.313 595.583 413.348 595.185 413.228 594.833C412.94 593.787 412.993 594.008 412.954 593.74C412.745 593.232 412.32 591.033 412.32 591.033C412.308 589.914 412.477 589.376 412.671 588.973C412.719 588.764 412.763 588.557 412.798 588.353C412.85 588.225 412.905 588.102 412.963 587.989C412.967 587.929 412.976 587.808 412.98 587.747C413.068 587.538 413.154 587.332 413.245 587.132C413.25 587.072 413.258 586.952 413.263 586.892C413.316 586.765 413.371 586.645 413.425 586.53C413.478 586.067 413.786 585.755 413.846 585.301C414.251 584.259 414.441 583.766 414.525 583.321C407.881 581.743 404.024 580.694 403.932 580.656C407.393 579.921 410.873 579.05 414.359 578.061Z" fill="url(#paint2_linear_6_2)"/>
<path d="M361.877 177.833C356.253 162.593 352.877 160.153 347.507 140.151C339.145 109.005 342.135 116.965 340.635 110.232C340.411 109.227 340.03 108.326 339.757 107.353C337.438 95.3915 337.904 95.6695 338.941 94.5616C339.341 93.7194 342.127 90.7723 347.035 86.6322C338.508 66.1454 328.429 47.5384 317.7 32.1046C304.074 49.6739 281.348 94.5631 270.996 127.599C259.669 165.027 262.448 210.646 271.966 248.594C272.672 246.472 278.874 197.19 298.893 168.509C316.004 178.567 337.149 200.664 350.005 216.138C355.021 206.806 360.418 197.83 366.012 189.072C365.654 188.248 365.262 187.281 364.825 186.117C363.799 183.382 362.887 180.578 361.877 177.833Z" fill="url(#paint3_linear_6_2)"/>
<path d="M462.216 73.4701C462.31 73.5615 477.541 82.4276 479.059 84.5178C479.862 85.4805 480.288 87.3001 480.214 87.5362C480.086 88.1435 480.261 88.79 480.11 89.39C478.902 94.2 478.183 98.876 478.047 103.901C478.029 104.584 471.529 141.48 464.233 157.626C461.912 162.761 457.79 176.81 457.752 176.935C455.145 185.193 456.892 182.052 453.156 189.143C451.823 191.673 451.314 193.729 450.929 196.275C461.688 185.249 473.6 174.641 484.102 168.515C503.458 195.486 510.448 246.637 511.043 248.577C520.82 210.055 523.687 161.34 510.431 122.764C495.848 81.6698 477.429 48.2059 465.286 32.0984C457.96 42.6746 451.49 53.887 445.818 65.2359C451.163 67.5549 456.96 70.3454 461.919 73.3711C462.014 73.4102 462.112 73.4433 462.216 73.4701Z" fill="url(#paint4_linear_6_2)"/>
<path d="M426.801 111.809C426.958 112.716 427.16 113.609 427.407 114.482C427.6 115.162 428.075 115.991 428.085 116.707C428.203 117.437 428.029 118.164 428.051 118.898C428.061 119.234 427.877 119.526 427.909 119.863C428.013 121.38 427.675 122.883 427.785 124.4C427.812 126.967 427.448 127.611 426.377 128.847C426.047 129.228 424.525 129.991 424.545 129.068C424.522 128.946 424.344 128.946 424.331 129.278C424.252 131.193 424.112 133.065 423.564 134.869C423.2 136.067 422.678 137.632 421.843 138.406C421.694 138.609 421.252 139.634 420.762 139.946C420.666 142.889 418.973 153.034 419.787 156.194C420.334 159.447 422.195 163.74 424.498 166.109C424.784 166.404 425.193 166.186 425.504 166.414C426.116 166.938 426.899 167.049 427.461 167.684C427.735 167.956 428.089 167.983 428.413 168.093C428.737 168.208 428.997 168.494 429.291 168.693C430.783 169.629 430.561 169.75 431.217 170.899C431.305 171.04 431.397 171.225 431.554 171.247C431.916 171.339 433.602 171.949 434.241 170.66C436.101 166.993 445.778 152.259 445.869 152.137C452.849 141.38 451.884 143.161 456.874 122.987C461.466 103.85 464.17 103.485 457.604 96.4057C451.136 89.3965 444.798 84.079 438.946 79.897C434.236 90.6168 430.212 101.267 426.827 111.432C426.853 111.56 426.879 111.689 426.905 111.817C426.87 111.814 426.835 111.812 426.801 111.809Z" fill="url(#paint5_linear_6_2)"/>
<path d="M263.058 291.463C251.486 260.232 245.08 227.347 248.971 178.709C249.744 174.96 204.281 112.374 143.62 86.4986C140.309 145.01 152.557 213.464 168.742 251.602C193.616 252.574 226.595 263.825 263.058 291.463Z" fill="url(#paint6_linear_6_2)"/>
<path d="M529.564 284.15C552.884 267.417 585.764 252.991 614.254 251.602C630.334 214.197 642.743 144.727 639.38 86.4986C606.536 100.266 562.085 134.235 534.096 177.689C533.974 188.679 541.305 234.232 519.951 291.451C523.2 289.117 526.275 286.398 529.564 284.15Z" fill="url(#paint7_linear_6_2)"/>
<path d="M315.014 427.607C314.968 427.6 314.874 427.585 314.828 427.578C313.646 426.633 306.989 423.504 304.845 418.781C303.068 415.722 303.01 414.111 302.85 413.585C302.87 412.853 302.783 412.111 302.779 411.381C302.725 402.044 303.969 398.966 307.836 393.588C307.931 393.479 314.827 383.961 316.637 382.339C317.665 381.067 319.944 378.508 322.976 375.255C322.132 321.291 334.153 270.75 349.746 239.269C334.362 223.906 318.974 208.542 303.551 193.242C285.076 231.674 278.061 290.627 279.211 337.213C281.596 412.308 320.07 485.773 363.471 530.266C362.556 527.537 342.515 484.628 330.929 433.699C330.56 433.515 330.299 433.385 330.273 433.373C325.039 430.9 320.146 431.116 315.014 427.607Z" fill="url(#paint8_linear_6_2)"/>
<path d="M443.949 233.344C443.425 234.243 441.76 245.714 440.956 256.932C468.277 327.651 468.556 428.829 425.576 526.921C425.581 527.299 425.585 527.678 425.56 528.054C425.558 528.073 425.48 528.42 425.349 528.998C433.395 520.493 469.196 478.1 489.595 416.428C516.293 335.173 500.955 238.394 479.45 193.242C467.892 204.719 456.348 216.227 444.809 227.741C444.72 228.465 444.625 229.188 444.519 229.908C444.356 231.017 443.957 232.216 443.949 233.344Z" fill="url(#paint9_linear_6_2)"/>
<path d="M220.814 464.639C200.328 432.795 184.29 403.544 172.094 359.048C158.484 309.321 160.263 275.589 160.044 269.841C152.973 251.548 110.137 209.872 73.4153 201.684C65.934 262.018 78.1431 316.959 102.35 368.885C122.508 412.719 182.057 452.142 220.814 464.639Z" fill="url(#paint10_linear_6_2)"/>
<path d="M623.479 268.677C622.567 269.91 622.991 271.731 622.902 273.258C624.182 343.27 597.203 410.844 562.186 464.634C600.981 452.064 651.437 417.007 673.834 381.425C687.057 361.107 720.078 287.547 709.589 201.679C706.506 202.079 655.311 216.706 623.479 268.677Z" fill="url(#paint11_linear_6_2)"/>
<path d="M175.616 271.933C177.94 312.194 179.767 368.161 214.602 429.314C263.43 514.266 349.11 557.386 375.243 563.263C374.859 562.687 256.095 456.796 265.047 313.136C260.06 307.63 224.536 279.151 175.616 271.933Z" fill="url(#paint12_linear_6_2)"/>
<path d="M419.145 557.619C419.061 558.199 419.359 558.66 418.703 559.052C418.442 559.222 418.287 559.558 418.053 559.774C417.799 559.971 417.597 560.113 417.43 560.223C457.77 545.286 569.66 482.546 598.397 350.946C604.166 325.255 606.231 298.504 607.38 271.892C578.805 275.062 537.511 294.224 517.949 313.142C519.781 340.382 515.482 367.692 508.983 393.52C487.589 474.98 442.567 527.666 420.463 550.49C420.245 551.514 420.04 552.418 419.887 552.976C419.527 554.49 419.408 556.075 419.145 557.619Z" fill="url(#paint13_linear_6_2)"/>
<path d="M402.178 361.515C382.223 372.301 382.048 378.593 355.421 396.291C349.312 400.745 349.819 400.708 346.367 404.535C346.118 404.824 345.806 405.03 345.601 405.381C345.53 405.671 345.455 405.655 349.264 407.94C349.949 408.372 350.69 407.924 351.684 409.333C352.059 409.875 353.896 410.806 356.086 412.578C359.421 414.977 359.034 414.991 359.758 415.544C361.794 417.195 362.495 418.273 363.137 418.397C364.476 418.682 364.584 419.769 365.011 420.378C366.214 421.63 366.58 420.965 367.339 421.803C367.635 422.111 367.906 422.491 368.286 422.632C369.789 423.242 368.94 423.499 371.912 425.311C372.351 425.573 372.72 425.989 373.156 426.261C373.901 426.817 374.774 427.012 375.493 427.638C377.923 429.665 378.594 428.402 379.512 429.577C380.26 430.579 381.307 431.073 382.326 431.427C382.647 431.533 382.979 431.448 383.306 431.472C384.399 431.514 384.119 433.503 384.492 434.258C384.647 434.389 386.057 435.23 386.782 435.556C386.821 435.595 386.899 435.674 386.939 435.714C389.548 436.723 397.843 442.075 402.742 440.068C403.228 439.861 403.746 439.934 404.251 439.908C408.239 439.933 408.29 439.727 409.907 440.701C410.036 440.754 410.172 440.863 410.316 440.811C410.316 440.811 411.037 429.043 412.559 414.289C413.48 406.158 413.105 382.211 412.833 380.063C411.95 369.577 405.605 359.406 402.178 361.515Z" fill="url(#paint14_linear_6_2)"/>
<path d="M405.274 538.441C405.398 534.561 405.855 538.23 405.574 528.536C405.484 526.543 406.577 525.936 406.146 523.169C406.138 523.046 406.362 520.255 406.163 519.012C406.122 518.071 406.155 517.127 406.148 516.188C406.176 515.738 405.713 509.934 406.081 508.556C406.859 505.485 407.17 505.488 407.054 504.97C406.902 504.293 405.969 504.418 405.789 503.752C405.708 503.451 405.827 503.129 405.858 502.813C405.929 502.087 404.814 501.727 404.459 501.259C404.097 500.834 404.049 500.162 403.973 499.579C404.004 498.018 403.218 497.637 403.556 495.396C403.557 495.394 403.698 492.842 403.712 492.753C404.135 490.144 402.936 488.741 399.917 482.536C397.34 477.733 398.372 481.077 396.481 475.141C395.636 472.956 394.674 470.839 393.565 468.86C390.254 463.171 379.185 454.839 379.09 454.757C378.68 454.622 378.029 453.972 377.047 453.503C376.679 453.732 376.319 453.982 375.957 454.227C375.67 454.243 375.359 454.273 375.115 454.043C371.993 451.235 367.231 448.538 366.48 448.015C366.434 448.006 366.34 447.989 366.294 447.982C365.63 447.49 362.301 446.139 361.548 445.844C359.797 444.924 357.863 444.917 357.016 444.752C355.933 444.553 355.646 443.653 353.592 442.824C353.537 442.804 348.164 440.91 343.376 439.124C354.118 490.416 376.297 533.181 396.486 556.694C399.421 552.595 402.243 548.367 404.952 544.022C404.954 544.005 404.957 543.989 404.958 543.972C405.018 543.641 405.119 539.059 405.274 538.441Z" fill="url(#paint15_linear_6_2)"/>
<path d="M369.215 334.764C369.652 334.111 372.217 330.86 373.04 330.804C373.574 329.88 374.441 328.042 375.808 326.633C376.226 326.269 376.419 325.59 376.9 325.322C377.549 324.96 378.872 325.134 378.837 323.63C378.81 322.488 376.944 321.97 377.922 319.428C378.501 317.924 379.009 316.293 379.781 314.937C380.41 313.833 380.807 313.781 380.728 311.482C380.619 308.334 380.379 303.424 381.333 299.932C385.508 284.635 385.702 287.084 385.235 276.597C384.283 255.204 381.615 246.212 380.948 243.348C380.919 243.225 378.524 233.127 378.537 232.668C378.514 232.546 377.925 228.8 377.516 227.353C376.433 223.525 375.372 223.144 375.322 221.476C375.262 219.499 375.87 219.599 374.496 216.512C374.178 215.796 373.972 215.296 373.823 214.853C353.25 257.675 339.572 307.585 337.23 360.657C342.474 355.533 347.914 350.508 352.554 346.78C361.494 339.721 367.925 336.918 369.215 334.764Z" fill="url(#paint16_linear_6_2)"/>
<path d="M448.9 376.205C447.654 381.593 445.777 388.941 442.944 401.236C427.934 470.376 431.338 471.105 430.576 490.169C442.891 455.163 449.313 416.197 448.9 376.205Z" fill="url(#paint17_linear_6_2)"/>
<path d="M10.4202 494.427C171.82 623.754 260.314 605.334 375.547 581.624C376.727 581.364 377.942 581.26 379.06 580.65C327.767 569.486 276.749 532.373 244.055 490.462C173.759 459.491 60.5235 469.29 10.4202 494.427Z" fill="url(#paint18_linear_6_2)"/>
<path d="M759.378 489.264C638.508 448.226 540.367 487.896 537.994 491.54C510.528 528.534 461.725 564.624 414.359 578.061C414.494 578.989 414.412 581.312 414.568 581.772C414.588 582.525 414.604 582.902 414.525 583.321C440.761 589.552 510.473 604.027 563.603 597.039C638.431 587.979 708.908 545.275 772.58 494.428C768.316 492.203 763.798 490.872 759.378 489.264Z" fill="url(#paint19_linear_6_2)"/>
<defs>
<linearGradient id="paint0_linear_6_2" x1="399.191" y1="8.39716" x2="399.191" y2="376.205" gradientUnits="userSpaceOnUse">
<stop stop-color="#8ED364"/>
<stop offset="1" stop-color="#70FF17" stop-opacity="0"/>
</linearGradient>
<linearGradient id="paint1_linear_6_2" x1="333.176" y1="360.657" x2="333.176" y2="439.124" gradientUnits="userSpaceOnUse">
<stop stop-color="#8ED364"/>
<stop offset="1" stop-color="#70FF17" stop-opacity="0"/>
</linearGradient>
<linearGradient id="paint2_linear_6_2" x1="414.516" y1="490.169" x2="414.516" y2="622.602" gradientUnits="userSpaceOnUse">
<stop stop-color="#8ED364"/>
<stop offset="1" stop-color="#70FF17" stop-opacity="0"/>
</linearGradient>
<linearGradient id="paint3_linear_6_2" x1="314.807" y1="32.1046" x2="314.807" y2="248.594" gradientUnits="userSpaceOnUse">
<stop stop-color="#8ED364"/>
<stop offset="1" stop-color="#70FF17" stop-opacity="0"/>
</linearGradient>
<linearGradient id="paint4_linear_6_2" x1="482.606" y1="32.0984" x2="482.606" y2="248.577" gradientUnits="userSpaceOnUse">
<stop stop-color="#8ED364"/>
<stop offset="1" stop-color="#70FF17" stop-opacity="0"/>
</linearGradient>
<linearGradient id="paint5_linear_6_2" x1="440.543" y1="79.897" x2="440.543" y2="171.471" gradientUnits="userSpaceOnUse">
<stop stop-color="#8ED364"/>
<stop offset="1" stop-color="#70FF17" stop-opacity="0"/>
</linearGradient>
<linearGradient id="paint6_linear_6_2" x1="203.067" y1="86.4986" x2="203.067" y2="291.463" gradientUnits="userSpaceOnUse">
<stop stop-color="#8ED364"/>
<stop offset="1" stop-color="#70FF17" stop-opacity="0"/>
</linearGradient>
<linearGradient id="paint7_linear_6_2" x1="579.942" y1="86.4986" x2="579.942" y2="291.451" gradientUnits="userSpaceOnUse">
<stop stop-color="#8ED364"/>
<stop offset="1" stop-color="#70FF17" stop-opacity="0"/>
</linearGradient>
<linearGradient id="paint8_linear_6_2" x1="321.281" y1="193.242" x2="321.281" y2="530.266" gradientUnits="userSpaceOnUse">
<stop stop-color="#8ED364"/>
<stop offset="1" stop-color="#70FF17" stop-opacity="0"/>
</linearGradient>
<linearGradient id="paint9_linear_6_2" x1="464.569" y1="193.242" x2="464.569" y2="528.998" gradientUnits="userSpaceOnUse">
<stop stop-color="#8ED364"/>
<stop offset="1" stop-color="#70FF17" stop-opacity="0"/>
</linearGradient>
<linearGradient id="paint10_linear_6_2" x1="146.021" y1="201.684" x2="146.021" y2="464.639" gradientUnits="userSpaceOnUse">
<stop stop-color="#8ED364"/>
<stop offset="1" stop-color="#70FF17" stop-opacity="0"/>
</linearGradient>
<linearGradient id="paint11_linear_6_2" x1="636.9" y1="201.679" x2="636.9" y2="464.634" gradientUnits="userSpaceOnUse">
<stop stop-color="#8ED364"/>
<stop offset="1" stop-color="#70FF17" stop-opacity="0"/>
</linearGradient>
<linearGradient id="paint12_linear_6_2" x1="275.429" y1="271.933" x2="275.429" y2="563.263" gradientUnits="userSpaceOnUse">
<stop stop-color="#8ED364"/>
<stop offset="1" stop-color="#70FF17" stop-opacity="0"/>
</linearGradient>
<linearGradient id="paint13_linear_6_2" x1="512.405" y1="271.892" x2="512.405" y2="560.223" gradientUnits="userSpaceOnUse">
<stop stop-color="#8ED364"/>
<stop offset="1" stop-color="#70FF17" stop-opacity="0"/>
</linearGradient>
<linearGradient id="paint14_linear_6_2" x1="379.363" y1="361.235" x2="379.363" y2="440.825" gradientUnits="userSpaceOnUse">
<stop stop-color="#8ED364"/>
<stop offset="1" stop-color="#70FF17" stop-opacity="0"/>
</linearGradient>
<linearGradient id="paint15_linear_6_2" x1="375.227" y1="439.124" x2="375.227" y2="556.694" gradientUnits="userSpaceOnUse">
<stop stop-color="#8ED364"/>
<stop offset="1" stop-color="#70FF17" stop-opacity="0"/>
</linearGradient>
<linearGradient id="paint16_linear_6_2" x1="361.321" y1="214.853" x2="361.321" y2="360.657" gradientUnits="userSpaceOnUse">
<stop stop-color="#8ED364"/>
<stop offset="1" stop-color="#70FF17" stop-opacity="0"/>
</linearGradient>
<linearGradient id="paint17_linear_6_2" x1="439.747" y1="376.205" x2="439.747" y2="490.169" gradientUnits="userSpaceOnUse">
<stop stop-color="#8ED364"/>
<stop offset="1" stop-color="#70FF17" stop-opacity="0"/>
</linearGradient>
<linearGradient id="paint18_linear_6_2" x1="194.74" y1="471.093" x2="194.74" y2="598.555" gradientUnits="userSpaceOnUse">
<stop stop-color="#8ED364"/>
<stop offset="1" stop-color="#70FF17" stop-opacity="0"/>
</linearGradient>
<linearGradient id="paint19_linear_6_2" x1="593.469" y1="470.804" x2="593.469" y2="598.902" gradientUnits="userSpaceOnUse">
<stop stop-color="#8ED364"/>
<stop offset="1" stop-color="#70FF17" stop-opacity="0"/>
</linearGradient>
</defs>
</svg>
